<svg width="590" height="323" viewBox="0 0 590 323" fill="none" xmlns="http://www.w3.org/2000/svg">
<g clip-path="url(#clip0_93_3411)">
<g filter="url(#filter0_b_93_3411)">
<path d="M488.956 210.318C489.85 206.04 493.901 203.244 498.07 204.028L500.791 204.541C503.463 205.044 506.213 204.075 508.046 201.985L509.892 199.88C512.739 196.633 517.558 196.281 520.757 199.086L522.986 201.041C525.026 202.829 527.833 203.397 530.407 202.542L533.161 201.627C537.162 200.298 541.433 202.446 542.833 206.49L543.865 209.471C544.757 212.049 546.876 213.963 549.481 214.543L552.462 215.207C556.529 216.113 559.146 220.158 558.4 224.386L557.853 227.486C557.375 230.193 558.276 232.948 560.241 234.786L562.512 236.911C565.594 239.794 565.88 244.692 563.16 248.001L561.288 250.279C559.538 252.408 558.972 255.303 559.791 257.935L560.686 260.81C561.971 264.936 559.811 269.4 555.818 270.875L553.229 271.831C550.658 272.78 548.739 275.033 548.166 277.775L547.583 280.568C546.69 284.846 542.638 287.642 538.47 286.857L535.748 286.345C533.076 285.842 530.327 286.811 528.494 288.901L526.648 291.006C523.8 294.252 518.981 294.604 515.782 291.8L513.553 289.845C511.513 288.056 508.707 287.489 506.132 288.344L503.378 289.258C499.377 290.587 495.106 288.44 493.707 284.396L492.675 281.415C491.783 278.837 489.663 276.923 487.059 276.343L484.078 275.679C480.01 274.772 477.393 270.728 478.139 266.499L478.686 263.4C479.164 260.693 478.263 257.938 476.299 256.1L474.027 253.975C470.945 251.091 470.659 246.194 473.379 242.885L475.251 240.607C477.002 238.478 477.568 235.582 476.748 232.951L475.853 230.076C474.569 225.95 476.728 221.486 480.721 220.011L483.311 219.055C485.882 218.106 487.8 215.853 488.373 213.111L488.956 210.318Z" fill="#90C9F6" fill-opacity="0.4"/>
<path d="M523.544 242.101C524.628 243.776 523.729 247.505 521.246 249.219C518.762 250.933 515.36 250.172 514.276 248.496C513.192 246.821 514.322 244.07 516.806 242.356C519.29 240.642 522.455 240.418 523.544 242.101Z" fill="white"/>
<path d="M520.116 242.874C520.103 243.049 520.098 243.238 520.17 243.392C520.258 243.571 520.441 243.685 520.61 243.791C521.357 244.229 522.143 244.685 523.005 244.71C524.297 244.753 525.528 243.746 525.909 242.465C525.945 242.339 525.971 242.21 525.953 242.084C525.917 241.915 525.786 241.783 525.691 241.636C525.42 241.231 525.402 240.697 525.179 240.268C524.607 239.173 522.919 238.756 521.872 239.247C520.648 239.815 520.226 241.595 520.116 242.874Z" fill="white"/>
<path d="M521.36 238.879C521.269 238.794 521.167 238.707 521.048 238.678C520.909 238.645 520.767 238.706 520.626 238.757C520.043 238.993 519.438 239.253 519.026 239.741C518.408 240.473 518.403 241.632 518.935 242.412C518.985 242.489 519.045 242.568 519.124 242.606C519.232 242.661 519.366 242.643 519.489 242.65C519.831 242.673 520.139 242.895 520.479 242.957C521.342 243.111 522.342 242.309 522.556 241.486C522.804 240.52 522.012 239.493 521.363 238.868L521.36 238.879Z" fill="white"/>
<path d="M515.046 241.868C514.981 242.033 514.913 242.21 514.933 242.381C514.957 242.586 515.095 242.759 515.228 242.908C515.798 243.578 516.399 244.283 517.214 244.6C518.434 245.08 519.928 244.522 520.69 243.422C520.766 243.314 520.837 243.2 520.853 243.069C520.873 242.889 520.792 242.722 520.745 242.551C520.618 242.074 520.772 241.552 520.691 241.062C520.502 239.814 519.021 238.847 517.871 238.965C516.521 239.101 515.552 240.667 515.042 241.861L515.046 241.868Z" fill="white"/>
<path d="M513.815 241.19C513.66 241.26 513.497 241.345 513.398 241.488C513.278 241.654 513.267 241.875 513.263 242.08C513.227 242.966 513.198 243.892 513.576 244.686C514.135 245.874 515.559 246.5 516.823 246.22C516.942 246.193 517.074 246.158 517.166 246.076C517.299 245.957 517.35 245.783 517.43 245.625C517.654 245.184 518.098 244.915 518.365 244.499C519.046 243.456 518.622 241.732 517.728 241.025C516.681 240.194 514.971 240.671 513.826 241.193L513.815 241.19Z" fill="white"/>
<path d="M515.006 242.284C514.864 242.178 514.71 242.081 514.535 242.063C514.333 242.046 514.144 242.148 513.962 242.246C513.187 242.679 512.385 243.14 511.888 243.89C511.149 245.011 511.33 246.625 512.198 247.617C512.281 247.717 512.377 247.809 512.498 247.855C512.664 247.915 512.842 247.867 513.017 247.857C513.5 247.829 513.957 248.087 514.446 248.111C515.679 248.176 516.939 246.89 517.098 245.716C517.288 244.336 516.024 243.043 515.006 242.284Z" fill="white"/>
<path d="M514.639 243.925C514.443 243.819 514.224 243.72 513.999 243.737C513.736 243.752 513.511 243.926 513.295 244.084C512.379 244.79 511.433 245.536 510.935 246.592C510.195 248.176 510.722 250.199 512.028 251.305C512.153 251.413 512.29 251.513 512.457 251.546C512.676 251.589 512.902 251.489 513.128 251.444C513.744 251.315 514.379 251.551 515.004 251.491C516.595 251.336 517.978 249.438 517.97 247.908C517.951 246.107 516.089 244.691 514.639 243.925Z" fill="white"/>
<path d="M512.813 250.255C512.775 250.449 512.744 250.655 512.81 250.841C512.886 251.056 513.073 251.205 513.252 251.341C514.023 251.928 514.844 252.536 515.795 252.685C517.225 252.9 518.717 251.945 519.295 250.575C519.354 250.441 519.399 250.299 519.389 250.158C519.369 249.959 519.245 249.795 519.154 249.626C518.905 249.142 518.954 248.543 518.759 248.03C518.265 246.733 516.441 246.05 515.217 246.45C513.784 246.921 513.091 248.843 512.813 250.255Z" fill="white"/>
<path d="M515.554 249.205C515.453 249.358 515.356 249.517 515.347 249.699C515.337 249.91 515.434 250.102 515.54 250.279C515.98 251.057 516.44 251.868 517.185 252.344C518.3 253.055 519.869 252.796 520.832 251.853C520.927 251.76 521.017 251.661 521.053 251.534C521.105 251.36 521.06 251.178 521.042 250.996C521.001 250.497 521.25 250.011 521.263 249.511C521.302 248.235 520.028 246.996 518.874 246.886C517.518 246.758 516.281 248.12 515.554 249.205Z" fill="white"/>
<path d="M518.257 251.022C518.283 251.217 518.319 251.414 518.435 251.565C518.574 251.738 518.797 251.815 519.001 251.878C519.904 252.162 520.86 252.445 521.796 252.262C523.201 251.986 524.279 250.604 524.382 249.145C524.389 249.001 524.396 248.858 524.336 248.723C524.258 248.546 524.089 248.44 523.948 248.306C523.56 247.945 523.419 247.376 523.077 246.974C522.207 245.937 520.29 245.927 519.284 246.705C518.103 247.622 518.071 249.624 518.253 251.016L518.257 251.022Z" fill="white"/>
<path d="M522.259 244.865C522.134 244.841 522.002 244.82 521.879 244.868C521.739 244.919 521.642 245.05 521.551 245.178C521.168 245.71 520.768 246.273 520.667 246.917C520.515 247.891 521.121 248.898 521.999 249.272C522.085 249.306 522.18 249.342 522.264 249.33C522.391 249.316 522.496 249.225 522.612 249.164C522.928 248.992 523.307 249.017 523.638 248.881C524.477 248.534 524.933 247.285 524.681 246.459C524.392 245.493 523.155 245.042 522.252 244.87L522.259 244.865Z" fill="white"/>
<path d="M521.156 245.663C521.147 245.817 521.142 245.978 521.206 246.119C521.282 246.279 521.446 246.378 521.596 246.469C522.251 246.85 522.948 247.238 523.708 247.26C524.845 247.289 525.919 246.391 526.241 245.271C526.273 245.166 526.297 245.048 526.276 244.932C526.242 244.78 526.13 244.663 526.041 244.54C525.803 244.186 525.783 243.719 525.582 243.339C525.07 242.379 523.586 242.024 522.669 242.463C521.597 242.971 521.236 244.535 521.156 245.663Z" fill="white"/>
<path d="M520.95 241.476C520.859 241.603 520.773 241.737 520.757 241.896C520.737 242.076 520.822 242.249 520.905 242.405C521.26 243.094 521.642 243.811 522.276 244.243C523.22 244.887 524.588 244.71 525.444 243.925C525.53 243.847 525.612 243.763 525.644 243.658C525.695 243.512 525.663 243.349 525.651 243.191C525.635 242.758 525.858 242.344 525.886 241.909C525.955 240.807 524.884 239.686 523.885 239.561C522.713 239.408 521.6 240.555 520.946 241.47L520.95 241.476Z" fill="white"/>
<path d="M501.899 265.01C512.909 271.359 527.158 265.657 535.076 256.53C540.323 250.478 545.365 238.445 540.254 230.895C538.886 228.868 535.837 231.185 537.215 233.217C541.29 239.242 536.131 249.563 532.144 254.15C525.247 262.081 512.974 266.979 503.442 261.473C501.341 260.261 499.81 263.81 501.894 265.02L501.899 265.01Z" fill="white"/>
<path d="M500.155 238.008L500.148 238.012C498.864 238.899 498.507 240.677 499.353 241.985L501.289 244.978C502.135 246.285 503.862 246.626 505.147 245.739L505.153 245.735C506.438 244.848 506.794 243.07 505.948 241.763L504.012 238.769C503.166 237.462 501.439 237.121 500.155 238.008Z" fill="white"/>
<path d="M518.854 225.103L518.848 225.108C517.563 225.994 517.207 227.773 518.052 229.08L519.989 232.073C520.834 233.38 522.561 233.721 523.846 232.834L523.852 232.83C525.137 231.943 525.493 230.165 524.648 228.858L522.711 225.865C521.866 224.558 520.139 224.217 518.854 225.103Z" fill="white"/>
</g>
<g filter="url(#filter1_b_93_3411)">
<path d="M301.194 178.408C304.996 180.579 306.331 185.402 304.176 189.183L302.614 191.925C301.231 194.351 301.242 197.331 302.643 199.76L304.183 202.432C306.341 206.177 305.098 210.941 301.388 213.136L298.272 214.979C295.923 216.369 294.466 218.874 294.42 221.603L294.363 225.047C294.292 229.26 290.915 232.658 286.69 232.768L282.695 232.872C280.022 232.942 277.572 234.351 276.18 236.62L274.145 239.936C271.969 243.482 267.396 244.718 263.697 242.761L260.238 240.93C257.871 239.678 255.036 239.697 252.699 240.982L249.207 242.902C245.514 244.933 240.857 243.707 238.626 240.116L236.803 237.181C235.358 234.854 232.814 233.431 230.076 233.417L226.445 233.398C222.121 233.375 218.597 229.9 218.526 225.59L218.475 222.516C218.43 219.72 216.904 217.15 214.465 215.757L211.708 214.183C207.906 212.013 206.571 207.19 208.726 203.408L210.288 200.666C211.671 198.241 211.659 195.261 210.259 192.831L208.719 190.16C206.561 186.414 207.804 181.65 211.514 179.456L214.63 177.613C216.979 176.223 218.436 173.718 218.482 170.989L218.539 167.545C218.61 163.332 221.987 159.933 226.212 159.823L230.207 159.72C232.88 159.65 235.33 158.24 236.722 155.971L238.757 152.656C240.933 149.11 245.506 147.873 249.205 149.831L252.664 151.661C255.031 152.914 257.866 152.895 260.203 151.61L263.695 149.689C267.388 147.658 272.045 148.885 274.276 152.476L276.099 155.411C277.544 157.737 280.088 159.161 282.826 159.175L286.457 159.194C290.781 159.216 294.305 162.691 294.376 167.002L294.426 170.075C294.472 172.871 295.998 175.442 298.437 176.834L301.194 178.408Z" fill="#0073FE" fill-opacity="0.4"/>
</g>
<path d="M253.052 181.687C253.33 181.26 253.722 180.978 254.23 180.841C254.737 180.704 255.22 180.749 255.679 180.977L262.224 184.575L263.675 182.122L262.974 181.736C262.507 181.479 262.205 181.105 262.069 180.615C261.933 180.124 262.001 179.651 262.271 179.194C262.549 178.768 262.941 178.486 263.448 178.349C263.956 178.212 264.423 178.261 264.852 178.497L269.527 181.067C269.994 181.324 270.296 181.698 270.432 182.189C270.568 182.679 270.501 183.153 270.231 183.609C269.991 184.057 269.61 184.352 269.088 184.493C268.566 184.634 268.086 184.572 267.649 184.307L266.948 183.921L265.497 186.375L272.042 189.974C272.509 190.231 272.811 190.605 272.947 191.095C273.082 191.586 273.015 192.059 272.745 192.516C272.475 192.972 272.087 193.269 271.58 193.406C271.073 193.543 270.585 193.483 270.118 193.226L268.586 192.346L266.494 195.884L259.936 192.24C259.477 192.013 258.994 191.968 258.487 192.105C257.98 192.242 257.587 192.524 257.309 192.95C257.039 193.407 256.972 193.88 257.107 194.371C257.243 194.861 257.545 195.235 258.012 195.492L264.603 199.079L262.591 202.547L255.987 198.916C255.52 198.659 255.032 198.599 254.525 198.736C254.018 198.873 253.63 199.17 253.36 199.626C253.112 200.045 253.064 200.497 253.215 200.983C253.366 201.47 253.66 201.846 254.097 202.111L260.688 205.697L258.629 209.178C258.112 210.053 257.338 210.629 256.309 210.908C255.28 211.186 254.317 211.079 253.421 210.586L251.738 209.699L246.553 218.53C246.328 218.911 246.01 219.077 245.601 219.028C245.191 218.979 244.928 218.746 244.813 218.33L244.307 216.501C244.208 216.145 244.188 215.775 244.247 215.391C244.306 215.008 244.426 214.664 244.606 214.359L248.453 207.855L246.771 206.968C245.875 206.475 245.289 205.731 245.014 204.735C244.738 203.739 244.859 202.803 245.376 201.928L255.333 185.096L253.755 184.229C253.318 183.963 253.032 183.585 252.896 183.095C252.761 182.604 252.812 182.135 253.052 181.687Z" fill="white"/>
<path d="M313.696 198.644C284.804 230.471 272.284 270.51 253.321 283.331C244.485 279.957 238.286 277.173 233.616 283.331C230.577 288.127 233.411 295.788 236.263 297.771C233.952 300.501 232.037 303.376 230.684 306.47C220.755 329.173 231.496 347.381 255.475 346.851C307.525 345.699 359.563 235.89 359.563 235.89" fill="#E9ECF2"/>
<path d="M422.508 175.398C435.497 172.95 462.513 125.524 467.51 103.217C461.126 96.2646 455.534 85.3154 461.277 77.4743C466.336 70.5668 475.39 75.5537 478.289 77.4743C479.98 74.3283 481.97 71.4867 484.361 69.0999C501.89 51.5402 523.949 54.4065 531.116 77.2333C557.076 159.864 449.014 239.866 449.014 239.866" fill="white"/>
<path d="M345.331 65.0909C343.541 50.6789 330.379 40.4422 315.933 42.2268C301.486 44.0113 291.226 57.1413 293.015 71.5534L297.439 107.178C299.228 121.59 312.39 131.827 326.837 130.042C341.283 128.258 351.544 115.128 349.754 100.716L345.331 65.0909Z" fill="white"/>
<path d="M426.481 55.0732C424.692 40.6612 411.53 30.4245 397.083 32.2091C382.637 33.9936 372.376 47.1236 374.166 61.5357L378.589 97.1605C380.379 111.573 393.541 121.809 407.987 120.025C422.434 118.24 432.694 105.11 430.905 90.6981L426.481 55.0732Z" fill="white"/>
<path d="M337.948 68.4308C336.683 58.2462 327.383 51.0121 317.175 52.2731C306.967 53.5341 299.717 62.8126 300.981 72.9972L304.108 98.1757C305.372 108.36 314.673 115.594 324.881 114.333C335.089 113.072 342.339 103.794 341.074 93.6092L337.948 68.4308Z" fill="#E9ECF2"/>
<path d="M419.099 58.4028C417.834 48.2182 408.534 40.9842 398.325 42.2452C388.117 43.5061 380.867 52.7846 382.132 62.9692L385.258 88.1477C386.523 98.3323 395.823 105.566 406.031 104.305C416.24 103.044 423.49 93.7659 422.225 83.5813L419.099 58.4028Z" fill="#E9ECF2"/>
<path d="M457.854 226.724C456.147 204.021 449.007 196.723 448.435 191.149C442.409 133.286 438.316 130.847 435.203 110.611C432.09 90.3743 425.612 70.6344 410.791 59.7269C397.525 49.9638 378.704 48.2457 370.128 48.526L346.065 51.4949C315.851 55.232 294.401 82.679 298.137 112.815L307.868 191.149C310.096 209.056 306.151 227.222 296.555 242.524C296.493 242.617 296.43 242.721 296.378 242.814C262.793 296.296 269.277 374.464 269.277 374.464H459.665C463.204 344.028 463.464 319.207 463.006 301.871C462.746 292.019 461.112 270.116 457.865 226.724H457.854Z" fill="white"/>
<path d="M373.479 106.96C373.812 109.659 370.482 113.583 366.402 114.092C362.322 114.6 358.586 111.548 358.253 108.849C357.92 106.15 360.948 103.555 365.028 103.046C369.108 102.538 373.136 104.271 373.479 106.97V106.96Z" fill="black"/>
<path d="M368.795 105.746C368.67 105.953 368.556 106.171 368.556 106.41C368.556 106.69 368.712 106.939 368.868 107.168C369.524 108.164 370.221 109.202 371.272 109.784C372.844 110.645 374.956 110.209 376.185 108.901C376.299 108.777 376.414 108.631 376.466 108.465C376.528 108.237 376.445 107.998 376.414 107.759C376.32 107.105 376.611 106.451 376.601 105.787C376.559 104.105 374.717 102.548 373.135 102.476C371.283 102.393 369.701 104.271 368.816 105.746H368.795Z" fill="black"/>
<path d="M372.708 101.708C372.646 101.552 372.573 101.386 372.448 101.272C372.292 101.147 372.084 101.126 371.886 101.105C371.022 101.022 370.127 100.95 369.326 101.282C368.129 101.78 367.432 103.171 367.619 104.448C367.64 104.573 367.66 104.697 367.744 104.801C367.848 104.936 368.025 104.998 368.17 105.092C368.587 105.33 368.826 105.798 369.201 106.078C370.179 106.805 371.886 106.472 372.635 105.611C373.51 104.604 373.156 102.87 372.729 101.708H372.708Z" fill="black"/>
<path d="M363.144 101.344C362.957 101.5 362.769 101.666 362.696 101.894C362.603 102.154 362.676 102.444 362.738 102.714C363.04 103.887 363.362 105.102 364.174 106.005C365.392 107.344 367.557 107.614 369.16 106.773C369.316 106.69 369.472 106.597 369.565 106.451C369.701 106.254 369.701 105.994 369.742 105.756C369.867 105.102 370.367 104.572 370.565 103.929C371.075 102.309 369.826 100.212 368.348 99.631C366.61 98.9459 364.476 100.223 363.133 101.333L363.144 101.344Z" fill="black"/>
<path d="M362.051 99.7556C361.812 99.7452 361.562 99.7452 361.354 99.849C361.114 99.9736 360.969 100.233 360.833 100.472C360.261 101.52 359.678 102.61 359.657 103.804C359.636 105.579 361.021 107.23 362.738 107.687C362.904 107.728 363.081 107.77 363.248 107.728C363.477 107.676 363.654 107.489 363.841 107.344C364.372 106.96 365.09 106.908 365.662 106.576C367.12 105.745 367.63 103.399 366.953 101.987C366.162 100.327 363.768 99.8282 362.041 99.7348L362.051 99.7556Z" fill="black"/>
<path d="M362.852 101.821C362.738 101.603 362.613 101.385 362.415 101.261C362.176 101.116 361.874 101.116 361.603 101.126C360.396 101.157 359.126 101.209 358.075 101.801C356.493 102.693 355.754 104.738 356.233 106.482C356.275 106.649 356.337 106.825 356.462 106.95C356.629 107.126 356.878 107.178 357.097 107.271C357.711 107.541 358.117 108.143 358.7 108.476C360.178 109.327 362.498 108.569 363.394 107.261C364.445 105.714 363.664 103.368 362.863 101.811L362.852 101.821Z" fill="black"/>
<path d="M361.416 103.565C361.229 103.316 361.031 103.057 360.739 102.932C360.406 102.787 360.021 102.849 359.667 102.911C358.117 103.181 356.504 103.493 355.265 104.448C353.412 105.891 352.85 108.662 353.798 110.811C353.891 111.019 353.995 111.226 354.183 111.372C354.432 111.559 354.765 111.59 355.067 111.673C355.91 111.901 356.545 112.586 357.357 112.908C359.418 113.718 362.249 112.316 363.144 110.458C364.195 108.278 362.748 105.413 361.426 103.565H361.416Z" fill="black"/>
<path d="M355.411 110.043C355.244 110.251 355.088 110.479 355.057 110.749C355.015 111.06 355.161 111.351 355.307 111.631C355.91 112.825 356.545 114.071 357.638 114.849C359.272 116.012 361.676 115.794 363.206 114.507C363.352 114.382 363.497 114.237 363.57 114.06C363.664 113.811 363.602 113.531 363.602 113.272C363.581 112.535 363.997 111.839 364.059 111.102C364.226 109.223 362.384 107.261 360.646 106.97C358.595 106.638 356.597 108.517 355.411 110.043Z" fill="black"/>
<path d="M359.397 110.51C359.189 110.624 358.97 110.759 358.845 110.967C358.7 111.206 358.72 111.507 358.731 111.787C358.804 113.002 358.897 114.268 359.532 115.306C360.479 116.863 362.571 117.538 364.309 116.998C364.476 116.946 364.653 116.884 364.778 116.759C364.944 116.583 364.996 116.334 365.09 116.105C365.34 115.483 365.933 115.057 366.245 114.455C367.057 112.95 366.224 110.645 364.861 109.794C363.269 108.787 360.927 109.648 359.386 110.5L359.397 110.51Z" fill="black"/>
<path d="M361.645 114.393C361.561 114.642 361.489 114.901 361.541 115.161C361.603 115.462 361.832 115.69 362.051 115.898C362.998 116.811 363.997 117.756 365.256 118.119C367.14 118.67 369.305 117.683 370.304 115.991C370.398 115.825 370.491 115.649 370.491 115.462C370.491 115.202 370.356 114.964 370.262 114.715C370.002 114.029 370.158 113.261 369.981 112.555C369.523 110.77 367.171 109.534 365.464 109.846C363.466 110.199 362.228 112.597 361.624 114.393H361.645Z" fill="black"/>
<path d="M370.252 109.483C370.117 109.379 369.961 109.275 369.784 109.254C369.576 109.233 369.388 109.327 369.201 109.42C368.41 109.815 367.588 110.24 367.078 110.967C366.308 112.047 366.464 113.635 367.317 114.642C367.4 114.735 367.494 114.839 367.609 114.881C367.775 114.943 367.952 114.901 368.129 114.901C368.618 114.891 369.076 115.161 369.565 115.202C370.804 115.306 372.105 114.092 372.292 112.939C372.511 111.59 371.262 110.272 370.242 109.493L370.252 109.483Z" fill="black"/>
<path d="M368.41 109.753C368.306 109.929 368.202 110.126 368.202 110.334C368.202 110.573 368.348 110.791 368.483 110.998C369.066 111.87 369.69 112.773 370.606 113.282C371.99 114.029 373.843 113.625 374.915 112.472C375.019 112.358 375.123 112.234 375.154 112.088C375.206 111.881 375.133 111.673 375.102 111.465C375.019 110.894 375.269 110.313 375.248 109.732C375.196 108.258 373.572 106.898 372.188 106.846C370.564 106.784 369.191 108.445 368.41 109.742V109.753Z" fill="black"/>
<path d="M370.648 104.583C370.46 104.676 370.273 104.79 370.158 104.967C370.033 105.174 370.033 105.434 370.033 105.673C370.065 106.721 370.106 107.821 370.616 108.745C371.386 110.116 373.187 110.77 374.707 110.354C374.852 110.313 375.008 110.261 375.112 110.157C375.269 110.012 375.31 109.794 375.404 109.607C375.643 109.078 376.164 108.714 376.455 108.216C377.204 106.929 376.549 104.915 375.393 104.136C374.04 103.223 371.99 103.897 370.627 104.593L370.648 104.583Z" fill="black"/>
<path d="M338.009 126.289C350.686 138.341 371.47 136.296 385.094 127.026C393.898 121.036 404.993 107.053 400.58 95.458C399.404 92.3645 394.367 93.7036 395.564 96.8386C399.123 106.171 389.434 117.787 382.471 122.542C370.877 130.483 352.694 133.078 341.693 122.614C339.268 120.31 335.584 123.974 338.009 126.289Z" fill="black"/>
<path d="M344.791 87.6333L344.781 87.6345C342.67 87.8953 341.171 89.8132 341.433 91.9184L342.031 96.7398C342.293 98.845 344.216 100.34 346.326 100.08L346.337 100.078C348.447 99.8176 349.947 97.8996 349.685 95.7944L349.086 90.973C348.825 88.8678 346.902 87.3725 344.791 87.6333Z" fill="black"/>
<path d="M375.512 83.8435L375.502 83.8448C373.391 84.1055 371.892 86.0235 372.154 88.1287L372.752 92.9501C373.014 95.0553 374.937 96.5505 377.047 96.2898L377.058 96.2885C379.168 96.0278 380.667 94.1099 380.406 92.0047L379.807 87.1833C379.546 85.0781 377.623 83.5828 375.512 83.8435Z" fill="black"/>
<g filter="url(#filter2_b_93_3411)">
<path d="M115.194 215.408C118.996 217.579 120.331 222.402 118.176 226.183L116.614 228.925C115.231 231.351 115.242 234.331 116.643 236.76L118.183 239.432C120.341 243.177 119.098 247.941 115.388 250.136L112.272 251.979C109.923 253.369 108.466 255.874 108.42 258.603L108.363 262.047C108.292 266.26 104.915 269.658 100.69 269.768L96.6949 269.872C94.0221 269.942 91.5718 271.351 90.1796 273.62L88.145 276.936C85.9693 280.482 81.3959 281.718 77.6969 279.761L74.2378 277.93C71.8708 276.678 69.0358 276.697 66.6994 277.982L63.2069 279.902C59.5137 281.933 54.8567 280.707 52.6261 277.116L50.8028 274.181C49.3578 271.854 46.8139 270.431 44.0756 270.417L40.4448 270.398C36.1212 270.375 32.5968 266.9 32.526 262.59L32.4755 259.516C32.4296 256.72 30.9042 254.15 28.4652 252.757L25.7083 251.183C21.9057 249.013 20.5708 244.19 22.7258 240.408L24.2883 237.666C25.6706 235.241 25.6595 232.261 24.2591 229.831L22.7195 227.16C20.5605 223.414 21.8045 218.65 25.5143 216.456L28.6298 214.613C30.9794 213.223 32.436 210.718 32.4817 207.989L32.5394 204.545C32.61 200.332 35.9868 196.933 40.2117 196.823L44.2071 196.72C46.8799 196.65 49.3301 195.24 50.7224 192.971L52.7569 189.656C54.9327 186.11 59.5061 184.873 63.2051 186.831L66.6642 188.661C69.0311 189.914 71.8662 189.895 74.2026 188.61L77.6951 186.689C81.3883 184.658 86.0453 185.885 88.2759 189.476L90.0992 192.411C91.5442 194.737 94.0881 196.161 96.8263 196.175L100.457 196.194C104.781 196.216 108.305 199.691 108.376 204.002L108.426 207.075C108.472 209.871 109.998 212.442 112.437 213.834L115.194 215.408Z" fill="#0073FE" fill-opacity="0.4"/>
</g>
<path d="M67.0516 218.687C67.3298 218.26 67.7225 217.978 68.2295 217.841C68.7366 217.704 69.2197 217.749 69.679 217.976L76.2241 221.575L77.6754 219.122L76.9741 218.736C76.5066 218.479 76.205 218.105 76.0692 217.615C75.9334 217.124 76.0006 216.651 76.2706 216.194C76.5488 215.768 76.9415 215.486 77.4485 215.349C77.9555 215.212 78.4233 215.261 78.8519 215.496L83.5269 218.067C83.9944 218.324 84.2961 218.698 84.4319 219.189C84.5676 219.679 84.5005 220.153 84.2305 220.609C83.9912 221.057 83.6104 221.352 83.088 221.493C82.5656 221.634 82.086 221.572 81.6492 221.307L80.9479 220.921L79.4966 223.375L86.0417 226.974C86.5092 227.231 86.8109 227.605 86.9466 228.095C87.0824 228.586 87.0153 229.059 86.7453 229.516C86.4753 229.972 86.0867 230.269 85.5797 230.406C85.0727 230.543 84.5854 230.483 84.1179 230.226L82.5861 229.346L80.4935 232.883L73.9361 229.24C73.4768 229.013 72.9937 228.968 72.4866 229.105C71.9796 229.242 71.587 229.524 71.3087 229.95C71.0387 230.407 70.9716 230.88 71.1074 231.371C71.2431 231.861 71.5448 232.235 72.0123 232.492L78.6035 236.079L76.5907 239.547L69.9872 235.916C69.5197 235.659 69.0324 235.599 68.5254 235.736C68.0183 235.873 67.6298 236.17 67.3598 236.626C67.1123 237.045 67.0641 237.497 67.2152 237.983C67.3664 238.47 67.6603 238.846 68.0971 239.111L74.6883 242.697L72.6294 246.178C72.1119 247.053 71.3384 247.629 70.309 247.908C69.2795 248.186 68.3168 248.079 67.4207 247.586L65.7384 246.699L60.553 255.53C60.328 255.911 60.0105 256.076 59.6006 256.027C59.1907 255.979 58.9281 255.746 58.8129 255.33L58.3069 253.501C58.2081 253.145 58.1882 252.774 58.2473 252.391C58.3063 252.008 58.4258 251.664 58.6058 251.359L62.4535 244.855L60.7711 243.968C59.8751 243.475 59.2892 242.731 59.0135 241.735C58.7379 240.739 58.8588 239.803 59.3763 238.928L69.333 222.096L67.7552 221.229C67.3184 220.963 67.0321 220.585 66.8963 220.095C66.7606 219.604 66.8123 219.135 67.0516 218.687Z" fill="white"/>
<g filter="url(#filter3_b_93_3411)">
<path d="M147.956 17.3179C148.85 13.0396 152.901 10.2436 157.07 11.0283L159.791 11.5406C162.463 12.0435 165.213 11.0748 167.046 8.98476L168.892 6.8799C171.739 3.63344 176.558 3.28128 179.757 6.08595L181.986 8.04066C184.026 9.82943 186.833 10.3972 189.407 9.54208L192.161 8.62733C196.162 7.2984 200.433 9.44563 201.833 13.4895L202.865 16.4706C203.757 19.0486 205.876 20.9625 208.481 21.5428L211.462 22.207C215.529 23.1133 218.146 27.1582 217.4 31.3864L216.853 34.4855C216.375 37.193 217.276 39.9476 219.241 41.7856L221.512 43.9111C224.594 46.7943 224.88 51.6918 222.16 55.001L220.288 57.2788C218.538 59.4082 217.972 62.3035 218.791 64.9348L219.686 67.8101C220.971 71.9358 218.811 76.4 214.818 77.8746L212.229 78.8306C209.658 79.7799 207.739 82.0331 207.166 84.7752L206.583 87.5679C205.69 91.8462 201.638 94.6421 197.47 93.8574L194.748 93.3452C192.076 92.8423 189.327 93.811 187.494 95.901L185.648 98.0059C182.8 101.252 177.981 101.604 174.782 98.7998L172.553 96.8451C170.513 95.0563 167.707 94.4885 165.132 95.3437L162.378 96.2584C158.377 97.5874 154.106 95.4401 152.707 91.3962L151.675 88.4152C150.783 85.8372 148.663 83.9233 146.059 83.343L143.078 82.6787C139.01 81.7725 136.393 77.7276 137.139 73.4994L137.686 70.4003C138.164 67.6928 137.263 64.9382 135.299 63.1001L133.027 60.9747C129.945 58.0915 129.659 53.194 132.379 49.8848L134.251 47.6069C136.002 45.4775 136.568 42.5823 135.748 39.951L134.853 37.0756C133.569 32.95 135.728 28.4858 139.721 27.0112L142.311 26.0552C144.882 25.1058 146.8 22.8527 147.373 20.1105L147.956 17.3179Z" fill="#90C9F6" fill-opacity="0.4"/>
<path d="M182.544 49.1006C183.628 50.7764 182.729 54.505 180.246 56.2189C177.762 57.9329 174.36 57.1722 173.276 55.4964C172.192 53.8206 173.322 51.0697 175.806 49.3558C178.29 47.6418 181.455 47.4184 182.544 49.1006Z" fill="white"/>
<path d="M179.116 49.8736C179.103 50.0495 179.098 50.2381 179.17 50.3919C179.258 50.5712 179.441 50.6854 179.61 50.7912C180.357 51.2287 181.143 51.6852 182.005 51.7102C183.297 51.7531 184.528 50.7462 184.909 49.4655C184.945 49.3387 184.971 49.2099 184.953 49.0836C184.917 48.9145 184.786 48.7827 184.691 48.6356C184.42 48.2306 184.402 47.697 184.179 47.268C183.607 46.1731 181.919 45.7563 180.872 46.2473C179.648 46.8147 179.226 48.5952 179.116 49.8736Z" fill="white"/>
<path d="M180.36 45.8791C180.269 45.7941 180.167 45.7071 180.048 45.678C179.909 45.6449 179.767 45.7061 179.626 45.7566C179.043 45.9929 178.438 46.253 178.026 46.7408C177.408 47.4726 177.403 48.6323 177.935 49.4124C177.985 49.4891 178.045 49.568 178.124 49.6059C178.232 49.6607 178.366 49.6425 178.489 49.65C178.831 49.6729 179.139 49.8954 179.479 49.9569C180.342 50.1105 181.342 49.3091 181.556 48.4864C181.804 47.5198 181.012 46.4932 180.363 45.8684L180.36 45.8791Z" fill="white"/>
<path d="M174.046 48.8676C173.981 49.0332 173.913 49.2095 173.933 49.3808C173.957 49.5864 174.095 49.7589 174.228 49.9078C174.798 50.5783 175.399 51.2828 176.214 51.5997C177.434 52.0805 178.928 51.5215 179.69 50.422C179.766 50.3142 179.837 50.2 179.853 50.0691C179.873 49.8889 179.792 49.7224 179.745 49.5513C179.618 49.0743 179.772 48.5522 179.691 48.062C179.502 46.8139 178.021 45.8466 176.871 45.9655C175.521 46.101 174.552 47.6673 174.042 48.8612L174.046 48.8676Z" fill="white"/>
<path d="M172.815 48.1906C172.66 48.2604 172.497 48.3454 172.398 48.4877C172.278 48.6537 172.267 48.8746 172.263 49.0804C172.227 49.966 172.198 50.8922 172.576 51.6864C173.135 52.8736 174.559 53.5006 175.823 53.22C175.942 53.1933 176.074 53.1579 176.166 53.0757C176.299 52.9567 176.35 52.7826 176.43 52.6255C176.654 52.1842 177.098 51.9148 177.365 51.4988C178.046 50.4558 177.622 48.7316 176.728 48.0252C175.681 47.1937 173.971 47.6708 172.826 48.1926L172.815 48.1906Z" fill="white"/>
<path d="M174.006 49.2844C173.864 49.1784 173.71 49.0811 173.535 49.0632C173.333 49.0456 173.144 49.1479 172.962 49.2459C172.187 49.6789 171.385 50.1399 170.888 50.89C170.149 52.0107 170.33 53.6254 171.198 54.6171C171.281 54.7172 171.377 54.8085 171.498 54.8547C171.664 54.9155 171.842 54.8668 172.017 54.8568C172.5 54.8292 172.957 55.087 173.446 55.1108C174.679 55.1756 175.939 53.8897 176.098 52.7159C176.288 51.3361 175.024 50.0433 174.006 49.2844Z" fill="white"/>
<path d="M173.639 50.9249C173.443 50.8194 173.224 50.7204 172.999 50.7373C172.736 50.7524 172.511 50.9257 172.295 51.084C171.379 51.7903 170.433 52.5355 169.935 53.5921C169.195 55.1759 169.722 57.1993 171.028 58.3052C171.153 58.4135 171.29 58.5131 171.457 58.546C171.676 58.5892 171.902 58.4887 172.128 58.444C172.744 58.3145 173.379 58.5515 174.004 58.4906C175.595 58.3359 176.978 56.4382 176.97 54.9078C176.951 53.1074 175.089 51.691 173.639 50.9249Z" fill="white"/>
<path d="M171.813 57.2553C171.775 57.4486 171.744 57.6546 171.81 57.8405C171.886 58.0564 172.073 58.2049 172.252 58.3406C173.023 58.928 173.844 59.5363 174.795 59.6849C176.225 59.9003 177.717 58.9448 178.295 57.5746C178.354 57.4412 178.399 57.2993 178.389 57.158C178.369 56.9588 178.245 56.7948 178.154 56.6262C177.905 56.1417 177.954 55.5432 177.759 55.0304C177.265 53.7334 175.441 53.0497 174.217 53.45C172.784 53.9206 172.091 55.8426 171.813 57.2553Z" fill="white"/>
<path d="M174.554 56.2046C174.453 56.3576 174.356 56.5171 174.347 56.6993C174.337 56.9095 174.434 57.1016 174.54 57.2786C174.98 58.0574 175.44 58.8681 176.185 59.3442C177.3 60.0552 178.869 59.7957 179.832 58.8531C179.927 58.7601 180.017 58.6608 180.053 58.534C180.105 58.36 180.06 58.1782 180.042 57.9961C180.001 57.497 180.25 57.0105 180.263 56.511C180.302 55.2353 179.028 53.9962 177.874 53.8857C176.518 53.7576 175.281 55.1204 174.554 56.2046Z" fill="white"/>
<path d="M177.257 58.0221C177.283 58.2169 177.319 58.4138 177.435 58.5651C177.574 58.7375 177.797 58.815 178.001 58.8776C178.904 59.1617 179.86 59.4452 180.796 59.2617C182.201 58.9864 183.279 57.6035 183.382 56.1451C183.389 56.0014 183.396 55.8577 183.336 55.7232C183.258 55.5459 183.089 55.4401 182.948 55.3063C182.56 54.9451 182.419 54.3761 182.077 53.9738C181.207 52.9371 179.29 52.9273 178.284 53.7052C177.103 54.6216 177.071 56.6239 177.253 58.0157L177.257 58.0221Z" fill="white"/>
<path d="M181.259 51.8653C181.134 51.8406 181.002 51.8203 180.879 51.8684C180.739 51.9189 180.642 52.0505 180.551 52.1777C180.168 52.7103 179.768 53.2731 179.667 53.917C179.515 54.8914 180.121 55.8981 180.999 56.2723C181.085 56.3059 181.18 56.3416 181.264 56.3301C181.391 56.3162 181.496 56.2253 181.612 56.1644C181.928 55.9924 182.307 56.0171 182.638 55.8815C183.477 55.5337 183.933 54.2846 183.681 53.4593C183.392 52.4928 182.155 52.0422 181.252 51.8696L181.259 51.8653Z" fill="white"/>
<path d="M180.156 52.6628C180.147 52.8172 180.142 52.978 180.206 53.119C180.282 53.2791 180.446 53.3785 180.596 53.4694C181.251 53.8498 181.948 54.2384 182.708 54.26C183.845 54.2891 184.919 53.3907 185.241 52.2713C185.273 52.166 185.297 52.0479 185.276 51.9323C185.242 51.7804 185.13 51.6634 185.041 51.5398C184.803 51.186 184.783 50.7189 184.582 50.339C184.07 49.3787 182.586 49.0244 181.669 49.4629C180.597 49.9712 180.236 51.5347 180.156 52.6628Z" fill="white"/>
<path d="M179.95 48.476C179.859 48.6032 179.773 48.7369 179.757 48.8956C179.737 49.0758 179.822 49.2487 179.905 49.4045C180.26 50.0939 180.642 50.811 181.276 51.243C182.22 51.8868 183.588 51.7104 184.444 50.9252C184.53 50.8474 184.612 50.7631 184.644 50.6578C184.695 50.5116 184.663 50.349 184.651 50.1904C184.635 49.7576 184.858 49.3442 184.886 48.9088C184.955 47.8065 183.884 46.6857 182.885 46.5611C181.713 46.4079 180.6 47.5554 179.946 48.4696L179.95 48.476Z" fill="white"/>
<path d="M160.899 72.01C171.909 78.3587 186.158 72.6568 194.076 63.5304C199.323 57.478 204.365 45.445 199.254 37.8948C197.886 35.868 194.837 38.1855 196.215 40.2167C200.29 46.2424 195.131 56.5633 191.144 61.1501C184.247 69.0808 171.974 73.9791 162.442 68.4727C160.341 67.2614 158.81 70.8103 160.894 72.02L160.899 72.01Z" fill="white"/>
<path d="M159.155 45.0082L159.148 45.0125C157.864 45.8992 157.507 47.6775 158.353 48.9846L160.289 51.978C161.135 53.285 162.862 53.6258 164.147 52.7391L164.153 52.7348C165.438 51.8481 165.794 50.0698 164.948 48.7627L163.012 45.7693C162.166 44.4623 160.439 44.1215 159.155 45.0082Z" fill="white"/>
<path d="M177.854 32.1035L177.848 32.1078C176.563 32.9945 176.207 34.7729 177.052 36.0799L178.989 39.0733C179.834 40.3804 181.561 40.7211 182.846 39.8345L182.852 39.8301C184.137 38.9434 184.493 37.1651 183.648 35.858L181.711 32.8646C180.866 31.5576 179.139 31.2168 177.854 32.1035Z" fill="white"/>
</g>
</g>
<defs>
<filter id="filter0_b_93_3411" x="404.847" y="131.035" width="232.004" height="235.569" filterUnits="userSpaceOnUse" color-interpolation-filters="sRGB">
<feFlood flood-opacity="0" result="BackgroundImageFix"/>
<feGaussianBlur in="BackgroundImageFix" stdDeviation="33.079"/>
<feComposite in2="SourceAlpha" operator="in" result="effect1_backgroundBlur_93_3411"/>
<feBlend mode="normal" in="SourceGraphic" in2="effect1_backgroundBlur_93_3411" result="shape"/>
</filter>
<filter id="filter1_b_93_3411" x="142.281" y="83.331" width="228.341" height="225.929" filterUnits="userSpaceOnUse" color-interpolation-filters="sRGB">
<feFlood flood-opacity="0" result="BackgroundImageFix"/>
<feGaussianBlur in="BackgroundImageFix" stdDeviation="32.6898"/>
<feComposite in2="SourceAlpha" operator="in" result="effect1_backgroundBlur_93_3411"/>
<feBlend mode="normal" in="SourceGraphic" in2="effect1_backgroundBlur_93_3411" result="shape"/>
</filter>
<filter id="filter2_b_93_3411" x="-43.7195" y="120.331" width="228.341" height="225.929" filterUnits="userSpaceOnUse" color-interpolation-filters="sRGB">
<feFlood flood-opacity="0" result="BackgroundImageFix"/>
<feGaussianBlur in="BackgroundImageFix" stdDeviation="32.6898"/>
<feComposite in2="SourceAlpha" operator="in" result="effect1_backgroundBlur_93_3411"/>
<feBlend mode="normal" in="SourceGraphic" in2="effect1_backgroundBlur_93_3411" result="shape"/>
</filter>
<filter id="filter3_b_93_3411" x="63.8469" y="-61.9645" width="232.004" height="235.569" filterUnits="userSpaceOnUse" color-interpolation-filters="sRGB">
<feFlood flood-opacity="0" result="BackgroundImageFix"/>
<feGaussianBlur in="BackgroundImageFix" stdDeviation="33.079"/>
<feComposite in2="SourceAlpha" operator="in" result="effect1_backgroundBlur_93_3411"/>
<feBlend mode="normal" in="SourceGraphic" in2="effect1_backgroundBlur_93_3411" result="shape"/>
</filter>
<clipPath id="clip0_93_3411">
<rect width="590" height="323" rx="20" fill="white"/>
</clipPath>
</defs>
</svg>
