<svg width="155" height="111" viewBox="0 0 155 111" fill="none" xmlns="http://www.w3.org/2000/svg">
<g id="Vector" opacity="0.2">
<path d="M94.1431 52.6266C93.9033 58.6205 85.2593 65.9657 76.2126 65.5951C67.166 65.2244 60.1445 57.2374 60.3842 51.2435C60.624 45.2496 68.1478 40.677 77.1944 41.0477C86.2411 41.4183 94.3837 46.6099 94.1431 52.6266Z" fill="#4196FD"/>
<path d="M84.409 48.2851C84.0719 48.6837 83.7329 49.1281 83.6441 49.6286C83.5516 50.2206 83.8026 50.8267 84.0326 51.3861C85.1064 53.7903 86.2443 56.3117 88.313 57.9317C91.4041 60.3728 96.1606 60.1781 99.3073 57.7864C99.6151 57.547 99.9009 57.2837 100.075 56.9471C100.277 56.4742 100.185 55.9204 100.206 55.3943C100.242 53.9292 101.12 52.6132 101.315 51.1775C101.806 47.5084 98.3895 43.45 94.977 42.7373C90.9964 41.8867 86.8869 45.4077 84.409 48.2851Z" fill="#4196FD"/>
<path d="M94.36 40.9247C94.283 40.555 94.184 40.1614 93.9431 39.8765C93.6582 39.544 93.2038 39.4337 92.7732 39.3015C90.9345 38.8137 89.0033 38.3451 87.151 38.7733C84.3724 39.4156 82.3571 42.1974 82.3124 45.037C82.3014 45.3115 82.3124 45.6099 82.4406 45.8443C82.6111 46.1721 82.9702 46.3701 83.2588 46.6111C84.0577 47.2854 84.4269 48.3776 85.1534 49.1406C87.0032 51.0725 90.8389 50.9547 92.7838 49.3616C95.0611 47.4842 94.896 43.5819 94.3838 40.9028L94.36 40.9247Z" fill="#4196FD"/>
<path d="M73.7242 36.6881C73.2772 36.9677 72.8063 37.2692 72.559 37.7174C72.2622 38.2552 72.3043 38.9214 72.3722 39.52C72.6105 42.165 72.8662 44.9481 74.3138 47.1844C76.4733 50.5497 81.0988 51.9078 84.8658 50.6414C85.2377 50.5192 85.6106 50.3741 85.8744 50.087C86.2344 49.6893 86.3251 49.143 86.5055 48.6463C87.0194 47.2695 88.2973 46.2907 88.9468 44.9654C90.6405 41.6205 88.6844 36.6136 85.6593 34.8169C82.1193 32.7012 77.0377 34.7157 73.7251 36.6653L73.7242 36.6881Z" fill="#4196FD"/>
<path d="M71.8804 32.8314C71.3802 32.7193 70.8332 32.6281 70.345 32.7914C69.7641 32.9739 69.3538 33.4841 68.9901 33.9733C67.3705 36.038 65.7006 38.2153 65.2527 40.8092C64.5704 44.6768 66.9763 48.7625 70.5593 50.3759C70.8973 50.5272 71.2812 50.6804 71.6495 50.6497C72.179 50.6027 72.605 50.2764 73.0731 50.0435C74.384 49.3868 75.9377 49.5422 77.3119 49.0256C80.7811 47.747 82.7213 42.8311 81.7528 39.5146C80.6239 35.6186 75.609 33.6716 71.9024 32.8552L71.8804 32.8314Z" fill="#4196FD"/>
<path d="M72.906 37.6169C72.7429 37.1061 72.534 36.5934 72.1354 36.2333C71.67 35.8247 71.0315 35.7298 70.4158 35.6358C67.7692 35.2753 65.0071 34.933 62.4933 35.8383C58.7455 37.1971 56.3978 41.4089 56.8129 45.3673C56.8432 45.758 56.9193 46.1507 57.1355 46.4804C57.4387 46.9282 57.9582 47.1328 58.4052 47.4261C59.6347 48.2326 60.3109 49.6811 61.4661 50.6221C64.3758 53.0099 69.6847 52.1962 72.1031 49.6601C74.9521 46.6833 74.0898 41.2859 72.906 37.6169Z" fill="#4196FD"/>
<path d="M69.1724 40.9003C68.8755 40.2923 68.5109 39.6587 67.9291 39.2911C67.2585 38.8512 66.4093 38.8622 65.6068 38.8522C62.1411 38.8936 58.5362 38.975 55.4884 40.6146C50.9391 43.0863 48.7334 48.908 50.0235 53.9334C50.1417 54.4194 50.3057 54.9073 50.6575 55.2884C51.1193 55.7885 51.8467 55.9558 52.477 56.2566C54.2112 57.0609 55.3583 58.7807 56.9936 59.7643C61.1602 62.2723 67.8266 60.2081 70.452 56.5118C73.5171 52.1461 71.4024 45.3684 69.1724 40.9003Z" fill="#4196FD"/>
<path d="M53.7601 52.8284C53.3314 53.2233 52.9008 53.664 52.7405 54.2303C52.5537 54.8872 52.7552 55.5829 52.9586 56.2328C53.8327 59.0413 54.793 61.9909 56.8663 64.0694C59.9995 67.1767 65.3057 67.5774 69.0891 65.3264C69.4647 65.1126 69.8192 64.8522 70.04 64.4946C70.3359 63.9796 70.3148 63.3601 70.3835 62.79C70.6087 61.1723 71.7639 59.8218 72.1715 58.2345C73.2037 54.2208 69.9147 49.274 66.2254 48.0229C61.9022 46.5626 56.8811 49.9316 53.7601 52.8284Z" fill="#4196FD"/>
<path d="M62.2901 55.2607C61.778 55.446 61.265 55.6541 60.927 56.0756C60.5404 56.5639 60.4461 57.2017 60.3985 57.8184C60.1311 60.4885 59.8591 63.273 60.8606 65.7659C62.3632 69.4938 66.6562 71.7091 70.6459 71.1851C71.038 71.1324 71.431 71.0569 71.7388 70.8174C72.1647 70.4912 72.369 69.9725 72.6401 69.5024C73.4023 68.2275 74.8534 67.5078 75.7493 66.33C78.0486 63.3308 77.0672 58.0431 74.4314 55.6894C71.3302 52.9271 65.9435 53.9668 62.2901 55.2607Z" fill="#4196FD"/>
<path d="M65.7728 64.5243C65.4999 65.0401 65.2489 65.5798 65.2718 66.1536C65.314 66.8199 65.7262 67.4097 66.1184 67.9298C67.838 70.246 69.6915 72.6592 72.3024 73.9119C76.2189 75.791 81.252 74.4161 84.023 71.0924C84.2887 70.7595 84.5544 70.4267 84.6404 69.9948C84.7549 69.4267 84.5249 68.8673 84.4104 68.2897C84.0833 66.7181 84.7217 65.0944 84.5788 63.5074C84.2368 59.4375 79.559 55.9461 75.7489 55.9962C71.2728 56.0649 67.7332 60.8236 65.7738 64.5014L65.7728 64.5243Z" fill="#4196FD"/>
<path d="M86.2165 56.9534C85.9526 56.6676 85.6659 56.3809 85.2802 56.2735C84.8496 56.1412 84.3851 56.2826 83.9436 56.4249C82.0848 57.0133 80.1326 57.6437 78.7704 59.0086C76.7147 61.0783 76.4593 64.5968 77.9655 67.0874C78.1167 67.3228 78.2899 67.5819 78.5143 67.7057C78.8506 67.9028 79.2646 67.8739 79.6522 67.9356C80.724 68.0941 81.6117 68.8409 82.6561 69.1128C85.3129 69.7945 88.5888 67.6144 89.3976 65.1727C90.3603 62.3249 88.1074 59.0016 86.1936 56.9525L86.2165 56.9534Z" fill="#4196FD"/>
<path d="M82.137 56.8757C81.8476 57.2305 81.5572 57.6082 81.4702 58.0629C81.3804 58.5863 81.6113 59.1228 81.8211 59.6126C82.7694 61.7137 83.8056 63.9102 85.6297 65.3369C88.3662 67.4655 92.5501 67.2474 95.2727 65.1362C95.5328 64.9406 95.7948 64.6993 95.9451 64.3846C96.1228 63.9565 96.0504 63.4724 96.0458 63.0139C96.0741 61.7318 96.8316 60.5713 96.9974 59.2948C97.4022 56.0575 94.3779 52.5193 91.3739 51.915C87.8698 51.1986 84.2815 54.3055 82.137 56.8757Z" fill="#4196FD"/>
<path d="M88.866 46.4292C88.4245 46.5715 87.982 46.7367 87.6696 47.0905C87.3096 47.4882 87.218 48.0574 87.1511 48.5817C86.8297 50.8829 86.5266 53.2994 87.3338 55.4865C88.534 58.7438 92.1913 60.7955 95.6459 60.4559C95.9913 60.4242 96.3376 60.3696 96.5978 60.1741C96.9752 59.9145 97.1767 59.4645 97.4222 59.0621C98.1303 57.9912 99.3927 57.4013 100.213 56.4037C102.287 53.8764 101.6 49.2424 99.3674 47.1344C96.7601 44.6444 92.0504 45.391 88.8669 46.4063L88.866 46.4292Z" fill="#4196FD"/>
<path d="M1.52106 68.5754C17.5276 103.777 62.2917 115.844 97.4623 108.215C120.778 103.148 153.923 83.3205 154.448 55.9052C154.598 48.5531 143.124 48.6118 142.989 55.9919C142.562 77.8651 112.086 93.3604 94.3921 97.1815C63.7892 103.781 25.2552 93.3568 11.4153 62.8578C8.3605 56.1411 -1.52333 61.9089 1.49304 68.5916L1.52106 68.5754Z" fill="#4196FD"/>
<path d="M43.9074 0.452779L43.8845 0.451841C39.2044 0.260093 35.2589 3.89439 35.0719 8.56927L34.6437 19.2759C34.4567 23.9507 38.0991 27.8959 42.7792 28.0877L42.8021 28.0886C47.4822 28.2803 51.4277 24.646 51.6147 19.9712L52.0429 9.26458C52.2299 4.58971 48.5875 0.644527 43.9074 0.452779Z" fill="#4196FD"/>
<path d="M112.023 3.24337L112 3.24242C107.32 3.05068 103.374 6.68497 103.187 11.3598L102.759 22.0664C102.572 26.7413 106.215 30.6865 110.895 30.8782L110.918 30.8792C115.598 31.0709 119.543 27.4366 119.73 22.7618L120.158 12.0552C120.345 7.38029 116.703 3.43511 112.023 3.24337Z" fill="#4196FD"/>
</g>
</svg>
