<svg width="80" height="80" viewBox="0 0 80 80" fill="none" xmlns="http://www.w3.org/2000/svg">
<rect width="80" height="80" rx="10.0629" fill="#F2F4F6"/>
<path d="M34.5312 50.1562H45.4688V57.9688C45.4688 58.3832 45.3041 58.7806 45.0111 59.0736C44.7181 59.3666 44.3207 59.5312 43.9062 59.5312H36.0938C35.6793 59.5312 35.2819 59.3666 34.9889 59.0736C34.6959 58.7806 34.5312 58.3832 34.5312 57.9688V50.1562Z" fill="#D1D6DB"/>
<path d="M37.6562 59.5312H42.3438V61.0938C42.3438 61.5082 42.1791 61.9056 41.8861 62.1986C41.5931 62.4916 41.1957 62.6562 40.7812 62.6562H39.2188C38.8043 62.6562 38.4069 62.4916 38.1139 62.1986C37.8209 61.9056 37.6562 61.5082 37.6562 61.0938V59.5312Z" fill="#6B7684"/>
<path d="M34.5312 52.5H45.4688V54.0625H34.5312V52.5Z" fill="#B0B8C1"/>
<path d="M34.5312 55.625H45.4688V57.1875H34.5312V55.625Z" fill="#B0B8C1"/>
<path d="M54.0625 31.4064C54.0652 33.2748 53.694 35.1248 52.9708 36.8476C52.2476 38.5703 51.1871 40.131 49.8516 41.4376C48.4182 42.8795 47.4332 44.7057 47.0156 46.6954L46.5234 48.9298C46.4454 49.2777 46.2512 49.5887 45.9729 49.8117C45.6946 50.0346 45.3488 50.1562 44.9922 50.1564H35.0078C34.6512 50.1562 34.3054 50.0346 34.0271 49.8117C33.7488 49.5887 33.5546 49.2777 33.4766 48.9298L32.9844 46.6876C32.5433 44.6732 31.5348 42.827 30.0781 41.3673C28.4382 39.7346 27.2266 37.7224 26.5507 35.5092C25.8748 33.2961 25.7555 30.9503 26.2034 28.68C26.6513 26.4096 27.6526 24.2849 29.1184 22.4943C30.5842 20.7036 32.4693 19.3024 34.6064 18.4148C36.7435 17.5273 39.0666 17.1808 41.3697 17.4062C43.6728 17.6316 45.8846 18.4219 47.8091 19.7069C49.7336 20.992 51.3112 22.7321 52.4021 24.7729C53.4929 26.8138 54.0632 29.0923 54.0625 31.4064Z" fill="#FDD837"/>
<path d="M46.25 32.9688V39.2188C46.2485 39.4259 46.1674 39.6245 46.0234 39.7734L43.125 42.6641V50.1562H41.5625V42.3438C41.564 42.1366 41.6451 41.938 41.7891 41.7891L44.6875 38.8984V35.3125H35.3125V38.8984L38.2109 41.7891C38.3549 41.938 38.436 42.1366 38.4375 42.3438V50.1562H36.875V42.6641L33.9766 39.7734C33.8326 39.6245 33.7515 39.4259 33.75 39.2188V32.9688C33.75 32.7615 33.8323 32.5628 33.9788 32.4163C34.1253 32.2698 34.324 32.1875 34.5312 32.1875C34.7385 32.1875 34.9372 32.2698 35.0837 32.4163C35.2302 32.5628 35.3125 32.7615 35.3125 32.9688V33.75H44.6875V32.9688C44.6875 32.7615 44.7698 32.5628 44.9163 32.4163C45.0628 32.2698 45.2615 32.1875 45.4688 32.1875C45.676 32.1875 45.8747 32.2698 46.0212 32.4163C46.1677 32.5628 46.25 32.7615 46.25 32.9688Z" fill="white"/>
<path d="M61.6717 18.3283C58.9295 15.5861 53.5388 16.1564 47.1873 19.3283C44.6742 20.5997 42.2703 22.076 39.9998 23.7423C37.7293 22.076 35.3253 20.5997 32.8123 19.3283C26.4607 16.1564 21.0701 15.5783 18.3279 18.3283C14.5935 22.0705 17.0076 30.7189 23.742 40.0001C17.0076 49.2814 14.5935 57.9298 18.3279 61.672C18.9922 62.2794 19.7712 62.7478 20.6191 63.0496C21.467 63.3515 22.3668 63.4808 23.2654 63.4298C26.5467 63.4298 30.7498 61.9845 35.3123 59.3205C35.0748 59.1837 34.8775 58.9868 34.7404 58.7495C34.6032 58.5122 34.531 58.243 34.531 57.9689V57.9376C27.8201 61.8595 21.9763 63.1017 19.4373 60.5626C16.3826 57.5158 18.7967 49.7033 24.742 41.3361C26.7512 43.9433 28.9277 46.4172 31.2576 48.7423C32.3435 49.8282 33.4347 50.8595 34.531 51.8361V50.1564H35.0076C34.651 50.1562 34.3051 50.0346 34.0268 49.8117C33.7485 49.5888 33.5544 49.2778 33.4763 48.9298L33.4138 48.6564C33.0623 48.3205 32.7107 47.9767 32.367 47.633C29.9758 45.2466 27.7543 42.6961 25.7185 40.0001C26.2732 39.2658 26.8592 38.5236 27.4685 37.7814C29.0091 35.8954 30.644 34.0884 32.367 32.3673C34.751 29.9737 37.3017 27.752 39.9998 25.7189C42.6979 27.752 45.2485 29.9737 47.6326 32.3673C49.3554 34.0858 50.9903 35.8902 52.531 37.7736C53.1404 38.5158 53.7185 39.258 54.281 40.0001C52.2453 42.6961 50.0237 45.2466 47.6326 47.633C47.2888 47.9767 46.9373 48.3205 46.5857 48.6564L46.5232 48.9298C46.4452 49.2778 46.251 49.5888 45.9727 49.8117C45.6944 50.0346 45.3485 50.1562 44.992 50.1564H45.4685V51.8361C46.5623 50.8595 47.6534 49.8283 48.742 48.7423C51.0719 46.4172 53.2483 43.9433 55.2576 41.3361C61.2029 49.7033 63.617 57.5158 60.5623 60.5626C58.0232 63.1017 52.1795 61.8595 45.4685 57.9376V57.9689C45.4686 58.243 45.3964 58.5122 45.2592 58.7495C45.122 58.9868 44.9248 59.1837 44.6873 59.3205C49.2498 61.9845 53.4529 63.4298 56.7342 63.4298C57.6328 63.4808 58.5325 63.3515 59.3805 63.0496C60.2284 62.7478 61.0074 62.2794 61.6717 61.672C65.406 57.9298 62.992 49.2814 56.2576 40.0001C62.992 30.7189 65.406 22.0705 61.6717 18.3283ZM31.2576 31.258C29.6404 32.8751 28.1404 34.5158 26.7654 36.1486C26.0545 36.9923 25.3826 37.8283 24.742 38.6642C18.7967 30.297 16.3826 22.4845 19.4373 19.4376C19.9545 18.972 20.5596 18.6146 21.2171 18.3865C21.8745 18.1584 22.571 18.0643 23.2654 18.1095C25.4685 18.1095 28.2498 18.8986 31.3201 20.3595C33.8897 21.6061 36.3468 23.0725 38.6638 24.7423C36.0567 26.7516 33.5827 28.9281 31.2576 31.258ZM53.2342 36.1486C51.8592 34.5158 50.3592 32.8751 48.742 31.258C46.4186 28.9262 43.9445 26.7496 41.3357 24.7423C43.6536 23.0696 46.1135 21.603 48.6873 20.3595C51.7576 18.8986 54.531 18.1095 56.7342 18.1095C57.4285 18.0649 58.1248 18.1595 58.7822 18.3875C59.4395 18.6156 60.0447 18.9726 60.5623 19.4376C63.617 22.4845 61.2029 30.297 55.2576 38.6642C54.617 37.8283 53.9451 36.9923 53.2342 36.1486Z" fill="#4196FD"/>
</svg>
