<svg width="80" height="80" viewBox="0 0 80 80" fill="none" xmlns="http://www.w3.org/2000/svg">
<g id="Frame 26085632">
<rect width="80" height="80" rx="10.0629" fill="#F2F4F6"/>
<g id="_2452578249264">
<g id="Group">
<path id="Vector" fill-rule="evenodd" clip-rule="evenodd" d="M39.7653 64.5296C33.1499 64.5296 26.9305 61.9529 22.2536 57.2761C17.5757 52.5982 15 46.3799 15 39.7645C15 33.1502 17.5757 26.9309 22.2536 22.253C26.9305 17.5762 33.1499 15.0005 39.7653 15.0005C46.3797 15.0005 52.5991 17.5762 57.276 22.253C61.9539 26.9309 64.5296 33.1491 64.5296 39.7645C64.5296 46.3799 61.9539 52.5982 57.276 57.2761C52.5991 61.9529 46.3797 64.5296 39.7653 64.5296Z" fill="#4196FD"/>
<g id="Group_2">
<path id="Vector_2" fill-rule="evenodd" clip-rule="evenodd" d="M25.9879 60.3524C24.6602 59.46 23.41 58.4324 22.2536 57.276C17.5757 52.5981 15 46.3798 15 39.7644C15 38.8317 15.0513 37.9066 15.1527 36.9935C15.2738 36.9029 15.3513 36.8484 15.372 36.8364C15.7178 36.6389 16.967 36.0411 18.5161 36.6204C20.3183 37.2946 21.8085 39.2855 22.9464 42.5376C22.9638 42.5856 22.9726 42.6368 22.9737 42.6881C23.0129 44.606 23.554 48.5584 24.9799 48.5584H24.9886C25.6388 48.5508 26.0915 48.4744 26.4919 48.4068C27.644 48.2126 28.2232 48.1875 29.8847 49.6111C31.1273 50.6748 31.1917 52.3548 30.0767 54.6054C29.2116 56.3498 27.8054 58.1127 26.8748 59.2789C26.6501 59.5604 26.4559 59.8037 26.301 60.0055C26.277 60.0382 26.1636 60.1637 25.9879 60.3524Z" fill="#86D37F"/>
<path id="Vector_3" fill-rule="evenodd" clip-rule="evenodd" d="M64.1984 43.836C63.3649 48.9034 60.9801 53.5725 57.2764 57.2762C56.2193 58.3333 55.0836 59.2824 53.8825 60.1192L53.7767 60.1181C53.745 60.1181 53.7123 60.1148 53.6785 60.1072C53.5006 60.0712 51.9253 59.7188 51.2708 58.6464C50.9904 58.1861 50.9228 57.6504 51.0766 57.0995C51.4508 55.7577 50.134 53.0369 49.5886 52.0911C49.522 51.982 49.282 51.5347 49.4336 50.9161C49.5984 50.243 50.1569 49.631 51.093 49.0976C51.333 48.6328 51.9919 47.4273 52.5494 47.0412C53.169 46.6124 54.6156 47.015 55.5396 47.3433C56.2596 46.9975 56.7047 46.6004 57.1727 46.1804C58.2528 45.2128 59.3688 44.2124 63.5776 43.8317C63.6289 43.8273 63.8591 43.8284 64.1984 43.836Z" fill="#86D37F"/>
<path id="Vector_4" fill-rule="evenodd" clip-rule="evenodd" d="M38.0849 15.0556C38.6412 15.0185 39.2009 15 39.7649 15C46.3793 15 52.5987 17.5757 57.2755 22.2525C61.9535 26.9304 64.5292 33.1486 64.5292 39.764C64.5292 39.836 64.5281 39.9091 64.5281 39.9811C64.3688 40.0466 64.2695 40.088 64.2466 40.0978C63.8517 40.2789 63.4699 40.3695 63.1142 40.3695C62.7978 40.3695 62.5011 40.2986 62.2317 40.1557C61.4931 39.7629 61 38.8531 60.7654 37.4502C60.5658 36.2501 60.124 35.4745 59.4519 35.1418C58.6076 34.7228 57.5646 35.0774 57.1435 35.2552C56.6995 36.9854 55.2322 39.8153 52.4241 39.5164C49.0859 39.1607 47.8062 34.9563 47.6055 34.2145C42.789 28.0911 39.5784 27.5947 39.094 27.5544L28.2675 31.4675C28.0712 31.5384 27.853 31.4763 27.7242 31.3137L25.1813 28.114C25.0667 27.97 25.0438 27.7737 25.1224 27.6078L27.7079 22.0845C27.7635 21.9656 27.8661 21.875 27.9904 21.8325L35.0281 19.4292L37.9245 15.2498C37.9387 15.2302 37.9943 15.1625 38.0849 15.0556Z" fill="#86D37F"/>
<path id="Vector_5" fill-rule="evenodd" clip-rule="evenodd" d="M41.2644 56.9399C40.4167 56.9399 39.6618 56.5232 39.0214 55.6995C37.1843 53.341 37.589 50.5973 37.6774 50.1227C37.5235 47.354 35.5337 45.6347 35.2446 45.4001C34.7384 45.1525 31.2692 43.3099 31.3314 39.448C31.3652 37.2978 32.8511 36.064 35.4082 36.064C36.2373 36.064 36.8744 36.1949 36.9017 36.2003C36.9988 36.2211 37.0883 36.2702 37.1559 36.3432C38.2076 37.4647 38.9854 38.0102 39.5341 38.0102C39.8112 38.0102 40.0545 37.876 40.3622 37.708C40.7538 37.4931 41.2404 37.2258 41.9102 37.2258C42.0989 37.2258 42.2964 37.2476 42.4971 37.2902C44.6834 37.7571 46.4005 41.6113 46.8958 42.8353C47.5951 42.8637 47.9485 43.1681 48.1231 43.4255C48.5769 44.0943 48.2365 45.0052 48.1962 45.1067C48.1787 45.1503 48.1547 45.1928 48.1253 45.2299L45.7972 48.1503V51.8966C45.7972 52.1158 45.6499 52.3068 45.4383 52.3635C44.2884 52.6711 43.9655 54.6523 43.9372 55.3908C43.9328 55.5043 43.8892 55.6134 43.8128 55.6974C43.767 55.7486 42.6706 56.9399 41.2644 56.9399Z" fill="#86D37F"/>
</g>
</g>
</g>
</g>
</svg>
