<svg width="173" height="172" viewBox="0 0 173 172" fill="none" xmlns="http://www.w3.org/2000/svg">
<rect x="0.548828" y="0.133057" width="171.867" height="171.867" rx="21.6185" fill="#F2F4F6"/>
<path d="M50.2715 40.1274H122.153" stroke="#86D37F" stroke-width="4.3237" stroke-linecap="round" stroke-linejoin="round"/>
<path d="M123.774 82.2834C123.774 59.5982 107.078 41.2083 86.4823 41.2083C65.8866 41.2083 49.1904 59.5982 49.1904 82.2834" stroke="#86D37F" stroke-width="4.3237"/>
<path d="M112.031 94.8796L89.8601 50.5371C89.7426 50.3019 89.5491 50.1133 89.311 50.0019C89.0729 49.8904 88.8041 49.8627 88.5482 49.9231C88.2923 49.9835 88.0644 50.1285 87.9012 50.3347C87.7381 50.5409 87.6494 50.7961 87.6494 51.059V88.8785C87.6495 89.1044 87.7151 89.3254 87.8383 89.5147C87.9614 89.704 88.1369 89.8535 88.3434 89.945C89.3274 90.3728 90.1339 91.1265 90.6273 92.0792C91.1207 93.032 91.2708 94.1256 91.0524 95.176C90.8339 96.2265 90.2603 97.1696 89.4279 97.8466C88.5956 98.5237 87.5555 98.8933 86.4825 98.8933C85.4096 98.8933 84.3694 98.5237 83.5371 97.8466C82.7048 97.1696 82.1311 96.2265 81.9127 95.176C81.6942 94.1256 81.8443 93.032 82.3377 92.0792C82.8311 91.1265 83.6377 90.3728 84.6217 89.945C84.8282 89.8535 85.0036 89.704 85.1268 89.5147C85.25 89.3254 85.3156 89.1044 85.3156 88.8785V51.059C85.3157 50.7961 85.227 50.5409 85.0638 50.3347C84.9007 50.1285 84.6727 49.9835 84.4169 49.9231C84.161 49.8627 83.8922 49.8904 83.6541 50.0019C83.416 50.1133 83.2225 50.3019 83.1049 50.5371L60.9337 94.8796C60.8527 95.0416 60.8105 95.2203 60.8105 95.4015C60.8105 95.5827 60.8527 95.7614 60.9337 95.9235L71.4358 116.928C71.5328 117.122 71.6818 117.285 71.8661 117.399C72.0505 117.512 72.2629 117.573 72.4796 117.573H100.485C100.702 117.573 100.915 117.512 101.099 117.399C101.283 117.285 101.432 117.122 101.529 116.928L112.031 95.9235C112.112 95.7614 112.155 95.5827 112.155 95.4015C112.155 95.2203 112.112 95.0416 112.031 94.8796Z" fill="#D1D6DB"/>
<path d="M102.819 122.24H70.1454C69.501 122.24 68.9785 122.763 68.9785 123.407V135.076C68.9785 135.721 69.501 136.243 70.1454 136.243H102.819C103.463 136.243 103.986 135.721 103.986 135.076V123.407C103.986 122.763 103.463 122.24 102.819 122.24Z" fill="#4E5968"/>
<path d="M106.32 115.239H66.6454C66.001 115.239 65.4785 115.762 65.4785 116.406V123.408C65.4785 124.052 66.001 124.575 66.6454 124.575H106.32C106.965 124.575 107.487 124.052 107.487 123.408V116.406C107.487 115.762 106.965 115.239 106.32 115.239Z" fill="white"/>
<path d="M89.9838 35.8894H82.9823C82.3379 35.8894 81.8154 36.4118 81.8154 37.0563V44.0578C81.8154 44.7022 82.3379 45.2247 82.9823 45.2247H89.9838C90.6282 45.2247 91.1507 44.7022 91.1507 44.0578V37.0563C91.1507 36.4118 90.6282 35.8894 89.9838 35.8894Z" fill="#4196FD"/>
<path d="M52.642 76.7312H45.6405C44.9961 76.7312 44.4736 77.2536 44.4736 77.8981V84.8996C44.4736 85.544 44.9961 86.0665 45.6405 86.0665H52.642C53.2865 86.0665 53.8089 85.544 53.8089 84.8996V77.8981C53.8089 77.2536 53.2865 76.7312 52.642 76.7312Z" fill="#4196FD"/>
<path d="M127.324 76.7312H120.322C119.678 76.7312 119.155 77.2536 119.155 77.8981V84.8996C119.155 85.544 119.678 86.0665 120.322 86.0665H127.324C127.968 86.0665 128.491 85.544 128.491 84.8996V77.8981C128.491 77.2536 127.968 76.7312 127.324 76.7312Z" fill="#4196FD"/>
<path d="M123.823 45.2247C126.401 45.2247 128.491 43.1349 128.491 40.557C128.491 37.9792 126.401 35.8894 123.823 35.8894C121.245 35.8894 119.155 37.9792 119.155 40.557C119.155 43.1349 121.245 45.2247 123.823 45.2247Z" fill="#4196FD"/>
<path d="M49.1413 45.2247C51.7191 45.2247 53.8089 43.1349 53.8089 40.557C53.8089 37.9792 51.7191 35.8894 49.1413 35.8894C46.5634 35.8894 44.4736 37.9792 44.4736 40.557C44.4736 43.1349 46.5634 45.2247 49.1413 45.2247Z" fill="#4196FD"/>
</svg>
