<svg width="608" height="417" viewBox="0 0 608 417" fill="none" xmlns="http://www.w3.org/2000/svg">
<path d="M30.7824 73L12.1665 16.8312H22.9991L39.609 67.6238H34.2328L51.4846 16.8312H61.1136L77.8839 67.6238H72.6683L89.6794 16.8312H99.6293L81.0134 73H69.9401L54.614 27.1823H57.5027L41.9359 73H30.7824ZM124.092 73.5617C119.331 73.5617 115.159 72.6255 111.575 70.7532C108.044 68.8275 105.289 66.2063 103.31 62.8896C101.384 59.573 100.421 55.8017 100.421 51.5756C100.421 47.2961 101.357 43.5248 103.229 40.2616C105.155 36.945 107.776 34.3505 111.093 32.4783C114.463 30.606 118.288 29.6698 122.568 29.6698C126.74 29.6698 130.458 30.5792 133.721 32.398C136.984 34.2168 139.552 36.7845 141.424 40.1012C143.297 43.4178 144.233 47.3229 144.233 51.8164C144.233 52.2443 144.206 52.7258 144.152 53.2607C144.152 53.7956 144.126 54.3038 144.072 54.7853H108.365V48.1253H138.776L134.844 50.2115C134.898 47.7508 134.39 45.5843 133.32 43.712C132.25 41.8397 130.779 40.3686 128.907 39.2987C127.088 38.2289 124.975 37.6939 122.568 37.6939C120.107 37.6939 117.94 38.2289 116.068 39.2987C114.249 40.3686 112.805 41.8665 111.735 43.7922C110.719 45.6645 110.21 47.8845 110.21 50.4523V52.0571C110.21 54.6248 110.799 56.8983 111.976 58.8776C113.153 60.8568 114.811 62.3814 116.951 63.4513C119.09 64.5212 121.551 65.0561 124.333 65.0561C126.74 65.0561 128.907 64.6817 130.832 63.9328C132.758 63.1838 134.47 62.007 135.968 60.4022L141.344 66.5807C139.418 68.8275 136.984 70.566 134.042 71.7964C131.153 72.9733 127.837 73.5617 124.092 73.5617ZM202.443 73V64.334L201.881 62.4884V47.3229C201.881 44.3807 200.998 42.1072 199.233 40.5024C197.468 38.844 194.793 38.0149 191.209 38.0149C188.802 38.0149 186.421 38.3893 184.067 39.1383C181.767 39.8872 179.815 40.9303 178.21 42.2677L174.278 34.9657C176.578 33.2004 179.306 31.8898 182.463 31.0339C185.672 30.1245 188.989 29.6698 192.412 29.6698C198.618 29.6698 203.405 31.1677 206.776 34.1633C210.199 37.1055 211.911 41.6792 211.911 47.8845V73H202.443ZM188.962 73.5617C185.752 73.5617 182.944 73.0267 180.537 71.9569C178.129 70.8335 176.257 69.3089 174.92 67.3831C173.636 65.4038 172.994 63.1838 172.994 60.7231C172.994 58.3159 173.556 56.1494 174.679 54.2236C175.856 52.2978 177.755 50.7732 180.376 49.6498C182.997 48.5265 186.475 47.9648 190.808 47.9648H203.245V54.6248H191.53C188.106 54.6248 185.806 55.1865 184.629 56.3099C183.452 57.3797 182.864 58.7171 182.864 60.3219C182.864 62.1407 183.586 63.585 185.03 64.6549C186.475 65.7248 188.481 66.2597 191.048 66.2597C193.509 66.2597 195.702 65.6981 197.628 64.5747C199.607 63.4513 201.025 61.793 201.881 59.5997L203.566 65.6178C202.603 68.132 200.864 70.0846 198.35 71.4754C195.89 72.8663 192.76 73.5617 188.962 73.5617ZM224.783 73V30.1513H234.332V41.9467L233.209 38.4963C234.493 35.6077 236.499 33.4144 239.227 31.9166C242.008 30.4187 245.459 29.6698 249.578 29.6698V39.2185C249.15 39.1115 248.749 39.058 248.374 39.058C248 39.0045 247.625 38.9778 247.251 38.9778C243.453 38.9778 240.43 40.1012 238.184 42.3479C235.937 44.5412 234.814 47.831 234.814 52.2176V73H224.783ZM277.835 73.5617C273.074 73.5617 268.902 72.6255 265.318 70.7532C261.787 68.8275 259.032 66.2063 257.053 62.8896C255.127 59.573 254.164 55.8017 254.164 51.5756C254.164 47.2961 255.1 43.5248 256.973 40.2616C258.898 36.945 261.52 34.3505 264.836 32.4783C268.206 30.606 272.031 29.6698 276.311 29.6698C280.483 29.6698 284.201 30.5792 287.464 32.398C290.727 34.2168 293.295 36.7845 295.167 40.1012C297.04 43.4178 297.976 47.3229 297.976 51.8164C297.976 52.2443 297.949 52.7258 297.896 53.2607C297.896 53.7956 297.869 54.3038 297.815 54.7853H262.108V48.1253H292.519L288.588 50.2115C288.641 47.7508 288.133 45.5843 287.063 43.712C285.993 41.8397 284.522 40.3686 282.65 39.2987C280.831 38.2289 278.718 37.6939 276.311 37.6939C273.85 37.6939 271.683 38.2289 269.811 39.2987C267.992 40.3686 266.548 41.8665 265.478 43.7922C264.462 45.6645 263.954 47.8845 263.954 50.4523V52.0571C263.954 54.6248 264.542 56.8983 265.719 58.8776C266.896 60.8568 268.554 62.3814 270.694 63.4513C272.834 64.5212 275.294 65.0561 278.076 65.0561C280.483 65.0561 282.65 64.6817 284.576 63.9328C286.501 63.1838 288.213 62.007 289.711 60.4022L295.087 66.5807C293.161 68.8275 290.727 70.566 287.785 71.7964C284.897 72.9733 281.58 73.5617 277.835 73.5617Z" fill="#191F28"/>
<rect x="10.933" y="103.862" width="465.795" height="104.795" stroke="#4196FD" stroke-width="1.86607"/>
<path d="M25.9098 185.259V125.72H35.94V185.259H25.9098ZM68.3624 185.82C63.9759 185.82 60.0708 184.884 56.6472 183.012C53.2236 181.086 50.5221 178.465 48.5428 175.148C46.5636 171.832 45.5739 168.06 45.5739 163.834C45.5739 159.555 46.5636 155.784 48.5428 152.52C50.5221 149.204 53.2236 146.609 56.6472 144.737C60.0708 142.865 63.9759 141.929 68.3624 141.929C72.8024 141.929 76.7342 142.865 80.1578 144.737C83.6349 146.609 86.3364 149.177 88.2622 152.44C90.2415 155.703 91.2311 159.501 91.2311 163.834C91.2311 168.06 90.2415 171.832 88.2622 175.148C86.3364 178.465 83.6349 181.086 80.1578 183.012C76.7342 184.884 72.8024 185.82 68.3624 185.82ZM68.3624 177.235C70.8231 177.235 73.0164 176.7 74.9422 175.63C76.8679 174.56 78.3658 173.009 79.4357 170.976C80.559 168.943 81.1207 166.563 81.1207 163.834C81.1207 161.053 80.559 158.672 79.4357 156.693C78.3658 154.66 76.8679 153.109 74.9422 152.039C73.0164 150.969 70.8499 150.434 68.4426 150.434C65.9819 150.434 63.7886 150.969 61.8629 152.039C59.9906 153.109 58.4927 154.66 57.3694 156.693C56.246 158.672 55.6843 161.053 55.6843 163.834C55.6843 166.563 56.246 168.943 57.3694 170.976C58.4927 173.009 59.9906 174.56 61.8629 175.63C63.7886 176.7 65.9552 177.235 68.3624 177.235ZM120.08 185.82C115.694 185.82 111.789 184.884 108.365 183.012C104.941 181.086 102.24 178.465 100.261 175.148C98.2814 171.832 97.2918 168.06 97.2918 163.834C97.2918 159.555 98.2814 155.784 100.261 152.52C102.24 149.204 104.941 146.609 108.365 144.737C111.789 142.865 115.694 141.929 120.08 141.929C124.52 141.929 128.452 142.865 131.876 144.737C135.353 146.609 138.054 149.177 139.98 152.44C141.959 155.703 142.949 159.501 142.949 163.834C142.949 168.06 141.959 171.832 139.98 175.148C138.054 178.465 135.353 181.086 131.876 183.012C128.452 184.884 124.52 185.82 120.08 185.82ZM120.08 177.235C122.541 177.235 124.734 176.7 126.66 175.63C128.586 174.56 130.084 173.009 131.154 170.976C132.277 168.943 132.839 166.563 132.839 163.834C132.839 161.053 132.277 158.672 131.154 156.693C130.084 154.66 128.586 153.109 126.66 152.039C124.734 150.969 122.568 150.434 120.161 150.434C117.7 150.434 115.507 150.969 113.581 152.039C111.708 153.109 110.211 154.66 109.087 156.693C107.964 158.672 107.402 161.053 107.402 163.834C107.402 166.563 107.964 168.943 109.087 170.976C110.211 173.009 111.708 174.56 113.581 175.63C115.507 176.7 117.673 177.235 120.08 177.235ZM160.725 175.71L160.966 163.112L183.353 142.41H195.389L176.372 161.507L171.076 165.921L160.725 175.71ZM152.54 185.259V125.72H162.57V185.259H152.54ZM184.877 185.259L169.23 165.921L175.569 157.897L197.074 185.259H184.877ZM203.553 185.259V142.41H213.583V185.259H203.553ZM208.608 135.349C206.736 135.349 205.184 134.76 203.954 133.584C202.777 132.407 202.189 130.989 202.189 129.331C202.189 127.619 202.777 126.201 203.954 125.078C205.184 123.901 206.736 123.313 208.608 123.313C210.48 123.313 212.005 123.874 213.182 124.998C214.412 126.068 215.027 127.432 215.027 129.09C215.027 130.855 214.439 132.353 213.262 133.584C212.085 134.76 210.534 135.349 208.608 135.349ZM251.061 141.929C254.484 141.929 257.533 142.597 260.208 143.935C262.936 145.272 265.076 147.332 266.627 150.113C268.179 152.841 268.954 156.372 268.954 160.705V185.259H258.924V161.989C258.924 158.191 258.015 155.356 256.196 153.483C254.431 151.611 251.943 150.675 248.734 150.675C246.38 150.675 244.294 151.156 242.475 152.119C240.656 153.082 239.238 154.526 238.222 156.452C237.259 158.325 236.778 160.705 236.778 163.594V185.259H226.748V142.41H236.296V153.965L234.611 150.434C236.109 147.706 238.276 145.62 241.111 144.175C243.999 142.678 247.316 141.929 251.061 141.929ZM301.175 201.387C297.216 201.387 293.338 200.852 289.54 199.782C285.795 198.766 282.72 197.268 280.312 195.289L284.806 187.746C286.678 189.298 289.032 190.528 291.867 191.437C294.756 192.4 297.671 192.882 300.613 192.882C305.321 192.882 308.771 191.785 310.964 189.592C313.158 187.452 314.254 184.216 314.254 179.883V172.26L315.057 162.551L314.736 152.841V142.41H324.284V178.759C324.284 186.516 322.305 192.213 318.347 195.851C314.388 199.542 308.664 201.387 301.175 201.387ZM299.891 183.333C295.826 183.333 292.134 182.477 288.818 180.765C285.555 179 282.96 176.566 281.034 173.463C279.162 170.361 278.226 166.723 278.226 162.551C278.226 158.432 279.162 154.821 281.034 151.718C282.96 148.615 285.555 146.208 288.818 144.496C292.134 142.785 295.826 141.929 299.891 141.929C303.529 141.929 306.792 142.651 309.681 144.095C312.569 145.539 314.869 147.786 316.581 150.835C318.347 153.885 319.229 157.79 319.229 162.551C319.229 167.312 318.347 171.243 316.581 174.346C314.869 177.395 312.569 179.669 309.681 181.166C306.792 182.611 303.529 183.333 299.891 183.333ZM301.416 174.827C303.93 174.827 306.177 174.319 308.156 173.303C310.135 172.233 311.66 170.789 312.73 168.97C313.853 167.098 314.415 164.958 314.415 162.551C314.415 160.143 313.853 158.03 312.73 156.212C311.66 154.339 310.135 152.922 308.156 151.959C306.177 150.942 303.93 150.434 301.416 150.434C298.901 150.434 296.628 150.942 294.595 151.959C292.616 152.922 291.065 154.339 289.941 156.212C288.871 158.03 288.336 160.143 288.336 162.551C288.336 164.958 288.871 167.098 289.941 168.97C291.065 170.789 292.616 172.233 294.595 173.303C296.628 174.319 298.901 174.827 301.416 174.827ZM361.011 185.259V140.003C361.011 135.509 362.322 131.925 364.943 129.251C367.617 126.522 371.416 125.158 376.337 125.158C378.102 125.158 379.761 125.345 381.312 125.72C382.917 126.094 384.254 126.683 385.324 127.485L382.596 135.028C381.847 134.439 380.991 134.011 380.028 133.744C379.065 133.423 378.076 133.263 377.059 133.263C374.973 133.263 373.395 133.851 372.325 135.028C371.255 136.151 370.72 137.863 370.72 140.163V144.978L371.041 149.471V185.259H361.011ZM353.95 150.755V142.731H382.516V150.755H353.95ZM407.898 185.82C403.512 185.82 399.607 184.884 396.183 183.012C392.759 181.086 390.058 178.465 388.079 175.148C386.099 171.832 385.11 168.06 385.11 163.834C385.11 159.555 386.099 155.784 388.079 152.52C390.058 149.204 392.759 146.609 396.183 144.737C399.607 142.865 403.512 141.929 407.898 141.929C412.338 141.929 416.27 142.865 419.694 144.737C423.171 146.609 425.872 149.177 427.798 152.44C429.777 155.703 430.767 159.501 430.767 163.834C430.767 168.06 429.777 171.832 427.798 175.148C425.872 178.465 423.171 181.086 419.694 183.012C416.27 184.884 412.338 185.82 407.898 185.82ZM407.898 177.235C410.359 177.235 412.552 176.7 414.478 175.63C416.404 174.56 417.902 173.009 418.971 170.976C420.095 168.943 420.656 166.563 420.656 163.834C420.656 161.053 420.095 158.672 418.971 156.693C417.902 154.66 416.404 153.109 414.478 152.039C412.552 150.969 410.386 150.434 407.978 150.434C405.518 150.434 403.324 150.969 401.399 152.039C399.526 153.109 398.028 154.66 396.905 156.693C395.782 158.672 395.22 161.053 395.22 163.834C395.22 166.563 395.782 168.943 396.905 170.976C398.028 173.009 399.526 174.56 401.399 175.63C403.324 176.7 405.491 177.235 407.898 177.235ZM440.358 185.259V142.41H449.907V154.205L448.783 150.755C450.067 147.866 452.073 145.673 454.802 144.175C457.583 142.678 461.034 141.929 465.153 141.929V151.477C464.725 151.37 464.323 151.317 463.949 151.317C463.575 151.263 463.2 151.237 462.826 151.237C459.028 151.237 456.005 152.36 453.758 154.607C451.512 156.8 450.388 160.09 450.388 164.476V185.259H440.358Z" fill="#4196FD"/>
<rect x="1.60296" y="94.5312" width="20.5268" height="20.5268" stroke="#4196FD" stroke-width="1.86607"/>
<rect x="1.60296" y="198.098" width="20.5268" height="20.5268" stroke="#4196FD" stroke-width="1.86607"/>
<rect x="465.991" y="198.098" width="20.5268" height="20.5268" stroke="#4196FD" stroke-width="1.86607"/>
<rect x="465.991" y="94.5314" width="20.5268" height="20.5268" stroke="#4196FD" stroke-width="1.86607"/>
<path d="M34.313 313.085C29.8195 313.085 26.4227 311.961 24.1224 309.714C21.8222 307.468 20.6721 304.231 20.6721 300.005V283.476C20.6721 282.138 20.3511 281.175 19.7092 280.587C19.0672 279.945 18.1846 279.624 17.0612 279.624H14.4133V271.439H17.0612C18.1846 271.439 19.0672 271.119 19.7092 270.477C20.3511 269.835 20.6721 268.872 20.6721 267.588V251.058C20.6721 246.779 21.8222 243.542 24.1224 241.349C26.4227 239.102 29.8195 237.979 34.313 237.979H38.3251V246.003H36.64C34.6608 246.003 33.1629 246.538 32.1465 247.608C31.1836 248.678 30.7022 250.176 30.7022 252.101V267.347C30.7022 269.487 30.4347 271.145 29.8998 272.322C29.3648 273.499 28.5089 274.382 27.3321 274.97C26.2087 275.505 24.7376 275.906 22.9188 276.174V274.89C24.7376 275.104 26.2087 275.505 27.3321 276.093C28.5089 276.682 29.3648 277.565 29.8998 278.741C30.4347 279.918 30.7022 281.577 30.7022 283.716V298.962C30.7022 300.888 31.1836 302.386 32.1465 303.456C33.1629 304.526 34.6608 305.06 36.64 305.06H38.3251V313.085H34.313ZM473.55 313.085H469.537V305.06H471.223C473.255 305.06 474.753 304.526 475.716 303.456C476.732 302.386 477.241 300.888 477.241 298.962V283.716C477.241 281.577 477.508 279.918 478.043 278.741C478.631 277.565 479.487 276.682 480.611 276.093C481.734 275.505 483.178 275.104 484.944 274.89V276.174C483.178 275.906 481.734 275.505 480.611 274.97C479.487 274.382 478.631 273.499 478.043 272.322C477.508 271.145 477.241 269.487 477.241 267.347V252.101C477.241 250.176 476.732 248.678 475.716 247.608C474.753 246.538 473.255 246.003 471.223 246.003H469.537V237.979H473.55C478.097 237.979 481.52 239.102 483.82 241.349C486.121 243.542 487.271 246.779 487.271 251.058V267.588C487.271 268.872 487.592 269.835 488.234 270.477C488.876 271.119 489.732 271.439 490.801 271.439H493.53V279.624H490.801C489.732 279.624 488.876 279.945 488.234 280.587C487.592 281.175 487.271 282.138 487.271 283.476V300.005C487.271 304.231 486.121 307.468 483.82 309.714C481.52 311.961 478.097 313.085 473.55 313.085Z" fill="#86D37F"/>
<path d="M81.6941 298.08C78.11 298.08 74.6597 297.625 71.3431 296.715C68.0799 295.753 65.4855 294.602 63.5597 293.265L67.4112 285.642C69.337 286.873 71.6373 287.889 74.312 288.691C76.9867 289.494 79.6614 289.895 82.3361 289.895C85.4922 289.895 87.7657 289.467 89.1566 288.611C90.6009 287.755 91.3231 286.605 91.3231 285.161C91.3231 283.984 90.8416 283.101 89.8787 282.513C88.9158 281.871 87.6587 281.389 86.1074 281.068C84.5561 280.747 82.8175 280.453 80.8917 280.186C79.0194 279.918 77.1204 279.571 75.1946 279.143C73.3223 278.661 71.6105 277.992 70.0592 277.137C68.5079 276.227 67.2508 275.024 66.2879 273.526C65.325 272.028 64.8435 270.049 64.8435 267.588C64.8435 264.86 65.6192 262.506 67.1705 260.527C68.7218 258.494 70.8884 256.943 73.67 255.873C76.5052 254.749 79.8486 254.188 83.7002 254.188C86.5889 254.188 89.5043 254.509 92.4465 255.151C95.3886 255.792 97.8226 256.702 99.7484 257.879L95.8968 265.502C93.864 264.271 91.8045 263.442 89.7183 263.014C87.6855 262.533 85.6527 262.292 83.6199 262.292C80.5708 262.292 78.2973 262.747 76.7994 263.656C75.3551 264.565 74.6329 265.716 74.6329 267.106C74.6329 268.39 75.1144 269.353 76.0773 269.995C77.0402 270.637 78.2973 271.145 79.8486 271.52C81.3999 271.894 83.1117 272.215 84.984 272.483C86.9098 272.697 88.8089 273.044 90.6812 273.526C92.5534 274.007 94.2653 274.676 95.8166 275.532C97.4214 276.334 98.7053 277.484 99.6682 278.982C100.631 280.48 101.112 282.432 101.112 284.84C101.112 287.514 100.31 289.841 98.7053 291.821C97.1539 293.8 94.9339 295.351 92.0452 296.475C89.1566 297.545 85.7062 298.08 81.6941 298.08ZM129.008 298.08C124.622 298.08 120.717 297.143 117.293 295.271C113.869 293.345 111.168 290.724 109.189 287.407C107.209 284.091 106.22 280.319 106.22 276.093C106.22 271.814 107.209 268.043 109.189 264.779C111.168 261.463 113.869 258.868 117.293 256.996C120.717 255.124 124.622 254.188 129.008 254.188C133.448 254.188 137.38 255.124 140.804 256.996C144.281 258.868 146.982 261.436 148.908 264.699C150.887 267.962 151.877 271.76 151.877 276.093C151.877 280.319 150.887 284.091 148.908 287.407C146.982 290.724 144.281 293.345 140.804 295.271C137.38 297.143 133.448 298.08 129.008 298.08ZM129.008 289.494C131.469 289.494 133.662 288.959 135.588 287.889C137.514 286.819 139.012 285.268 140.081 283.235C141.205 281.202 141.767 278.822 141.767 276.093C141.767 273.312 141.205 270.931 140.081 268.952C139.012 266.919 137.514 265.368 135.588 264.298C133.662 263.228 131.496 262.693 129.088 262.693C126.628 262.693 124.434 263.228 122.509 264.298C120.636 265.368 119.139 266.919 118.015 268.952C116.892 270.931 116.33 273.312 116.33 276.093C116.33 278.822 116.892 281.202 118.015 283.235C119.139 285.268 120.636 286.819 122.509 287.889C124.434 288.959 126.601 289.494 129.008 289.494ZM215.551 254.188C218.974 254.188 221.997 254.856 224.618 256.194C227.293 257.531 229.379 259.591 230.877 262.372C232.375 265.1 233.123 268.631 233.123 272.964V297.518H223.093V274.248C223.093 270.45 222.264 267.615 220.606 265.742C218.948 263.87 216.567 262.934 213.464 262.934C211.271 262.934 209.319 263.415 207.607 264.378C205.949 265.341 204.638 266.759 203.675 268.631C202.766 270.503 202.311 272.884 202.311 275.772V297.518H192.281V274.248C192.281 270.45 191.452 267.615 189.793 265.742C188.135 263.87 185.754 262.934 182.652 262.934C180.459 262.934 178.506 263.415 176.794 264.378C175.136 265.341 173.825 266.759 172.862 268.631C171.953 270.503 171.498 272.884 171.498 275.772V297.518H161.468V254.669H171.017V266.063L169.332 262.693C170.776 259.912 172.862 257.798 175.591 256.354C178.372 254.91 181.528 254.188 185.059 254.188C189.071 254.188 192.548 255.177 195.49 257.157C198.486 259.136 200.465 262.132 201.428 266.144L197.496 264.779C198.887 261.57 201.188 259.002 204.397 257.076C207.607 255.151 211.325 254.188 215.551 254.188ZM266.16 298.08C261.399 298.08 257.226 297.143 253.642 295.271C250.111 293.345 247.356 290.724 245.377 287.407C243.451 284.091 242.488 280.319 242.488 276.093C242.488 271.814 243.425 268.043 245.297 264.779C247.223 261.463 249.844 258.868 253.161 256.996C256.531 255.124 260.355 254.188 264.635 254.188C268.808 254.188 272.525 255.097 275.789 256.916C279.052 258.735 281.619 261.302 283.492 264.619C285.364 267.936 286.3 271.841 286.3 276.334C286.3 276.762 286.273 277.244 286.22 277.779C286.22 278.313 286.193 278.822 286.14 279.303H250.432V272.643H280.844L276.912 274.729C276.965 272.269 276.457 270.102 275.387 268.23C274.317 266.358 272.846 264.886 270.974 263.817C269.155 262.747 267.042 262.212 264.635 262.212C262.174 262.212 260.008 262.747 258.135 263.817C256.317 264.886 254.872 266.384 253.802 268.31C252.786 270.182 252.278 272.402 252.278 274.97V276.575C252.278 279.143 252.866 281.416 254.043 283.395C255.22 285.375 256.878 286.899 259.018 287.969C261.158 289.039 263.619 289.574 266.4 289.574C268.808 289.574 270.974 289.199 272.9 288.451C274.826 287.702 276.537 286.525 278.035 284.92L283.411 291.099C281.486 293.345 279.052 295.084 276.109 296.314C273.221 297.491 269.904 298.08 266.16 298.08ZM315.193 298.08C310.806 298.08 306.901 297.143 303.477 295.271C300.054 293.345 297.352 290.724 295.373 287.407C293.394 284.091 292.404 280.319 292.404 276.093C292.404 271.814 293.394 268.043 295.373 264.779C297.352 261.463 300.054 258.868 303.477 256.996C306.901 255.124 310.806 254.188 315.193 254.188C319.633 254.188 323.564 255.124 326.988 256.996C330.465 258.868 333.167 261.436 335.092 264.699C337.072 267.962 338.061 271.76 338.061 276.093C338.061 280.319 337.072 284.091 335.092 287.407C333.167 290.724 330.465 293.345 326.988 295.271C323.564 297.143 319.633 298.08 315.193 298.08ZM315.193 289.494C317.653 289.494 319.847 288.959 321.772 287.889C323.698 286.819 325.196 285.268 326.266 283.235C327.389 281.202 327.951 278.822 327.951 276.093C327.951 273.312 327.389 270.931 326.266 268.952C325.196 266.919 323.698 265.368 321.772 264.298C319.847 263.228 317.68 262.693 315.273 262.693C312.812 262.693 310.619 263.228 308.693 264.298C306.821 265.368 305.323 266.919 304.2 268.952C303.076 270.931 302.514 273.312 302.514 276.093C302.514 278.822 303.076 281.202 304.2 283.235C305.323 285.268 306.821 286.819 308.693 287.889C310.619 288.959 312.785 289.494 315.193 289.494ZM371.966 254.188C375.389 254.188 378.438 254.856 381.113 256.194C383.841 257.531 385.981 259.591 387.532 262.372C389.084 265.1 389.859 268.631 389.859 272.964V297.518H379.829V274.248C379.829 270.45 378.92 267.615 377.101 265.742C375.336 263.87 372.848 262.934 369.639 262.934C367.285 262.934 365.199 263.415 363.38 264.378C361.561 265.341 360.143 266.785 359.127 268.711C358.164 270.584 357.683 272.964 357.683 275.853V297.518H347.653V254.669H357.201V266.224L355.516 262.693C357.014 259.965 359.181 257.879 362.016 256.434C364.904 254.937 368.221 254.188 371.966 254.188ZM422.802 298.08C418.041 298.08 413.869 297.143 410.284 295.271C406.754 293.345 403.999 290.724 402.02 287.407C400.094 284.091 399.131 280.319 399.131 276.093C399.131 271.814 400.067 268.043 401.939 264.779C403.865 261.463 406.486 258.868 409.803 256.996C413.173 255.124 416.998 254.188 421.278 254.188C425.45 254.188 429.168 255.097 432.431 256.916C435.694 258.735 438.262 261.302 440.134 264.619C442.006 267.936 442.943 271.841 442.943 276.334C442.943 276.762 442.916 277.244 442.862 277.779C442.862 278.313 442.836 278.822 442.782 279.303H407.075V272.643H437.486L433.554 274.729C433.608 272.269 433.1 270.102 432.03 268.23C430.96 266.358 429.489 264.886 427.617 263.817C425.798 262.747 423.685 262.212 421.278 262.212C418.817 262.212 416.65 262.747 414.778 263.817C412.959 264.886 411.515 266.384 410.445 268.31C409.429 270.182 408.92 272.402 408.92 274.97V276.575C408.92 279.143 409.509 281.416 410.686 283.395C411.863 285.375 413.521 286.899 415.661 287.969C417.8 289.039 420.261 289.574 423.043 289.574C425.45 289.574 427.617 289.199 429.542 288.451C431.468 287.702 433.18 286.525 434.678 284.92L440.054 291.099C438.128 293.345 435.694 295.084 432.752 296.314C429.863 297.491 426.547 298.08 422.802 298.08Z" fill="#191F28"/>
<g filter="url(#filter0_d_2950_1162)">
<path d="M333.251 34.9945C332.377 32.5985 334.701 30.2737 337.097 31.148L373.528 44.4404C376.191 45.4121 376.145 49.1944 373.459 50.1011L358.976 54.9904C358.089 55.2899 357.393 55.9863 357.093 56.8733L352.204 71.3566C351.297 74.0425 347.515 74.0884 346.543 71.4253L333.251 34.9945Z" fill="#86D37F"/>
<path d="M337.783 29.2691C333.79 27.8121 329.915 31.6867 331.372 35.6801L344.664 72.1108C346.284 76.5493 352.588 76.4728 354.099 71.9963L358.988 57.513C359.088 57.2173 359.32 56.9852 359.616 56.8854L374.099 51.996C378.576 50.4848 378.652 44.181 374.214 42.5616L337.783 29.2691Z" stroke="white" stroke-width="4"/>
</g>
<path d="M32.7082 401.008C28.0007 401.008 24.3632 399.804 21.7954 397.397C19.2277 394.936 17.9439 391.326 17.9439 386.565V348.129H27.974V386.324C27.974 388.357 28.4822 389.935 29.4986 391.058C30.5685 392.181 32.0395 392.743 33.9118 392.743C36.1586 392.743 38.0309 392.155 39.5287 390.978L42.3372 398.119C41.1603 399.082 39.7159 399.804 38.0041 400.286C36.2923 400.767 34.527 401.008 32.7082 401.008ZM10.8827 365.943V357.919H39.4485V365.943H10.8827ZM68.4356 401.008C64.049 401.008 60.144 400.072 56.7204 398.2C53.2967 396.274 50.5953 393.653 48.616 390.336C46.6367 387.019 45.6471 383.248 45.6471 379.022C45.6471 374.742 46.6367 370.971 48.616 367.708C50.5953 364.391 53.2967 361.797 56.7204 359.925C60.144 358.052 64.049 357.116 68.4356 357.116C72.8756 357.116 76.8074 358.052 80.231 359.925C83.7081 361.797 86.4096 364.365 88.3354 367.628C90.3146 370.891 91.3043 374.689 91.3043 379.022C91.3043 383.248 90.3146 387.019 88.3354 390.336C86.4096 393.653 83.7081 396.274 80.231 398.2C76.8074 400.072 72.8756 401.008 68.4356 401.008ZM68.4356 392.422C70.8963 392.422 73.0895 391.887 75.0153 390.817C76.9411 389.747 78.4389 388.196 79.5088 386.163C80.6322 384.131 81.1939 381.75 81.1939 379.022C81.1939 376.24 80.6322 373.86 79.5088 371.88C78.4389 369.848 76.9411 368.296 75.0153 367.226C73.0895 366.157 70.923 365.622 68.5158 365.622C66.0551 365.622 63.8618 366.157 61.936 367.226C60.0637 368.296 58.5659 369.848 57.4425 371.88C56.3192 373.86 55.7575 376.24 55.7575 379.022C55.7575 381.75 56.3192 384.131 57.4425 386.163C58.5659 388.196 60.0637 389.747 61.936 390.817C63.8618 391.887 66.0283 392.422 68.4356 392.422ZM118.658 416.575C116.786 416.575 115.021 416.361 113.362 415.933C111.651 415.558 110.206 414.943 109.029 414.087L111.918 406.625C113.469 407.748 115.422 408.31 117.776 408.31C119.594 408.31 121.012 407.721 122.028 406.545C123.045 405.421 123.553 403.736 123.553 401.489V357.598H133.583V401.249C133.583 405.956 132.273 409.674 129.651 412.402C127.084 415.184 123.419 416.575 118.658 416.575ZM128.528 350.536C126.656 350.536 125.104 349.948 123.874 348.771C122.697 347.594 122.109 346.177 122.109 344.518C122.109 342.806 122.697 341.389 123.874 340.265C125.104 339.089 126.656 338.5 128.528 338.5C130.4 338.5 131.925 339.062 133.102 340.185C134.332 341.255 134.947 342.619 134.947 344.278C134.947 346.043 134.359 347.541 133.182 348.771C132.005 349.948 130.454 350.536 128.528 350.536ZM165.994 401.008C161.608 401.008 157.703 400.072 154.279 398.2C150.855 396.274 148.154 393.653 146.175 390.336C144.195 387.019 143.206 383.248 143.206 379.022C143.206 374.742 144.195 370.971 146.175 367.708C148.154 364.391 150.855 361.797 154.279 359.925C157.703 358.052 161.608 357.116 165.994 357.116C170.434 357.116 174.366 358.052 177.79 359.925C181.267 361.797 183.968 364.365 185.894 367.628C187.873 370.891 188.863 374.689 188.863 379.022C188.863 383.248 187.873 387.019 185.894 390.336C183.968 393.653 181.267 396.274 177.79 398.2C174.366 400.072 170.434 401.008 165.994 401.008ZM165.994 392.422C168.455 392.422 170.648 391.887 172.574 390.817C174.5 389.747 175.998 388.196 177.068 386.163C178.191 384.131 178.753 381.75 178.753 379.022C178.753 376.24 178.191 373.86 177.068 371.88C175.998 369.848 174.5 368.296 172.574 367.226C170.648 366.157 168.482 365.622 166.075 365.622C163.614 365.622 161.421 366.157 159.495 367.226C157.622 368.296 156.125 369.848 155.001 371.88C153.878 373.86 153.316 376.24 153.316 379.022C153.316 381.75 153.878 384.131 155.001 386.163C156.125 388.196 157.622 389.747 159.495 390.817C161.421 391.887 163.587 392.422 165.994 392.422ZM198.454 400.446V357.598H208.484V400.446H198.454ZM203.509 350.536C201.637 350.536 200.086 349.948 198.856 348.771C197.679 347.594 197.09 346.177 197.09 344.518C197.09 342.806 197.679 341.389 198.856 340.265C200.086 339.089 201.637 338.5 203.509 338.5C205.382 338.5 206.906 339.062 208.083 340.185C209.314 341.255 209.929 342.619 209.929 344.278C209.929 346.043 209.34 347.541 208.163 348.771C206.987 349.948 205.435 350.536 203.509 350.536ZM245.962 357.116C249.386 357.116 252.435 357.785 255.11 359.122C257.838 360.459 259.977 362.519 261.529 365.301C263.08 368.029 263.856 371.56 263.856 375.893V400.446H253.826V377.176C253.826 373.378 252.916 370.543 251.097 368.671C249.332 366.799 246.845 365.862 243.635 365.862C241.281 365.862 239.195 366.344 237.376 367.307C235.557 368.27 234.14 369.714 233.123 371.64C232.161 373.512 231.679 375.893 231.679 378.781V400.446H221.649V357.598H231.198V369.152L229.513 365.622C231.01 362.893 233.177 360.807 236.012 359.363C238.901 357.865 242.217 357.116 245.962 357.116Z" fill="#191F28"/>
<rect x="294.259" y="329.286" width="313.098" height="84.3214" rx="42.1607" fill="#4196FD"/>
<path d="M361.438 388.241L350.241 377.044M327.849 367.714C327.849 369.43 328.187 371.128 328.843 372.713C329.499 374.298 330.462 375.738 331.675 376.951C332.888 378.164 334.328 379.126 335.912 379.782C337.497 380.439 339.196 380.777 340.911 380.777C342.627 380.777 344.325 380.439 345.91 379.782C347.495 379.126 348.935 378.164 350.148 376.951C351.361 375.738 352.323 374.298 352.979 372.713C353.636 371.128 353.974 369.43 353.974 367.714C353.974 365.999 353.636 364.3 352.979 362.715C352.323 361.13 351.361 359.69 350.148 358.478C348.935 357.265 347.495 356.302 345.91 355.646C344.325 354.989 342.627 354.652 340.911 354.652C339.196 354.652 337.497 354.989 335.912 355.646C334.328 356.302 332.888 357.265 331.675 358.478C330.462 359.69 329.499 361.13 328.843 362.715C328.187 364.3 327.849 365.999 327.849 367.714Z" stroke="white" stroke-width="3.73214" stroke-linecap="round" stroke-linejoin="round"/>
<path d="M389.285 386.946L376.152 356.903H382.203L393.92 384.071H390.444L402.29 356.903H407.869L394.779 386.946H389.285ZM405.827 386.946L419.346 356.903H424.84L438.403 386.946H432.565L420.934 359.864H423.166L411.578 386.946H405.827ZM412.05 379.993L413.552 375.616H429.776L431.278 379.993H412.05ZM455.71 387.375C453.421 387.375 451.289 387.004 449.315 386.26C447.369 385.487 445.667 384.414 444.208 383.041C442.777 381.639 441.661 379.993 440.86 378.105C440.059 376.216 439.658 374.156 439.658 371.924C439.658 369.693 440.059 367.632 440.86 365.744C441.661 363.856 442.791 362.225 444.251 360.851C445.71 359.449 447.412 358.376 449.358 357.632C451.304 356.86 453.435 356.473 455.753 356.473C458.214 356.473 460.46 356.903 462.492 357.761C464.523 358.591 466.24 359.835 467.642 361.495L464.037 364.886C462.949 363.712 461.733 362.84 460.388 362.267C459.044 361.667 457.584 361.366 456.011 361.366C454.437 361.366 452.992 361.624 451.676 362.139C450.388 362.654 449.258 363.383 448.285 364.328C447.341 365.272 446.597 366.388 446.053 367.675C445.538 368.963 445.281 370.379 445.281 371.924C445.281 373.47 445.538 374.886 446.053 376.173C446.597 377.461 447.341 378.577 448.285 379.521C449.258 380.465 450.388 381.195 451.676 381.71C452.992 382.225 454.437 382.483 456.011 382.483C457.584 382.483 459.044 382.197 460.388 381.624C461.733 381.023 462.949 380.122 464.037 378.92L467.642 382.354C466.24 383.985 464.523 385.23 462.492 386.088C460.46 386.946 458.2 387.375 455.71 387.375ZM486.394 387.375C484.048 387.375 481.888 387.004 479.913 386.26C477.968 385.487 476.265 384.414 474.806 383.041C473.346 381.639 472.216 379.993 471.415 378.105C470.614 376.216 470.213 374.156 470.213 371.924C470.213 369.693 470.614 367.632 471.415 365.744C472.216 363.856 473.346 362.225 474.806 360.851C476.294 359.449 478.025 358.376 479.999 357.632C481.973 356.86 484.134 356.473 486.48 356.473C489.026 356.473 491.316 356.888 493.347 357.718C495.407 358.548 497.138 359.764 498.54 361.366L495.021 364.8C493.848 363.627 492.574 362.768 491.201 362.225C489.856 361.652 488.368 361.366 486.737 361.366C485.164 361.366 483.704 361.624 482.36 362.139C481.015 362.654 479.856 363.383 478.883 364.328C477.91 365.272 477.152 366.388 476.608 367.675C476.093 368.963 475.836 370.379 475.836 371.924C475.836 373.441 476.093 374.843 476.608 376.131C477.152 377.418 477.91 378.548 478.883 379.521C479.856 380.465 481 381.195 482.317 381.71C483.633 382.225 485.092 382.483 486.695 382.483C488.182 382.483 489.613 382.254 490.986 381.796C492.389 381.31 493.719 380.508 494.978 379.392L498.154 383.556C496.58 384.815 494.749 385.773 492.66 386.431C490.6 387.061 488.511 387.375 486.394 387.375ZM492.875 382.826V371.581H498.154V383.556L492.875 382.826ZM519.591 387.375C517.244 387.375 515.084 386.989 513.11 386.217C511.136 385.444 509.419 384.371 507.96 382.998C506.5 381.596 505.37 379.965 504.569 378.105C503.768 376.216 503.367 374.156 503.367 371.924C503.367 369.693 503.768 367.647 504.569 365.787C505.37 363.898 506.5 362.267 507.96 360.894C509.419 359.492 511.136 358.405 513.11 357.632C515.084 356.86 517.23 356.473 519.548 356.473C521.894 356.473 524.04 356.86 525.986 357.632C527.96 358.405 529.677 359.492 531.136 360.894C532.595 362.267 533.726 363.898 534.527 365.787C535.328 367.647 535.729 369.693 535.729 371.924C535.729 374.156 535.328 376.216 534.527 378.105C533.726 379.993 532.595 381.624 531.136 382.998C529.677 384.371 527.96 385.444 525.986 386.217C524.04 386.989 521.908 387.375 519.591 387.375ZM519.548 382.483C521.064 382.483 522.466 382.225 523.754 381.71C525.042 381.195 526.157 380.465 527.102 379.521C528.046 378.548 528.776 377.432 529.291 376.173C529.834 374.886 530.106 373.47 530.106 371.924C530.106 370.379 529.834 368.977 529.291 367.718C528.776 366.431 528.046 365.315 527.102 364.371C526.157 363.398 525.042 362.654 523.754 362.139C522.466 361.624 521.064 361.366 519.548 361.366C518.031 361.366 516.629 361.624 515.342 362.139C514.083 362.654 512.967 363.398 511.994 364.371C511.05 365.315 510.306 366.431 509.762 367.718C509.247 368.977 508.99 370.379 508.99 371.924C508.99 373.441 509.247 374.843 509.762 376.131C510.306 377.418 511.05 378.548 511.994 379.521C512.938 380.465 514.054 381.195 515.342 381.71C516.629 382.225 518.031 382.483 519.548 382.483ZM541.643 386.946V356.903H546.235L559.369 378.834H556.965L569.884 356.903H574.476L574.519 386.946H569.24L569.197 365.186H570.313L559.326 383.513H556.836L545.677 365.186H546.965V386.946H541.643Z" fill="white"/>
<defs>
<filter id="filter0_d_2950_1162" x="297.055" y="10.9514" width="114.445" height="114.446" filterUnits="userSpaceOnUse" color-interpolation-filters="sRGB">
<feFlood flood-opacity="0" result="BackgroundImageFix"/>
<feColorMatrix in="SourceAlpha" type="matrix" values="0 0 0 0 0 0 0 0 0 0 0 0 0 0 0 0 0 0 127 0" result="hardAlpha"/>
<feOffset dy="16"/>
<feGaussianBlur stdDeviation="16"/>
<feComposite in2="hardAlpha" operator="out"/>
<feColorMatrix type="matrix" values="0 0 0 0 0.351845 0 0 0 0 0.477328 0 0 0 0 0.587126 0 0 0 0.16 0"/>
<feBlend mode="normal" in2="BackgroundImageFix" result="effect1_dropShadow_2950_1162"/>
<feBlend mode="normal" in="SourceGraphic" in2="effect1_dropShadow_2950_1162" result="shape"/>
</filter>
</defs>
</svg>
