<svg width="173" height="172" viewBox="0 0 173 172" fill="none" xmlns="http://www.w3.org/2000/svg">
<rect x="0.652344" y="0.133301" width="171.867" height="171.867" rx="21.6185" fill="#F2F4F6"/>
<path d="M117.071 47.5591H65.7276C62.183 47.5591 59.3096 50.4325 59.3096 53.9771V127.784C59.3096 131.329 62.183 134.202 65.7276 134.202H117.071C120.616 134.202 123.489 131.329 123.489 127.784V53.9771C123.489 50.4325 120.616 47.5591 117.071 47.5591Z" fill="#D1D6DB"/>
<path d="M107.445 37.9321H56.1006C54.3985 37.9321 52.766 38.6083 51.5624 39.8119C50.3588 41.0155 49.6826 42.648 49.6826 44.3501V118.157C49.6826 119.859 50.3588 121.492 51.5624 122.695C52.766 123.899 54.3985 124.575 56.1006 124.575H97.8176L113.863 110.135V44.3501C113.863 42.648 113.186 41.0155 111.983 39.8119C110.779 38.6083 109.147 37.9321 107.445 37.9321Z" fill="white"/>
<path d="M97.8174 124.575V116.553C97.8174 114.85 98.4936 113.218 99.6972 112.014C100.901 110.811 102.533 110.135 104.235 110.135H113.862L97.8174 124.575Z" fill="#E5E8EB"/>
<path d="M101.027 89.2759H62.5186C60.7463 89.2759 59.3096 90.7126 59.3096 92.4849C59.3096 94.2572 60.7463 95.6939 62.5186 95.6939H101.027C102.799 95.6939 104.236 94.2572 104.236 92.4849C104.236 90.7126 102.799 89.2759 101.027 89.2759Z" fill="#B0B8C1"/>
<path d="M84.9815 102.112H62.5186C60.7463 102.112 59.3096 103.549 59.3096 105.321C59.3096 107.093 60.7463 108.53 62.5186 108.53H84.9815C86.7538 108.53 88.1905 107.093 88.1905 105.321C88.1905 103.549 86.7538 102.112 84.9815 102.112Z" fill="#B0B8C1"/>
<path d="M63.3467 60.3048L68.9675 66.0698L77.3987 57.4224" stroke="#86D37F" stroke-width="5.40462" stroke-linecap="round" stroke-linejoin="round"/>
<g clip-path="url(#clip0_2950_1183)">
<path d="M129.646 96.3671L113.919 80.6405L118.991 75.5686L134.717 91.2952C136.12 92.6979 136.12 94.9645 134.717 96.3671C133.315 97.7698 131.048 97.7698 129.646 96.3671Z" fill="#4196FD"/>
<path d="M106.934 87.31C117.277 87.31 125.661 78.9256 125.661 68.583C125.661 58.2403 117.277 49.856 106.934 49.856C96.5914 49.856 88.207 58.2403 88.207 68.583C88.207 78.9256 96.5914 87.31 106.934 87.31Z" fill="#4196FD"/>
<path d="M106.935 81.0675C113.83 81.0675 119.42 75.4779 119.42 68.5828C119.42 61.6877 113.83 56.0981 106.935 56.0981C100.04 56.0981 94.4502 61.6877 94.4502 68.5828C94.4502 75.4779 100.04 81.0675 106.935 81.0675Z" fill="#F4FAFE"/>
</g>
<defs>
<clipPath id="clip0_2950_1183">
<rect width="47.5607" height="47.5607" fill="white" transform="translate(88.208 49.856)"/>
</clipPath>
</defs>
</svg>
