<svg width="172" height="172" viewBox="0 0 172 172" fill="none" xmlns="http://www.w3.org/2000/svg">
<rect width="171.867" height="171.867" rx="21.6185" fill="#F2F4F6"/>
<g clip-path="url(#clip0_2950_1180)">
<rect x="33.5078" y="53.1458" width="100.811" height="71.1609" fill="white"/>
<path d="M94.7362 95.7122C94.4768 95.4532 94.271 95.1456 94.1306 94.807C93.9902 94.4685 93.918 94.1055 93.918 93.739C93.918 93.3724 93.9902 93.0095 94.1306 92.6709C94.271 92.3323 94.4768 92.0248 94.7362 91.7658L100.737 85.7633L94.7362 79.7608C94.4768 79.5018 94.271 79.1943 94.1306 78.8557C93.9902 78.5171 93.918 78.1542 93.918 77.7876C93.918 77.4211 93.9902 77.0582 94.1306 76.7196C94.271 76.381 94.4768 76.0734 94.7362 75.8145C94.9953 75.555 95.303 75.3492 95.6417 75.2088C95.9804 75.0684 96.3435 74.9961 96.7102 74.9961C97.0768 74.9961 97.4399 75.0684 97.7786 75.2088C98.1173 75.3492 98.425 75.555 98.6842 75.8145L106.66 83.7901C106.919 84.0491 107.125 84.3567 107.265 84.6953C107.406 85.0338 107.478 85.3968 107.478 85.7633C107.478 86.1298 107.406 86.4928 107.265 86.8314C107.125 87.1699 106.919 87.4775 106.66 87.7365L98.6842 95.7122C98.425 95.9716 98.1173 96.1774 97.7786 96.3178C97.4399 96.4583 97.0768 96.5305 96.7102 96.5305C96.3435 96.5305 95.9804 96.4583 95.6417 96.3178C95.303 96.1774 94.9953 95.9716 94.7362 95.7122Z" fill="#4196FD"/>
<path d="M66.0214 95.7122L58.0458 87.7365C57.7864 87.4775 57.5806 87.1699 57.4402 86.8314C57.2998 86.4928 57.2275 86.1298 57.2275 85.7633C57.2275 85.3968 57.2998 85.0338 57.4402 84.6953C57.5806 84.3567 57.7864 84.0491 58.0458 83.7901L66.0214 75.8145C66.2806 75.555 66.5883 75.3492 66.927 75.2088C67.2657 75.0684 67.6288 74.9961 67.9954 74.9961C68.3621 74.9961 68.7252 75.0684 69.0639 75.2088C69.4026 75.3492 69.7103 75.555 69.9694 75.8145C70.2288 76.0734 70.4346 76.381 70.575 76.7196C70.7154 77.0582 70.7876 77.4211 70.7876 77.7876C70.7876 78.1542 70.7154 78.5171 70.575 78.8557C70.4346 79.1943 70.2288 79.5018 69.9694 79.7608L63.9685 85.7633L69.9694 91.7658C70.2288 92.0248 70.4346 92.3323 70.575 92.6709C70.7154 93.0095 70.7876 93.3724 70.7876 93.739C70.7876 94.1055 70.7154 94.4685 70.575 94.807C70.4346 95.1456 70.2288 95.4532 69.9694 95.7122C69.7103 95.9716 69.4026 96.1774 69.0639 96.3178C68.7252 96.4583 68.3621 96.5305 67.9954 96.5305C67.6288 96.5305 67.2657 96.4583 66.927 96.3178C66.5883 96.1774 66.2806 95.9716 66.0214 95.7122Z" fill="#4196FD"/>
<path d="M86.1018 68.7822L73.354 100.669C72.782 102.1 73.4778 103.723 74.9081 104.295C76.3384 104.867 77.9615 104.17 78.5335 102.74L91.2814 70.8529C91.8533 69.4222 91.1575 67.7989 89.7272 67.2271C88.297 66.6553 86.6738 67.3515 86.1018 68.7822Z" fill="#4196FD"/>
<rect x="33.5078" y="38.9138" width="100.811" height="14.2322" fill="#E5E8EB"/>
<circle cx="42.9951" cy="46.0297" r="2.37203" fill="#B0B8C1"/>
<circle cx="51.2978" cy="46.0297" r="2.37203" fill="#B0B8C1"/>
<circle cx="59.5996" cy="46.0297" r="2.37203" fill="#B0B8C1"/>
</g>
<path d="M134.128 97.053C134.195 97.3283 134.326 97.584 134.51 97.7992C134.694 98.0145 134.926 98.1832 135.188 98.2917C135.45 98.4003 135.733 98.4455 136.016 98.4238C136.298 98.4021 136.571 98.314 136.813 98.1668C142.877 94.475 149.815 101.411 146.124 107.475C145.976 107.716 145.888 107.99 145.866 108.272C145.845 108.554 145.89 108.838 145.998 109.099C146.106 109.361 146.275 109.593 146.49 109.777C146.704 109.962 146.96 110.093 147.235 110.16C154.134 111.833 154.134 121.645 147.235 123.321C146.96 123.387 146.704 123.518 146.489 123.702C146.274 123.886 146.105 124.119 145.996 124.38C145.888 124.642 145.842 124.926 145.864 125.208C145.886 125.49 145.974 125.764 146.121 126.006C149.813 132.069 142.877 139.008 136.813 135.316C136.572 135.169 136.298 135.081 136.016 135.059C135.734 135.037 135.45 135.082 135.189 135.19C134.927 135.299 134.695 135.467 134.511 135.682C134.326 135.897 134.195 136.152 134.128 136.427C132.455 143.326 122.643 143.326 120.967 136.427C120.9 136.152 120.77 135.896 120.586 135.681C120.401 135.466 120.169 135.297 119.908 135.189C119.646 135.08 119.362 135.035 119.08 135.057C118.798 135.078 118.524 135.166 118.282 135.314C112.219 139.005 105.28 132.069 108.972 126.006C109.119 125.764 109.207 125.491 109.229 125.209C109.251 124.926 109.206 124.643 109.098 124.381C108.989 124.12 108.821 123.887 108.606 123.703C108.391 123.519 108.136 123.388 107.861 123.321C100.962 121.648 100.962 111.835 107.861 110.16C108.136 110.093 108.392 109.962 108.607 109.778C108.822 109.594 108.991 109.362 109.099 109.1C109.208 108.838 109.253 108.555 109.231 108.272C109.21 107.99 109.122 107.717 108.974 107.475C105.283 101.411 112.219 94.4725 118.282 98.1643C118.524 98.3127 118.797 98.4017 119.08 98.4241C119.362 98.4466 119.646 98.4017 119.908 98.2933C120.17 98.1849 120.403 98.016 120.587 97.8004C120.771 97.5848 120.901 97.3287 120.967 97.053C122.64 90.1542 132.453 90.1542 134.128 97.053ZM127.548 109.282C125.57 109.282 123.673 110.068 122.274 111.466C120.875 112.865 120.09 114.762 120.09 116.74C120.09 118.718 120.875 120.615 122.274 122.014C123.673 123.413 125.57 124.198 127.548 124.198C129.526 124.198 131.423 123.413 132.822 122.014C134.22 120.615 135.006 118.718 135.006 116.74C135.006 114.762 134.22 112.865 132.822 111.466C131.423 110.068 129.526 109.282 127.548 109.282Z" fill="#4E5968"/>
<defs>
<clipPath id="clip0_2950_1180">
<rect x="33.5078" y="38.9136" width="100.811" height="85.3931" rx="7.11609" fill="white"/>
</clipPath>
</defs>
</svg>
