<svg width="1200" height="628" viewBox="0 0 1200 628" fill="none" xmlns="http://www.w3.org/2000/svg">
<g clip-path="url(#clip0_2951_25364)">
<rect width="1200" height="628" rx="20" fill="#4196FD"/>
<path opacity="0.2" d="M124.38 93.4322H159.294V281.429H124.38V93.4322ZM27.159 281.429H-7.75469V93.4322H27.159V281.429ZM127.066 200.859H24.2048V171.048H127.066V200.859ZM241.897 171.585H335.359V200.322H241.897V171.585ZM244.583 252.155H350.667V281.429H209.669V93.4322H346.907V122.706H244.583V252.155ZM389.588 281.429V93.4322H424.502V251.887H522.798V281.429H389.588ZM550.361 281.429V93.4322H585.275V251.887H683.571V281.429H550.361ZM795.815 284.115C781.133 284.115 767.615 281.698 755.261 276.864C742.907 272.029 732.165 265.315 723.033 256.721C713.902 247.948 706.83 237.742 701.816 226.104C696.803 214.287 694.297 201.396 694.297 187.431C694.297 173.465 696.803 160.664 701.816 149.026C706.83 137.209 713.902 127.003 723.033 118.409C732.165 109.636 742.907 102.832 755.261 97.9978C767.615 93.1636 781.044 90.7465 795.546 90.7465C810.228 90.7465 823.656 93.1636 835.831 97.9978C848.186 102.832 858.928 109.636 868.06 118.409C877.191 127.003 884.263 137.209 889.276 149.026C894.29 160.664 896.796 173.465 896.796 187.431C896.796 201.396 894.29 214.287 889.276 226.104C884.263 237.921 877.191 248.127 868.06 256.721C858.928 265.315 848.186 272.029 835.831 276.864C823.656 281.698 810.318 284.115 795.815 284.115ZM795.546 253.498C805.036 253.498 813.809 251.887 821.866 248.664C829.923 245.441 836.906 240.876 842.814 234.967C848.723 228.88 853.288 221.897 856.511 214.019C859.913 205.962 861.614 197.099 861.614 187.431C861.614 177.762 859.913 168.989 856.511 161.111C853.288 153.054 848.723 146.071 842.814 140.163C836.906 134.075 829.923 129.42 821.866 126.197C813.809 122.975 805.036 121.363 795.546 121.363C786.057 121.363 777.284 122.975 769.227 126.197C761.349 129.42 754.366 134.075 748.279 140.163C742.37 146.071 737.715 153.054 734.313 161.111C731.09 168.989 729.479 177.762 729.479 187.431C729.479 196.92 731.09 205.693 734.313 213.75C737.715 221.807 742.37 228.88 748.279 234.967C754.187 240.876 761.17 245.441 769.227 248.664C777.284 251.887 786.057 253.498 795.546 253.498Z" fill="white"/>
<path opacity="0.9" d="M47.8387 540.429L-34.3428 352.432H3.52513L76.844 522.435H55.09L129.215 352.432H164.128L82.2153 540.429H47.8387ZM151.608 540.429L236.207 352.432H270.584L355.451 540.429H318.926L246.144 370.963H260.11L187.596 540.429H151.608ZM190.551 496.921L199.951 469.527H301.469L310.869 496.921H190.551ZM463.753 543.115C449.429 543.115 436.09 540.787 423.736 536.132C411.561 531.298 400.908 524.584 391.777 515.99C382.824 507.216 375.842 496.921 370.828 485.104C365.815 473.287 363.309 460.396 363.309 446.431C363.309 432.465 365.815 419.574 370.828 407.757C375.842 395.94 382.914 385.735 392.045 377.14C401.177 368.367 411.83 361.653 424.005 356.998C436.18 352.164 449.519 349.747 464.021 349.747C479.419 349.747 493.474 352.432 506.186 357.804C518.898 362.996 529.641 370.784 538.414 381.169L515.855 402.386C509.051 395.045 501.442 389.584 493.027 386.003C484.611 382.243 475.48 380.363 465.633 380.363C455.785 380.363 446.743 381.975 438.507 385.197C430.45 388.42 423.378 392.986 417.291 398.894C411.382 404.803 406.727 411.786 403.325 419.843C400.102 427.9 398.491 436.762 398.491 446.431C398.491 456.099 400.102 464.962 403.325 473.019C406.727 481.076 411.382 488.059 417.291 493.967C423.378 499.876 430.45 504.441 438.507 507.664C446.743 510.887 455.785 512.498 465.633 512.498C475.48 512.498 484.611 510.708 493.027 507.127C501.442 503.367 509.051 497.727 515.855 490.207L538.414 511.693C529.641 521.898 518.898 529.687 506.186 535.058C493.474 540.429 479.33 543.115 463.753 543.115ZM655.755 543.115C641.073 543.115 627.556 540.787 615.201 536.132C603.026 531.298 592.373 524.584 583.242 515.99C574.111 507.216 567.038 496.921 562.025 485.104C557.012 473.287 554.505 460.396 554.505 446.431C554.505 432.465 557.012 419.574 562.025 407.757C567.038 395.94 574.111 385.735 583.242 377.14C592.552 368.367 603.385 361.653 615.739 356.998C628.093 352.164 641.611 349.747 656.292 349.747C672.227 349.747 686.551 352.343 699.263 357.535C712.154 362.727 722.986 370.337 731.76 380.363L709.737 401.849C702.396 394.508 694.429 389.136 685.835 385.735C677.42 382.154 668.109 380.363 657.904 380.363C648.056 380.363 638.925 381.975 630.51 385.197C622.095 388.42 614.843 392.986 608.756 398.894C602.668 404.803 597.924 411.786 594.522 419.843C591.299 427.9 589.688 436.762 589.688 446.431C589.688 455.92 591.299 464.693 594.522 472.75C597.924 480.807 602.668 487.88 608.756 493.967C614.843 499.876 622.005 504.441 630.241 507.664C638.477 510.887 647.609 512.498 657.635 512.498C666.945 512.498 675.898 511.066 684.492 508.201C693.265 505.157 701.591 500.144 709.469 493.161L729.343 519.212C719.495 527.09 708.036 533.088 694.966 537.206C682.075 541.145 669.004 543.115 655.755 543.115ZM696.309 514.647V444.282H729.343V519.212L696.309 514.647ZM863.481 543.115C848.8 543.115 835.282 540.698 822.928 535.864C810.574 531.029 799.831 524.315 790.7 515.721C781.568 506.948 774.496 496.742 769.483 485.104C764.47 473.287 761.963 460.396 761.963 446.431C761.963 432.465 764.47 419.664 769.483 408.026C774.496 396.209 781.568 386.003 790.7 377.409C799.831 368.636 810.574 361.832 822.928 356.998C835.282 352.164 848.71 349.747 863.213 349.747C877.894 349.747 891.323 352.164 903.498 356.998C915.852 361.832 926.595 368.636 935.726 377.409C944.857 386.003 951.929 396.209 956.943 408.026C961.956 419.664 964.463 432.465 964.463 446.431C964.463 460.396 961.956 473.287 956.943 485.104C951.929 496.921 944.857 507.127 935.726 515.721C926.595 524.315 915.852 531.029 903.498 535.864C891.323 540.698 877.984 543.115 863.481 543.115ZM863.213 512.498C872.702 512.498 881.475 510.887 889.532 507.664C897.589 504.441 904.572 499.876 910.481 493.967C916.389 487.88 920.955 480.897 924.178 473.019C927.579 464.962 929.28 456.099 929.28 446.431C929.28 436.762 927.579 427.989 924.178 420.111C920.955 412.054 916.389 405.071 910.481 399.163C904.572 393.075 897.589 388.42 889.532 385.197C881.475 381.975 872.702 380.363 863.213 380.363C853.723 380.363 844.95 381.975 836.893 385.197C829.015 388.42 822.032 393.075 815.945 399.163C810.036 405.071 805.381 412.054 801.979 420.111C798.757 427.989 797.145 436.762 797.145 446.431C797.145 455.92 798.757 464.693 801.979 472.75C805.381 480.807 810.036 487.88 815.945 493.967C821.853 499.876 828.836 504.441 836.893 507.664C844.95 510.887 853.723 512.498 863.213 512.498ZM1001.47 540.429V352.432H1030.21L1112.39 489.67H1097.35L1178.19 352.432H1206.92L1207.19 540.429H1174.16L1173.89 404.266H1180.87L1112.12 518.944H1096.54L1026.72 404.266H1034.77V540.429H1001.47Z" fill="white"/>
<g filter="url(#filter0_f_2951_25364)">
<path fill-rule="evenodd" clip-rule="evenodd" d="M706.6 186.289C703.563 161.741 681.222 144.304 656.701 147.344C639.951 149.42 626.517 160.513 620.652 175.16C616.985 175.02 613.712 175.047 610.945 175.138L570.102 180.195C566.746 180.612 563.453 181.201 560.232 181.954C550.919 169.566 535.43 162.367 518.957 164.409C494.435 167.448 477.02 189.813 480.057 214.362L487.565 275.043C487.728 276.362 487.947 277.66 488.219 278.936C488.338 280.831 488.515 282.734 488.751 284.643L505.268 418.073C506.23 425.827 506.514 433.609 506.135 441.333C486.823 464.91 472.041 490.302 458.859 512.945C442.855 540.437 429.21 563.876 412.682 575.089C397.684 569.343 383.215 574.577 378.481 582.074C373.323 590.243 378.887 596.308 383.728 599.685C379.806 604.336 376.555 609.234 374.259 614.503C357.406 653.174 375.637 684.188 416.339 683.286C424.074 683.115 431.808 681.524 439.484 678.765C438.045 709.533 439.764 730.321 439.764 730.321H762.924C768.931 678.477 769.372 636.199 768.595 606.67C768.158 590.063 765.437 553.349 760.038 480.947C787.278 467.77 827.707 444.963 858.353 413.723C911.421 359.633 925.359 290.266 916.456 246.609C911.421 221.943 900.874 214.339 896.546 211.705C881.831 202.722 861.091 204.614 840.828 218.725C836.111 221.996 831.925 226.151 828.144 230.908C823.887 226.805 816.856 222.526 809.86 229.192C803.447 235.293 801.151 250.517 809.701 264.115C807.475 276.828 799.914 310.088 771.313 339.494C760.853 350.243 749.865 358.131 739.685 363.92C735.122 334.207 726.716 288.058 714.426 254.061C714.506 251.729 714.404 249.36 714.108 246.971L706.6 186.289Z" fill="#003576" fill-opacity="0.38"/>
</g>
<g filter="url(#filter1_f_2951_25364)">
<path fill-rule="evenodd" clip-rule="evenodd" d="M706.6 186.289C703.563 161.741 681.222 144.304 656.701 147.344C639.951 149.42 626.517 160.513 620.652 175.16C616.985 175.02 613.712 175.047 610.945 175.138L570.102 180.195C566.746 180.612 563.453 181.201 560.232 181.954C550.919 169.566 535.43 162.367 518.957 164.409C494.435 167.448 477.02 189.813 480.057 214.362L487.565 275.043C487.728 276.362 487.947 277.66 488.219 278.936C488.338 280.831 488.515 282.734 488.751 284.643L505.268 418.073C506.23 425.827 506.514 433.609 506.135 441.333C486.823 464.91 472.041 490.302 458.859 512.945C442.855 540.437 429.21 563.876 412.682 575.089C397.684 569.343 383.215 574.577 378.481 582.074C373.323 590.243 378.887 596.308 383.728 599.685C379.806 604.336 376.555 609.234 374.259 614.503C357.406 653.174 375.637 684.188 416.339 683.286C424.074 683.115 431.808 681.524 439.484 678.765C438.045 709.533 439.764 730.321 439.764 730.321H762.924C768.931 678.477 769.372 636.199 768.595 606.67C768.158 590.063 765.437 553.349 760.038 480.947C787.278 467.77 827.707 444.963 858.353 413.723C911.421 359.633 925.359 290.266 916.456 246.609C911.421 221.943 900.874 214.339 896.546 211.705C881.831 202.722 861.091 204.614 840.828 218.725C836.111 221.996 831.925 226.151 828.144 230.908C823.887 226.805 816.856 222.526 809.86 229.192C803.447 235.293 801.151 250.517 809.701 264.115C807.475 276.828 799.914 310.088 771.313 339.494C760.853 350.243 749.865 358.131 739.685 363.92C735.122 334.207 726.716 288.058 714.426 254.061C714.506 251.729 714.404 249.36 714.108 246.971L706.6 186.289Z" fill="#004BA5" fill-opacity="0.38"/>
</g>
<g clip-path="url(#clip1_2951_25364)">
<path d="M482.14 430.2C433.1 484.413 411.848 552.613 379.661 574.451C364.663 568.704 350.194 573.938 345.46 581.435C340.302 589.604 345.866 595.669 350.707 599.046C346.785 603.697 343.534 608.595 341.238 613.864C324.385 652.535 342.616 683.549 383.318 682.647C471.665 680.685 559.994 493.643 559.994 493.643" fill="#E9ECF2"/>
<path d="M672.222 377.366C684.888 374.024 713.118 364.724 738.292 338.855C766.893 309.449 774.454 276.189 776.68 263.476C768.129 249.878 770.426 234.654 776.839 228.553C783.834 221.887 790.865 226.166 795.123 230.269C798.903 225.512 803.09 221.357 807.807 218.086C828.069 203.975 848.809 202.083 863.525 211.066C867.853 213.7 878.399 221.304 883.434 245.97C892.338 289.628 878.399 358.995 825.331 413.084C774.577 464.822 696.989 493.432 696.919 493.467" fill="white"/>
<path d="M535.834 202.715C532.797 178.167 510.456 160.73 485.935 163.77C461.414 166.81 443.998 189.174 447.036 213.723L454.544 274.404C457.581 298.953 479.922 316.389 504.443 313.349C528.964 310.31 546.38 287.945 543.343 263.396L535.834 202.715Z" fill="white"/>
<path d="M673.579 185.651C670.541 161.102 648.2 143.665 623.679 146.705C599.158 149.745 581.742 172.11 584.78 196.658L592.288 257.339C595.325 281.888 617.666 299.324 642.187 296.285C666.708 293.245 684.124 270.88 681.087 246.332L673.579 185.651Z" fill="white"/>
<path d="M523.304 208.404C521.157 191.056 505.371 178.734 488.044 180.882C470.717 183.03 458.41 198.834 460.557 216.182L465.864 259.069C468.01 276.417 483.797 288.739 501.123 286.591C518.45 284.444 530.757 268.639 528.61 251.291L523.304 208.404Z" fill="#E9ECF2"/>
<path d="M661.046 191.323C658.899 173.975 643.113 161.653 625.786 163.801C608.459 165.948 596.153 181.753 598.299 199.101L603.606 241.988C605.752 259.336 621.539 271.658 638.866 269.51C656.193 267.362 668.499 251.558 666.352 234.21L661.046 191.323Z" fill="#E9ECF2"/>
<path d="M726.829 478.03C723.932 439.359 710.735 392.839 710.735 392.839C710.735 392.839 698.966 289.726 675.209 238.158C664.393 214.681 652.014 197.167 646.944 193.578C621.099 175.295 592.48 174.022 577.924 174.499L537.081 179.556C485.797 185.922 449.387 232.673 455.729 284.004L472.247 417.434C476.027 447.935 469.332 478.879 453.044 504.943C452.938 505.102 452.832 505.278 452.744 505.438C395.736 596.536 406.742 729.682 406.742 729.682H729.903C735.909 677.838 736.351 635.56 735.574 606.031C735.132 589.251 732.358 551.942 726.847 478.03H726.829Z" fill="white"/>
<path d="M582.225 267.671C582.79 272.269 577.137 278.953 570.212 279.819C563.287 280.685 556.945 275.487 556.38 270.89C555.815 266.292 560.955 261.872 567.88 261.005C574.805 260.139 581.642 263.092 582.225 267.689V267.671Z" fill="black"/>
<path d="M574.276 265.6C574.064 265.954 573.87 266.325 573.87 266.732C573.87 267.209 574.135 267.634 574.4 268.023C575.513 269.72 576.696 271.488 578.48 272.479C581.148 273.946 584.734 273.204 586.819 270.976C587.013 270.763 587.207 270.516 587.296 270.233C587.402 269.844 587.26 269.437 587.207 269.031C587.048 267.917 587.543 266.803 587.525 265.671C587.455 262.807 584.328 260.154 581.643 260.03C578.498 259.889 575.813 263.089 574.311 265.6H574.276Z" fill="black"/>
<path d="M580.918 258.723C580.812 258.458 580.688 258.175 580.476 257.98C580.211 257.768 579.858 257.733 579.522 257.697C578.056 257.556 576.537 257.432 575.177 257.998C573.145 258.847 571.961 261.216 572.279 263.391C572.315 263.603 572.35 263.815 572.491 263.992C572.668 264.222 572.968 264.328 573.216 264.487C573.922 264.894 574.329 265.69 574.965 266.167C576.625 267.405 579.522 266.839 580.794 265.371C582.278 263.656 581.678 260.703 580.953 258.723H580.918Z" fill="black"/>
<path d="M564.683 258.103C564.365 258.368 564.047 258.651 563.923 259.04C563.764 259.482 563.888 259.977 563.994 260.437C564.506 262.435 565.054 264.504 566.432 266.042C568.499 268.323 572.173 268.783 574.894 267.351C575.159 267.209 575.424 267.05 575.583 266.802C575.812 266.466 575.812 266.024 575.883 265.618C576.095 264.504 576.943 263.602 577.278 262.506C578.144 259.747 576.024 256.175 573.516 255.185C570.565 254.018 566.944 256.193 564.665 258.085L564.683 258.103Z" fill="black"/>
<path d="M562.829 255.398C562.422 255.38 561.998 255.38 561.645 255.557C561.239 255.769 560.991 256.211 560.762 256.618C559.79 258.404 558.801 260.26 558.766 262.294C558.73 265.317 561.08 268.129 563.995 268.907C564.277 268.978 564.578 269.048 564.86 268.978C565.249 268.889 565.549 268.571 565.867 268.323C566.768 267.669 567.987 267.581 568.959 267.015C571.432 265.6 572.298 261.604 571.149 259.199C569.807 256.37 565.744 255.521 562.811 255.362L562.829 255.398Z" fill="black"/>
<path d="M564.189 258.917C563.994 258.545 563.782 258.174 563.447 257.962C563.04 257.714 562.528 257.714 562.069 257.732C560.02 257.785 557.864 257.873 556.08 258.881C553.395 260.402 552.141 263.885 552.953 266.856C553.024 267.139 553.13 267.44 553.342 267.652C553.624 267.952 554.048 268.041 554.419 268.2C555.462 268.66 556.151 269.685 557.14 270.251C559.649 271.701 563.588 270.41 565.107 268.182C566.892 265.548 565.567 261.551 564.206 258.899L564.189 258.917Z" fill="black"/>
<path d="M561.751 261.888C561.433 261.463 561.097 261.021 560.602 260.809C560.037 260.562 559.383 260.668 558.783 260.774C556.151 261.233 553.412 261.764 551.31 263.391C548.166 265.848 547.212 270.57 548.819 274.23C548.978 274.583 549.155 274.937 549.473 275.185C549.897 275.503 550.462 275.556 550.975 275.697C552.405 276.086 553.483 277.253 554.861 277.802C558.359 279.181 563.164 276.794 564.683 273.629C566.467 269.915 564.012 265.035 561.768 261.888H561.751Z" fill="black"/>
<path d="M551.557 272.921C551.275 273.275 551.01 273.664 550.957 274.124C550.886 274.654 551.133 275.149 551.381 275.627C552.405 277.66 553.483 279.782 555.338 281.108C558.111 283.088 562.192 282.717 564.789 280.525C565.036 280.312 565.284 280.065 565.407 279.764C565.566 279.34 565.46 278.862 565.46 278.42C565.425 277.165 566.132 275.98 566.238 274.725C566.52 271.524 563.393 268.182 560.443 267.687C556.963 267.121 553.571 270.322 551.557 272.921Z" fill="black"/>
<path d="M558.323 273.718C557.97 273.912 557.599 274.142 557.387 274.496C557.14 274.903 557.175 275.415 557.193 275.893C557.316 277.962 557.475 280.119 558.553 281.887C560.161 284.539 563.711 285.689 566.662 284.769C566.944 284.681 567.245 284.575 567.457 284.363C567.739 284.062 567.828 283.638 567.987 283.249C568.411 282.188 569.417 281.463 569.947 280.437C571.325 277.873 569.912 273.948 567.598 272.498C564.895 270.783 560.92 272.25 558.306 273.7L558.323 273.718Z" fill="black"/>
<path d="M562.138 280.331C561.997 280.755 561.873 281.197 561.962 281.639C562.068 282.152 562.456 282.541 562.827 282.895C564.435 284.451 566.131 286.06 568.268 286.678C571.466 287.616 575.14 285.936 576.836 283.054C576.995 282.771 577.154 282.47 577.154 282.152C577.154 281.71 576.925 281.303 576.766 280.879C576.324 279.712 576.589 278.403 576.289 277.201C575.511 274.16 571.519 272.055 568.622 272.586C565.23 273.187 563.128 277.272 562.103 280.331H562.138Z" fill="black"/>
<path d="M576.747 271.966C576.518 271.79 576.253 271.613 575.952 271.577C575.599 271.542 575.281 271.701 574.963 271.86C573.62 272.532 572.225 273.257 571.359 274.495C570.052 276.334 570.317 279.039 571.766 280.755C571.907 280.914 572.066 281.09 572.26 281.161C572.543 281.267 572.843 281.197 573.143 281.197C573.974 281.179 574.751 281.639 575.581 281.709C577.684 281.886 579.892 279.817 580.21 277.855C580.581 275.556 578.461 273.31 576.73 271.984L576.747 271.966Z" fill="black"/>
<path d="M573.623 272.427C573.447 272.728 573.27 273.064 573.27 273.417C573.27 273.824 573.517 274.195 573.747 274.549C574.736 276.034 575.796 277.573 577.351 278.439C579.7 279.712 582.845 279.023 584.664 277.06C584.841 276.865 585.018 276.653 585.071 276.406C585.159 276.052 585.035 275.698 584.982 275.345C584.841 274.372 585.265 273.382 585.23 272.392C585.141 269.881 582.386 267.565 580.036 267.476C577.28 267.37 574.948 270.199 573.623 272.41V272.427Z" fill="black"/>
<path d="M577.42 263.621C577.102 263.781 576.784 263.975 576.59 264.276C576.378 264.629 576.378 265.071 576.378 265.478C576.431 267.264 576.502 269.138 577.367 270.712C578.675 273.046 581.731 274.16 584.31 273.453C584.557 273.382 584.822 273.294 584.999 273.117C585.264 272.869 585.335 272.498 585.493 272.18C585.9 271.278 586.783 270.659 587.278 269.81C588.55 267.618 587.437 264.187 585.476 262.861C583.179 261.305 579.699 262.454 577.385 263.639L577.42 263.621Z" fill="black"/>
<path d="M522.017 300.593C543.534 321.122 578.812 317.639 601.937 301.849C616.882 291.646 635.714 267.828 628.223 248.077C626.227 242.808 617.677 245.089 619.708 250.429C625.75 266.325 609.303 286.112 597.485 294.21C577.805 307.737 546.943 312.157 528.27 294.334C524.154 290.408 517.9 296.65 522.017 300.593Z" fill="black"/>
<path d="M533.531 234.749L533.514 234.752C529.931 235.196 527.387 238.463 527.83 242.048L528.846 250.261C529.29 253.847 532.554 256.394 536.137 255.95L536.154 255.947C539.737 255.503 542.281 252.236 541.838 248.651L540.821 240.438C540.378 236.852 537.114 234.305 533.531 234.749Z" fill="black"/>
<path d="M585.677 228.295L585.66 228.297C582.077 228.742 579.533 232.008 579.976 235.594L580.992 243.807C581.436 247.393 584.7 249.94 588.283 249.496L588.3 249.493C591.883 249.049 594.427 245.782 593.984 242.196L592.967 233.984C592.524 230.398 589.26 227.851 585.677 228.295Z" fill="black"/>
</g>
<g opacity="0.2">
<path d="M1139.69 116.081C1144.55 128.593 1133.34 151.404 1114.42 158.747C1095.49 166.09 1073.93 155.993 1069.07 143.482C1064.21 130.97 1075.59 114.85 1094.51 107.508C1113.44 100.165 1134.81 103.522 1139.69 116.081Z" fill="white"/>
<path d="M1115.8 115.893C1115.47 117.013 1115.17 118.228 1115.43 119.335C1115.77 120.632 1116.83 121.651 1117.8 122.592C1122.15 126.563 1126.74 130.716 1132.44 132.187C1140.98 134.426 1150.58 129.767 1154.91 122.041C1155.33 121.274 1155.68 120.478 1155.74 119.632C1155.73 118.48 1155.05 117.427 1154.62 116.329C1153.38 113.291 1154.01 109.805 1153.13 106.685C1150.87 98.7174 1140.22 93.4514 1132.57 95.046C1123.63 96.8665 1118.33 107.771 1115.8 115.893Z" fill="white"/>
<path d="M1129.68 91.8801C1129.19 91.1904 1128.64 90.4716 1127.89 90.103C1127.01 89.6761 1125.97 89.8569 1124.97 89.9713C1120.76 90.6175 1116.37 91.3857 1112.94 93.9234C1107.81 97.73 1106.15 105.242 1108.59 111.108C1108.82 111.681 1109.1 112.283 1109.58 112.649C1110.22 113.169 1111.14 113.253 1111.94 113.489C1114.19 114.157 1115.92 116.067 1118.1 116.982C1123.62 119.288 1131.4 115.611 1133.98 110.601C1136.98 104.709 1133.16 96.8513 1129.71 91.8138L1129.68 91.8801Z" fill="white"/>
<path d="M1083.49 101.672C1082.82 102.646 1082.12 103.686 1082.01 104.827C1081.88 106.196 1082.56 107.526 1083.24 108.693C1086.09 113.906 1089.1 119.386 1094.07 122.677C1101.51 127.647 1112.23 126.291 1118.85 120.318C1119.5 119.734 1120.14 119.103 1120.42 118.278C1120.81 117.139 1120.51 115.937 1120.43 114.757C1120.26 111.472 1122.01 108.319 1122.16 105.018C1122.66 96.639 1114.17 88.1193 1106.34 87.1428C1097.18 85.9731 1088.53 94.6576 1083.47 101.624L1083.49 101.672Z" fill="white"/>
<path d="M1076.25 95.4113C1075.12 95.6293 1073.92 95.9322 1073.06 96.7046C1072.03 97.5991 1071.64 99.0134 1071.33 100.343C1069.85 106.029 1068.36 111.992 1069.75 117.715C1071.81 126.26 1080.4 132.487 1089.2 132.588C1090.03 132.596 1090.96 132.566 1091.69 132.173C1092.74 131.602 1093.32 130.552 1094.07 129.654C1096.18 127.133 1099.51 126.06 1101.88 123.769C1107.87 118.039 1107.46 106.216 1102.51 100.279C1096.71 93.2978 1084.67 93.7953 1076.32 95.4405L1076.25 95.4113Z" fill="white"/>
<path d="M1082.63 104.31C1081.84 103.408 1080.95 102.544 1079.81 102.162C1078.49 101.741 1077.09 102.118 1075.75 102.477C1069.98 104.108 1064 105.879 1059.64 109.988C1053.15 116.133 1052.09 126.876 1056.48 134.625C1056.89 135.4 1057.4 136.137 1058.13 136.62C1059.16 137.267 1060.41 137.221 1061.59 137.423C1064.84 137.976 1067.52 140.342 1070.73 141.238C1078.85 143.53 1089.03 137.106 1091.74 129.737C1094.94 121.078 1088.34 110.777 1082.63 104.31Z" fill="white"/>
<path d="M1077.89 114.391C1076.74 113.409 1075.42 112.436 1073.9 112.203C1072.13 111.901 1070.39 112.684 1068.73 113.383C1061.65 116.572 1054.31 119.968 1049.51 126.061C1042.37 135.207 1043.03 149.126 1050.17 158.28C1050.85 159.172 1051.62 160.026 1052.69 160.492C1054.08 161.105 1055.73 160.796 1057.29 160.849C1061.57 160.946 1065.47 163.447 1069.71 164C1080.51 165.413 1092.37 155.207 1094.46 145.272C1096.86 133.57 1086.47 121.56 1077.89 114.391Z" fill="white"/>
<path d="M1056.87 152.667C1056.34 153.861 1055.85 155.15 1056.02 156.456C1056.23 157.971 1057.26 159.218 1058.26 160.369C1062.56 165.348 1067.17 170.539 1073.29 172.946C1082.5 176.514 1093.77 172.583 1099.53 164.576C1100.12 163.802 1100.61 162.95 1100.75 162.018C1100.89 160.697 1100.3 159.445 1099.93 158.214C1098.95 154.693 1100.12 150.888 1099.54 147.266C1098.07 138.107 1086.9 130.905 1078.2 131.643C1068.01 132.519 1060.69 143.928 1056.87 152.667Z" fill="white"/>
<path d="M1076.57 150.016C1075.68 150.855 1074.82 151.741 1074.5 152.909C1074.14 154.257 1074.51 155.65 1074.97 156.958C1076.8 162.675 1078.73 168.631 1083.01 172.848C1089.43 179.151 1100.23 179.85 1107.97 175.202C1108.73 174.742 1109.47 174.235 1109.88 173.468C1110.47 172.418 1110.42 171.17 1110.56 169.963C1110.99 166.665 1113.33 163.889 1114.12 160.67C1116.17 152.457 1109.43 142.488 1101.91 140.021C1093.07 137.131 1082.92 144.089 1076.57 150.016Z" fill="white"/>
<path d="M1092 165.901C1091.9 167.204 1091.87 168.536 1092.43 169.693C1093.11 171.022 1094.48 171.863 1095.75 172.579C1101.36 175.79 1107.32 179.081 1113.81 179.312C1123.53 179.659 1132.65 172.33 1135.38 163.029C1135.63 162.109 1135.88 161.188 1135.67 160.225C1135.39 158.957 1134.42 158.015 1133.67 156.933C1131.6 154.001 1131.46 150.098 1129.75 146.971C1125.41 138.927 1112.68 135.954 1104.89 139.47C1095.75 143.62 1092.73 156.553 1091.98 165.854L1092 165.901Z" fill="white"/>
<path d="M1127.26 132.058C1126.46 131.708 1125.62 131.377 1124.73 131.502C1123.72 131.616 1122.9 132.322 1122.12 133.01C1118.82 135.881 1115.37 138.923 1113.79 142.944C1111.41 149.031 1114.03 156.478 1119.35 160.239C1119.87 160.586 1120.46 160.963 1121.03 161.016C1121.9 161.119 1122.72 160.689 1123.58 160.468C1125.92 159.833 1128.41 160.57 1130.8 160.193C1136.87 159.211 1141.66 151.804 1141.14 146.071C1140.57 139.366 1132.97 134.566 1127.21 132.077L1127.26 132.058Z" fill="white"/>
<path d="M1118.81 135.553C1118.53 136.54 1118.27 137.575 1118.49 138.585C1118.78 139.739 1119.73 140.633 1120.6 141.45C1124.43 144.912 1128.52 148.49 1133.54 149.783C1141.07 151.699 1149.47 147.503 1153.18 140.734C1153.54 140.099 1153.86 139.37 1153.89 138.59C1153.87 137.552 1153.29 136.624 1152.87 135.687C1151.79 133.032 1152.31 129.972 1151.51 127.205C1149.45 120.201 1140.07 115.651 1133.36 117.102C1125.52 118.771 1120.92 128.359 1118.81 135.553Z" fill="white"/>
<path d="M1123.31 108.094C1122.53 108.781 1121.76 109.516 1121.44 110.522C1121.05 111.661 1121.37 112.91 1121.7 114.046C1123.1 119.055 1124.63 124.284 1128.25 128.048C1133.62 133.655 1142.97 134.589 1149.77 130.797C1150.45 130.423 1151.11 130.001 1151.47 129.367C1152.02 128.496 1152.03 127.392 1152.17 126.347C1152.67 123.516 1154.74 121.175 1155.53 118.394C1157.54 111.351 1151.99 102.459 1145.52 100.134C1137.94 97.3615 1128.92 103.112 1123.29 108.046L1123.31 108.094Z" fill="white"/>
<path d="M963.561 231.763C1027.9 289.643 1130.68 274.304 1196.15 227.15C1239.55 195.873 1289.97 125.506 1266.56 68.7925C1260.3 53.5743 1236.77 63.9724 1243.09 79.2335C1261.74 124.491 1212.94 183.577 1179.99 207.265C1122.98 248.216 1034.47 261.345 978.791 211.171C966.514 200.127 951.35 220.813 963.518 231.821L963.561 231.763Z" fill="white"/>
<path d="M989.841 54.0405L989.793 54.059C980.003 57.8576 975.139 68.8476 978.93 78.6058L987.611 100.954C991.402 110.713 1002.41 115.544 1012.2 111.745L1012.25 111.727C1022.04 107.928 1026.9 96.9382 1023.11 87.18L1014.43 64.8313C1010.64 55.0731 999.631 50.2418 989.841 54.0405Z" fill="white"/>
<path d="M1132.33 -1.24591L1132.29 -1.2273C1122.49 2.57131 1117.63 13.5613 1121.42 23.3195L1130.1 45.6682C1133.89 55.4264 1144.9 60.2576 1154.69 56.459L1154.74 56.4404C1164.53 52.6418 1169.4 41.6518 1165.61 31.8936L1156.92 9.54493C1153.13 -0.213287 1142.12 -5.04451 1132.33 -1.24591Z" fill="white"/>
</g>
</g>
<defs>
<filter id="filter0_f_2951_25364" x="134" y="-87" width="1018.95" height="1051.32" filterUnits="userSpaceOnUse" color-interpolation-filters="sRGB">
<feFlood flood-opacity="0" result="BackgroundImageFix"/>
<feBlend mode="normal" in="SourceGraphic" in2="BackgroundImageFix" result="shape"/>
<feGaussianBlur stdDeviation="117" result="effect1_foregroundBlur_2951_25364"/>
</filter>
<filter id="filter1_f_2951_25364" x="324" y="103" width="638.949" height="671.321" filterUnits="userSpaceOnUse" color-interpolation-filters="sRGB">
<feFlood flood-opacity="0" result="BackgroundImageFix"/>
<feBlend mode="normal" in="SourceGraphic" in2="BackgroundImageFix" result="shape"/>
<feGaussianBlur stdDeviation="22" result="effect1_foregroundBlur_2951_25364"/>
</filter>
<clipPath id="clip0_2951_25364">
<rect width="1200" height="628" rx="20" fill="white"/>
</clipPath>
<clipPath id="clip1_2951_25364">
<rect width="550.926" height="583.333" fill="white" transform="translate(334.984 146.347)"/>
</clipPath>
</defs>
</svg>
