<svg width="80" height="80" viewBox="0 0 80 80" fill="none" xmlns="http://www.w3.org/2000/svg">
<rect width="80" height="80" rx="10.0629" fill="#F2F4F6"/>
<path d="M30.3154 18.125C29.161 18.1275 28.0428 18.5286 27.15 19.2605C26.2572 19.9925 25.6446 21.0103 25.4158 22.1419L24.4064 27.1933C24.361 27.4199 24.3665 27.6538 24.4224 27.878C24.4783 28.1023 24.5833 28.3114 24.7298 28.4902C24.8762 28.669 25.0605 28.813 25.2694 28.912C25.4783 29.011 25.7065 29.0624 25.9376 29.0625H33.7501C34.1645 29.0625 34.562 28.8979 34.855 28.6049C35.148 28.3118 35.3126 27.9144 35.3126 27.5V23.1222C35.3112 21.7973 34.7842 20.5271 33.8474 19.5902C32.9105 18.6534 31.6403 18.1264 30.3154 18.125Z" fill="#4196FD"/>
<path d="M54.5844 22.1418C54.341 20.926 53.6543 19.844 52.6577 19.1063C51.6612 18.3685 50.4259 18.0276 49.192 18.1498C47.9581 18.2721 46.8137 18.8487 45.9812 19.7676C45.1487 20.6865 44.6876 21.8822 44.6875 23.1221V27.4999C44.6875 27.9143 44.8521 28.3117 45.1451 28.6048C45.4382 28.8978 45.8356 29.0624 46.25 29.0624H54.0625C54.2936 29.0623 54.5218 29.0109 54.7307 28.9119C54.9396 28.8129 55.1239 28.6689 55.2704 28.4901C55.4168 28.3113 55.5218 28.1022 55.5777 27.878C55.6336 27.6537 55.6391 27.4198 55.5937 27.1932L54.5844 22.1418Z" fill="#4196FD"/>
<path d="M58.0312 30.5799C57.7255 28.8379 56.8142 27.26 55.4582 26.1247C54.1021 24.9893 52.3885 24.3696 50.6199 24.375C48.8514 24.3804 47.1416 25.0105 45.7925 26.1541C44.4433 27.2976 43.5417 28.8811 43.2466 30.6249H36.7466C36.4528 28.883 35.5533 27.3008 34.2068 26.1573C32.8603 25.0138 31.1533 24.3824 29.3867 24.3746C27.6202 24.3667 25.9077 24.9829 24.5511 26.1144C23.1945 27.2459 22.281 28.82 21.9716 30.5593L18.1524 50.646C18.1095 50.8718 18.117 51.1044 18.1743 51.327C18.2317 51.5496 18.3374 51.7568 18.484 51.9339C18.6306 52.111 18.8145 52.2535 19.0225 52.3513C19.2305 52.4492 19.4575 52.4999 19.6874 52.4999H36.8749C37.0909 52.4999 37.3045 52.4551 37.5023 52.3684C37.7001 52.2816 37.8778 52.1548 38.0241 51.996C38.1705 51.8371 38.2823 51.6496 38.3525 51.4454C38.4227 51.2411 38.4498 51.0245 38.4321 50.8093L37.7998 43.1249H42.1979L41.5677 50.8093C41.55 51.0245 41.5771 51.2411 41.6473 51.4454C41.7176 51.6496 41.8294 51.8371 41.9757 51.996C42.122 52.1548 42.2997 52.2816 42.4975 52.3684C42.6953 52.4551 42.9089 52.4999 43.1249 52.4999H60.3124C60.5423 52.4999 60.7693 52.4492 60.9773 52.3513C61.1854 52.2535 61.3692 52.111 61.5158 51.9339C61.6624 51.7568 61.7682 51.5496 61.8255 51.327C61.8828 51.1044 61.8903 50.8718 61.8474 50.646L58.0312 30.5799Z" fill="#333D4B"/>
<path d="M28.2812 61.875C33.8904 61.875 38.4375 57.3279 38.4375 51.7188C38.4375 46.1096 33.8904 41.5625 28.2812 41.5625C22.6721 41.5625 18.125 46.1096 18.125 51.7188C18.125 57.3279 22.6721 61.875 28.2812 61.875Z" fill="#333D4B"/>
<path d="M51.7188 61.875C57.3279 61.875 61.875 57.3279 61.875 51.7188C61.875 46.1096 57.3279 41.5625 51.7188 41.5625C46.1096 41.5625 41.5625 46.1096 41.5625 51.7188C41.5625 57.3279 46.1096 61.875 51.7188 61.875Z" fill="#333D4B"/>
<path d="M51.7188 58.75C55.602 58.75 58.75 55.602 58.75 51.7188C58.75 47.8355 55.602 44.6875 51.7188 44.6875C47.8355 44.6875 44.6875 47.8355 44.6875 51.7188C44.6875 55.602 47.8355 58.75 51.7188 58.75Z" fill="#F4FAFE"/>
<path d="M28.2812 58.75C32.1645 58.75 35.3125 55.602 35.3125 51.7188C35.3125 47.8355 32.1645 44.6875 28.2812 44.6875C24.398 44.6875 21.25 47.8355 21.25 51.7188C21.25 55.602 24.398 58.75 28.2812 58.75Z" fill="#F4FAFE"/>
</svg>
