<svg width="80" height="80" viewBox="0 0 80 80" fill="none" xmlns="http://www.w3.org/2000/svg">
<rect width="80" height="80" rx="10.0629" fill="#F2F4F6"/>
<path fill-rule="evenodd" clip-rule="evenodd" d="M37.375 47.8127H45.4688C46.0609 47.8127 46.6016 48.1471 46.8664 48.6768L48.018 50.9799C48.1898 51.3237 48.2289 51.7182 48.1281 52.0893C46.5922 57.7252 41.4336 61.8752 35.3125 61.8752C27.982 61.8752 22.0312 55.9244 22.0312 48.594C22.0312 41.9159 26.9711 36.383 33.3938 35.451C34.2156 35.3315 34.9875 35.876 35.15 36.6909L37.375 47.8127ZM32.3977 38.8635C28.2102 40.1166 25.1562 44.0018 25.1562 48.594C25.1562 54.1994 29.707 58.7502 35.3125 58.7502C39.7906 58.7502 43.5953 55.8463 44.9445 51.8205L44.5031 50.9377H36.0938C35.3492 50.9377 34.7078 50.4119 34.5617 49.6815L32.3977 38.8635Z" fill="#B0B8C1"/>
<path d="M36.875 27.5C39.0324 27.5 40.7812 25.7511 40.7812 23.5938C40.7812 21.4364 39.0324 19.6875 36.875 19.6875C34.7176 19.6875 32.9688 21.4364 32.9688 23.5938C32.9688 25.7511 34.7176 27.5 36.875 27.5Z" fill="#4196FD"/>
<path fill-rule="evenodd" clip-rule="evenodd" d="M35.5406 28.8977C33.1664 28.3016 31.4062 26.1516 31.4062 23.5938C31.4062 20.5758 33.857 18.125 36.875 18.125C39.893 18.125 42.3438 20.5758 42.3438 23.5938C42.3438 25.9758 40.818 28.0039 38.6906 28.7523L39.8836 35.3125H47.0312C47.8937 35.3125 48.5938 36.0125 48.5938 36.875C48.5938 37.7375 47.8937 38.4375 47.0312 38.4375H40.4516L41.3039 43.125H48.5938C49.1859 43.125 49.7266 43.4594 49.9914 43.9891L54.2469 52.5H56.4062C57.2687 52.5 57.9688 53.2 57.9688 54.0625C57.9688 54.925 57.2687 55.625 56.4062 55.625H53.2812C52.6891 55.625 52.1484 55.2906 51.8836 54.7609L47.6281 46.25H40C39.2445 46.25 38.5977 45.7102 38.4625 44.9672L35.5406 28.8977ZM36.875 21.25C38.1687 21.25 39.2188 22.3 39.2188 23.5938C39.2188 24.8875 38.1687 25.9375 36.875 25.9375C35.5813 25.9375 34.5312 24.8875 34.5312 23.5938C34.5312 22.3 35.5813 21.25 36.875 21.25Z" fill="#4196FD"/>
<path fill-rule="evenodd" clip-rule="evenodd" d="M31.0625 32.1875H27.6563C26.7938 32.1875 26.0938 31.4875 26.0938 30.625C26.0938 29.7625 26.7938 29.0625 27.6563 29.0625H32.3438C33.0883 29.0625 33.7297 29.5883 33.8758 30.3187L37.375 47.8125H45.4688C46.0609 47.8125 46.6016 48.1469 46.8664 48.6766L51.1219 57.1875H56.4062C57.2687 57.1875 57.9688 57.8875 57.9688 58.75C57.9688 59.6125 57.2687 60.3125 56.4062 60.3125H50.1562C49.5641 60.3125 49.0234 59.9781 48.7586 59.4484L44.5031 50.9375H36.0938C35.3492 50.9375 34.7078 50.4117 34.5617 49.6812L31.0625 32.1875Z" fill="#4E5968"/>
</svg>
