<svg width="85" height="24" viewBox="0 0 85 24" fill="none" xmlns="http://www.w3.org/2000/svg">
<g id="_&#234;&#178;&#169;&#235;&#166;&#172;_&#235;&#170;&#168;&#235;&#147;&#156;" clip-path="url(#clip0_2917_45619)">
<g id="Group">
<g id="Group_2">
<path id="Vector" d="M15.9257 11.268C15.9257 12.4108 14.3359 13.8754 12.615 13.8754C10.8942 13.8754 9.49756 12.4108 9.49756 11.268C9.49756 10.1252 10.8933 9.198 12.615 9.198C14.3367 9.198 15.9257 10.1244 15.9257 11.268Z" fill="#333D4B"/>
<g id="Group_3">
<path id="Vector_2" d="M14.0381 10.521C13.9768 10.5998 13.9154 10.6852 13.9029 10.7839C13.888 10.8992 13.9411 11.0112 13.9925 11.1148C14.2139 11.5652 14.4511 12.0337 14.8567 12.329C15.4637 12.7702 16.3677 12.6947 16.9441 12.2145C17.0005 12.1681 17.0552 12.1158 17.0818 12.0478C17.1191 11.9549 17.0967 11.8504 17.095 11.7501C17.0909 11.4723 17.2468 11.2143 17.2733 10.9382C17.3405 10.2349 16.6563 9.49017 16.0045 9.37987C15.2398 9.25049 14.4851 9.95128 14.0373 10.5202L14.0381 10.521Z" fill="#333D4B"/>
<path id="Vector_3" d="M15.876 9.03872C15.8594 8.96822 15.8386 8.89607 15.7881 8.84465C15.7292 8.78494 15.6429 8.76421 15.5608 8.74596C15.2067 8.66884 14.836 8.59171 14.4868 8.68874C13.9652 8.83387 13.6019 9.37791 13.6136 9.91947C13.6144 9.97171 13.6194 10.0265 13.6459 10.0721C13.6816 10.1351 13.7504 10.1691 13.8076 10.2131C13.9668 10.3358 14.0423 10.539 14.1866 10.6783C14.554 11.0324 15.2822 10.9802 15.6371 10.6617C16.0543 10.2877 15.997 9.5471 15.8768 9.03789L15.876 9.03872Z" fill="#333D4B"/>
<path id="Vector_4" d="M11.9183 8.39288C11.8337 8.44762 11.7475 8.50982 11.7027 8.60021C11.6504 8.70554 11.6645 8.82994 11.6795 8.94605C11.7433 9.44945 11.8155 9.97607 12.1066 10.3916C12.542 11.0136 13.431 11.2383 14.1401 10.9696C14.2089 10.9431 14.2786 10.9116 14.3267 10.856C14.3922 10.7789 14.4063 10.6719 14.437 10.5765C14.5241 10.3095 14.7579 10.1146 14.8749 9.85831C15.171 9.20811 14.7613 8.27014 14.1749 7.95002C13.4858 7.57433 12.5345 7.99646 11.9183 8.39288Z" fill="#333D4B"/>
<path id="Vector_5" d="M11.5427 7.67623C11.4449 7.65881 11.3412 7.64554 11.2483 7.6812C11.1405 7.72267 11.0667 7.82136 10.9995 7.91507C10.7076 8.32145 10.4074 8.74938 10.3394 9.24449C10.2374 9.98508 10.7275 10.7431 11.42 11.0242C11.4872 11.0516 11.5593 11.0757 11.6315 11.0674C11.7302 11.0557 11.8114 10.9877 11.8985 10.9396C12.1407 10.8053 12.4401 10.821 12.6955 10.7149C13.3449 10.4437 13.6774 9.49329 13.4684 8.8688C13.2229 8.13568 12.2535 7.80311 11.5427 7.67623Z" fill="#333D4B"/>
<path id="Vector_6" d="M11.7733 8.57603C11.7385 8.48148 11.697 8.38362 11.6182 8.32059C11.527 8.24678 11.4026 8.23268 11.2857 8.2219C10.7798 8.1738 10.2507 8.12985 9.78128 8.32308C9.07967 8.61252 8.665 9.43024 8.77281 10.1816C8.78359 10.2546 8.79935 10.3301 8.84331 10.3889C8.90385 10.4702 9.00503 10.5067 9.0921 10.5581C9.33427 10.7016 9.47277 10.9728 9.69752 11.142C10.2681 11.5732 11.2716 11.3783 11.7128 10.8749C12.2303 10.2844 12.0263 9.26354 11.7733 8.57603Z" fill="#333D4B"/>
<path id="Vector_7" d="M11.0849 9.23218C11.0219 9.1169 10.9506 8.99997 10.8378 8.93362C10.7068 8.85649 10.5442 8.8623 10.3924 8.87059C9.73478 8.90542 9.04727 8.94855 8.4825 9.28609C7.63741 9.79032 7.26172 10.919 7.54286 11.862C7.57023 11.954 7.60506 12.0469 7.67224 12.1141C7.76512 12.207 7.90279 12.2344 8.02388 12.2841C8.36141 12.4226 8.59114 12.7436 8.91126 12.9186C9.72483 13.3631 10.9755 12.9219 11.4457 12.1929C11.9972 11.337 11.5411 10.0665 11.0858 9.23218H11.0849Z" fill="#333D4B"/>
<path id="Vector_8" d="M8.24939 11.6205C8.1706 11.6993 8.09181 11.7872 8.06528 11.8958C8.03376 12.0219 8.07855 12.1529 8.12167 12.2756C8.30993 12.8048 8.51229 13.3571 8.92529 13.7377C9.54314 14.3067 10.5574 14.3398 11.2607 13.8812C11.3287 13.8364 11.3967 13.7858 11.4357 13.7137C11.4888 13.615 11.478 13.4964 11.4888 13.3853C11.5194 13.0751 11.7268 12.8097 11.7923 12.5054C11.9582 11.7324 11.2939 10.816 10.584 10.6087C9.75048 10.3657 8.82163 11.0466 8.24939 11.6221V11.6205Z" fill="#333D4B"/>
<path id="Vector_9" d="M9.88663 12.0202C9.79291 12.0584 9.69588 12.1032 9.63451 12.1844C9.56319 12.279 9.55324 12.4042 9.54577 12.522C9.51426 13.0312 9.48606 13.5644 9.69505 14.0305C10.0077 14.7263 10.8437 15.1161 11.595 14.9842C11.668 14.9718 11.7427 14.9527 11.8007 14.9071C11.8803 14.8441 11.9135 14.7404 11.9624 14.6517C12.0993 14.4037 12.3663 14.2561 12.5297 14.0247C12.9444 13.4375 12.7163 12.4349 12.1971 12.0086C11.5876 11.5077 10.5683 11.7457 9.88497 12.0219L9.88663 12.0202Z" fill="#333D4B"/>
<path id="Vector_10" d="M10.6196 13.7568C10.5723 13.8555 10.5283 13.9625 10.5383 14.0711C10.5507 14.198 10.6337 14.305 10.7141 14.4045C11.0608 14.8333 11.4273 15.2786 11.934 15.4967C12.6912 15.8227 13.6416 15.5233 14.1434 14.8689C14.1923 14.8051 14.2388 14.7362 14.2512 14.6566C14.2686 14.548 14.2197 14.4418 14.194 14.3348C14.1218 14.0379 14.2271 13.7245 14.1882 13.4217C14.0903 12.6513 13.1764 12.0193 12.4516 12.0592C11.6007 12.1056 10.9621 13.0386 10.6196 13.7576V13.7568Z" fill="#333D4B"/>
<path id="Vector_11" d="M14.4511 12.1546C14.3989 12.1023 14.3408 12.0509 14.2695 12.0335C14.1857 12.0128 14.0995 12.0426 14.019 12.0717C13.6699 12.1969 13.305 12.3312 13.0545 12.6058C12.6797 13.0146 12.6598 13.6855 12.9641 14.1491C12.994 14.1939 13.0271 14.2387 13.0753 14.2644C13.1408 14.2992 13.2187 14.2918 13.2925 14.2992C13.4974 14.3191 13.6732 14.4552 13.8747 14.4983C14.3864 14.6069 14.9902 14.1657 15.1262 13.6963C15.2854 13.1448 14.8334 12.5328 14.4528 12.1554L14.4511 12.1546Z" fill="#333D4B"/>
<path id="Vector_12" d="M13.6717 12.1729C13.6178 12.2425 13.5655 12.318 13.5548 12.4051C13.5423 12.5063 13.5896 12.6041 13.6352 12.6954C13.8326 13.0893 14.0441 13.499 14.4023 13.7552C14.9381 14.1384 15.7309 14.0662 16.2343 13.6408C16.2833 13.5993 16.3314 13.5529 16.3546 13.4932C16.3861 13.4111 16.3662 13.3198 16.3645 13.2319C16.3587 12.9881 16.4939 12.7609 16.5155 12.5179C16.5702 11.9 15.964 11.2507 15.3909 11.1578C14.7183 11.0491 14.0615 11.6695 13.6717 12.1729Z" fill="#333D4B"/>
<path id="Vector_13" d="M14.8709 10.1285C14.788 10.1584 14.7034 10.1949 14.6478 10.2637C14.5832 10.3433 14.5715 10.452 14.5616 10.5532C14.5193 10.9935 14.4795 11.4546 14.647 11.8643C14.8983 12.4764 15.6107 12.8388 16.2659 12.7459C16.3297 12.7368 16.3952 12.7235 16.4467 12.6845C16.5172 12.6323 16.5495 12.5436 16.5943 12.4681C16.7195 12.2574 16.9559 12.1372 17.1043 11.9415C17.4808 11.4447 17.3125 10.5697 16.8746 10.1841C16.3612 9.73212 15.4705 9.90877 14.8701 10.1277L14.8709 10.1285Z" fill="#333D4B"/>
</g>
</g>
<path id="Vector_14" d="M0.264625 17.6016C4.92629 23.295 13.7462 23.3107 19.8418 20.1742C23.8823 18.0951 29.0067 12.8106 27.7644 7.73672C27.431 6.37413 25.327 6.95135 25.6612 8.31643C26.6523 12.3644 21.8057 16.7184 18.7405 18.2908C13.4369 21.0118 5.84436 20.9911 1.80635 16.0591C0.916479 14.9726 -0.618612 16.5235 0.264625 17.6008V17.6016Z" fill="#333D4B"/>
<path id="Vector_15" d="M6.60485 3.34381C6.60485 2.45157 5.88155 1.72827 4.98932 1.72827C4.09708 1.72827 3.37378 2.45157 3.37378 3.34381V5.38147C3.37378 6.27371 4.09708 6.99701 4.98932 6.99701C5.88155 6.99701 6.60485 6.27371 6.60485 5.38147V3.34381Z" fill="#333D4B"/>
<path id="Vector_16" d="M19.5807 3.34381C19.5807 2.45157 18.8574 1.72827 17.9651 1.72827C17.0729 1.72827 16.3496 2.45157 16.3496 3.34381V5.38147C16.3496 6.27371 17.0729 6.99701 17.9651 6.99701C18.8574 6.99701 19.5807 6.27371 19.5807 5.38147V3.34381Z" fill="#333D4B"/>
</g>
<g id="Group_4">
<path id="Vector_17" d="M45.4249 6.76734H40.3129C39.7066 6.76734 39.2381 6.27389 39.2381 5.61789C39.2381 4.96188 39.7066 4.46843 40.3129 4.46843H45.4249V1.97547C45.4249 1.23653 46.0029 0.660147 46.8016 0.660147C47.6002 0.660147 48.1783 1.23487 48.1783 1.97547V11.2888C48.1783 12.0751 47.5364 12.7128 46.746 12.7128H41.0162C39.19 12.7128 37.7104 11.2416 37.7104 9.42617V1.97298C37.7104 1.23239 38.2885 0.657659 39.0871 0.657659C39.8858 0.657659 40.4638 1.23239 40.4638 1.97298V9.26031C40.4638 9.86572 40.9573 10.3567 41.566 10.3567H45.4241V6.76734H45.4249ZM40.5476 17.863C39.8858 17.863 39.3633 17.3156 39.3633 16.6306C39.3633 15.9455 39.8874 15.3982 40.5476 15.3982H51.2095C55.2566 15.3982 58.5383 18.6608 58.5383 22.6855C58.5383 23.4244 57.9047 24.0008 57.106 24.0008C56.3074 24.0008 55.6737 23.4261 55.6737 22.6855C55.6737 20.0217 53.5034 17.8638 50.8247 17.8638H40.5484L40.5476 17.863ZM53.2496 5.83517H55.7293V1.31532C55.7293 0.576385 56.3629 0 57.1342 0C57.9055 0 58.5391 0.574726 58.5391 1.31532V11.5335C58.5391 12.2724 57.9055 12.8488 57.1342 12.8488C56.3629 12.8488 55.7293 12.2741 55.7293 11.5335V8.29994H53.2496V11.395C53.2496 12.1339 52.6434 12.7103 51.8729 12.7103C51.1025 12.7103 50.4962 12.1356 50.4962 11.395V1.45216C50.4962 0.713224 51.1025 0.13684 51.8729 0.13684C52.6434 0.13684 53.2496 0.711566 53.2496 1.45216V5.83517Z" fill="#333D4B"/>
<path id="Vector_18" d="M63.0854 12.547C62.4236 12.547 61.9011 11.9996 61.9011 11.3146C61.9011 10.6295 62.4253 10.0822 63.0854 10.0822H70.8828V6.79555C70.8828 6.05661 71.5164 5.48023 72.315 5.48023C73.1137 5.48023 73.7473 6.05495 73.7473 6.79555V10.0822H83.7482C84.41 10.0822 84.9325 10.6295 84.9325 11.3146C84.9325 11.9996 84.4083 12.547 83.7482 12.547H63.0854ZM65.8131 15.1229H79.2366C81.1656 15.1229 82.7289 16.677 82.7289 18.5953V22.4102C82.7289 23.1964 82.087 23.8341 81.2967 23.8341H67.6865C65.8603 23.8341 64.3808 22.3629 64.3808 20.5475V16.5476C64.3808 15.7598 65.0227 15.1237 65.8131 15.1237V15.1229ZM64.7383 3.12493C64.0765 3.12493 63.554 2.57757 63.554 1.89254C63.554 1.20751 64.0781 0.660156 64.7383 0.660156H75.8131C79.6314 0.660156 82.7281 3.73946 82.7281 7.53614C82.7281 8.27507 82.0945 8.85146 81.2958 8.85146C80.4972 8.85146 79.8636 8.27673 79.8636 7.53614C79.8636 5.10039 77.8773 3.12493 75.4275 3.12493H64.7383ZM67.1898 20.3286C67.1898 20.934 67.6832 21.4249 68.2919 21.4249H79.9192V18.6459C79.9192 18.0321 79.4182 17.5337 78.8004 17.5337H67.1898V20.3286Z" fill="#333D4B"/>
</g>
</g>
<defs>
<clipPath id="clip0_2917_45619">
<rect width="84.9326" height="24" fill="white"/>
</clipPath>
</defs>
</svg>
