<svg width="154" height="154" viewBox="0 0 154 154" fill="none" xmlns="http://www.w3.org/2000/svg">
<g filter="url(#filter0_d_73_1625)">
<rect x="27" y="14" width="100" height="100" rx="30" fill="#4196FD" shape-rendering="crispEdges"/>
<path d="M83.7018 64.6558C83.7018 66.9306 80.5372 69.846 77.1117 69.846C73.6862 69.846 70.9062 66.9306 70.9062 64.6558C70.9062 62.381 73.6846 60.5353 77.1117 60.5353C80.5388 60.5353 83.7018 62.3793 83.7018 64.6558Z" fill="white"/>
<path d="M79.9441 63.1686C79.8219 63.3255 79.6998 63.4955 79.675 63.6919C79.6453 63.9214 79.751 64.1443 79.8533 64.3506C80.2941 65.247 80.7662 66.1797 81.5735 66.7674C82.7819 67.6457 84.5813 67.4954 85.7286 66.5396C85.8408 66.4472 85.9498 66.3432 86.0026 66.2078C86.0769 66.0229 86.0323 65.8149 86.029 65.6152C86.0208 65.0621 86.3311 64.5487 86.384 63.999C86.5177 62.5991 85.1557 61.1167 83.8582 60.8971C82.3361 60.6396 80.8339 62.0345 79.9424 63.167L79.9441 63.1686Z" fill="white"/>
<path d="M83.6026 60.2186C83.5696 60.0783 83.5283 59.9347 83.4276 59.8323C83.3104 59.7134 83.1387 59.6722 82.9753 59.6359C82.2704 59.4823 81.5325 59.3288 80.8375 59.5219C79.7991 59.8108 79.0761 60.8938 79.0992 61.9718C79.1008 62.0758 79.1107 62.1847 79.1636 62.2755C79.2345 62.401 79.3716 62.4687 79.4855 62.5562C79.8024 62.8005 79.9526 63.2049 80.2399 63.4823C80.9712 64.1872 82.4206 64.0832 83.1272 63.4493C83.9575 62.7047 83.8436 61.2306 83.6043 60.2169L83.6026 60.2186Z" fill="white"/>
<path d="M75.7244 58.9325C75.556 59.0415 75.3843 59.1653 75.2952 59.3452C75.1912 59.5549 75.2192 59.8025 75.2489 60.0336C75.3761 61.0357 75.5197 62.084 76.0991 62.911C76.9658 64.1491 78.7355 64.5965 80.1469 64.0616C80.284 64.0088 80.4226 63.9461 80.5184 63.8355C80.6488 63.682 80.6769 63.469 80.7379 63.2792C80.9113 62.7476 81.3768 62.3597 81.6096 61.8495C82.1989 60.5553 81.3834 58.6882 80.2163 58.051C78.8444 57.3032 76.9509 58.1434 75.7244 58.9325Z" fill="white"/>
<path d="M74.9773 57.5062C74.7825 57.4715 74.5761 57.4451 74.3912 57.5161C74.1766 57.5986 74.0297 57.7951 73.896 57.9816C73.3149 58.7905 72.7173 59.6423 72.5819 60.6279C72.3789 62.102 73.3545 63.6109 74.733 64.1705C74.8667 64.225 75.0103 64.2729 75.1539 64.2564C75.3504 64.2333 75.5121 64.0979 75.6855 64.0021C76.1675 63.7347 76.7635 63.7661 77.2719 63.5548C78.5645 63.015 79.2265 61.1231 78.8105 59.88C78.3218 58.4207 76.392 57.7587 74.9773 57.5062Z" fill="white"/>
<path d="M75.4356 59.2975C75.3663 59.1093 75.2837 58.9145 75.1269 58.789C74.9453 58.6421 74.6977 58.614 74.4649 58.5926C73.4579 58.4968 72.4047 58.4093 71.4703 58.794C70.0738 59.3701 69.2483 60.9978 69.4629 62.4935C69.4844 62.6387 69.5158 62.789 69.6033 62.9062C69.7238 63.068 69.9252 63.1406 70.0985 63.2429C70.5806 63.5285 70.8562 64.0684 71.3036 64.4051C72.4394 65.2636 74.4369 64.8756 75.3151 63.8736C76.3452 62.6982 75.9391 60.666 75.4356 59.2975Z" fill="white"/>
<path d="M74.0657 60.6033C73.9402 60.3738 73.7983 60.1411 73.5738 60.009C73.3129 59.8555 72.9894 59.867 72.6873 59.8835C71.3782 59.9529 70.0096 60.0387 68.8854 60.7106C67.2032 61.7143 66.4554 63.9611 67.015 65.8381C67.0695 66.0213 67.1388 66.2062 67.2726 66.3399C67.4575 66.5248 67.7315 66.5793 67.9725 66.6783C68.6444 66.954 69.1017 67.5929 69.7389 67.9412C71.3583 68.826 73.8478 67.9478 74.7838 66.4967C75.8816 64.7931 74.9736 62.264 74.0673 60.6033H74.0657Z" fill="white"/>
<path d="M68.4217 65.3574C68.2649 65.5142 68.1081 65.6892 68.0553 65.9055C67.9925 66.1564 68.0817 66.4172 68.1675 66.6616C68.5422 67.7148 68.9451 68.8142 69.7672 69.572C70.997 70.7044 73.016 70.7705 74.4159 69.8576C74.5512 69.7684 74.6866 69.6677 74.7642 69.5241C74.8699 69.3276 74.8484 69.0916 74.8699 68.8704C74.9309 68.253 75.3436 67.7247 75.4741 67.1188C75.8042 65.5803 74.4819 63.7561 73.0688 63.3434C71.4097 62.8597 69.5608 64.215 68.4217 65.3607V65.3574Z" fill="white"/>
<path d="M71.6805 66.1532C71.4939 66.2292 71.3008 66.3183 71.1786 66.4801C71.0366 66.6683 71.0168 66.9176 71.002 67.152C70.9393 68.1656 70.8831 69.2271 71.2991 70.1548C71.9215 71.5399 73.5855 72.3157 75.0812 72.0533C75.2264 72.0285 75.375 71.9905 75.4906 71.8997C75.649 71.7743 75.7151 71.5679 75.8125 71.3913C76.0849 70.8977 76.6164 70.6038 76.9416 70.1433C77.7671 68.9745 77.3131 66.9786 76.2797 66.1301C75.0663 65.133 73.0374 65.6068 71.6772 66.1565L71.6805 66.1532Z" fill="white"/>
<path d="M73.1397 69.6098C73.0456 69.8063 72.9581 70.0192 72.9779 70.2355C73.0027 70.4881 73.1678 70.701 73.3279 70.8991C74.0179 71.7526 74.7476 72.6391 75.7563 73.0733C77.2635 73.722 79.1553 73.1261 80.154 71.8236C80.2514 71.6965 80.3439 71.5595 80.3687 71.401C80.4033 71.1847 80.3059 70.9734 80.2547 70.7605C80.1111 70.1695 80.3208 69.5455 80.2432 68.9429C80.0484 67.4093 78.2292 66.1514 76.7864 66.2306C75.0926 66.323 73.8215 68.1802 73.1397 69.6115V69.6098Z" fill="white"/>
<path d="M80.7661 66.4205C80.6621 66.3165 80.5465 66.2141 80.4045 66.1795C80.2378 66.1382 80.0661 66.1976 79.906 66.2554C79.211 66.5047 78.4846 66.7721 77.9861 67.3185C77.2399 68.1324 77.2003 69.4679 77.8061 70.3907C77.8656 70.4798 77.9316 70.569 78.0273 70.6202C78.1578 70.6895 78.3129 70.6746 78.4599 70.6895C78.8676 70.7291 79.2176 70.9999 79.6187 71.0857C80.6373 71.302 81.8391 70.4237 82.1098 69.4894C82.4268 68.3916 81.5271 67.1732 80.7694 66.4221L80.7661 66.4205Z" fill="white"/>
<path d="M79.2143 66.4569C79.107 66.5956 79.003 66.7458 78.9816 66.9191C78.9568 67.1205 79.0509 67.3153 79.1417 67.4969C79.5346 68.2811 79.9555 69.0966 80.6687 69.6067C81.7351 70.3694 83.3133 70.2257 84.3154 69.3789C84.4128 69.2963 84.5085 69.2039 84.5547 69.085C84.6175 68.9216 84.5778 68.74 84.5745 68.565C84.563 68.0797 84.8321 67.6273 84.875 67.1436C84.9839 65.9138 83.7772 64.6212 82.6365 64.4363C81.2977 64.22 79.9902 65.4549 79.2143 66.4569Z" fill="white"/>
<path d="M81.6019 62.3875C81.4368 62.4469 81.2684 62.5195 81.1578 62.6565C81.029 62.815 81.0059 63.0313 80.9861 63.2327C80.9019 64.1093 80.8227 65.0271 81.1562 65.8426C81.6564 67.0609 83.0744 67.7823 84.3786 67.5975C84.5057 67.5793 84.6361 67.5529 84.7384 67.4753C84.8788 67.3713 84.9431 67.1947 85.0323 67.0444C85.2816 66.6251 85.752 66.3858 86.0475 65.9962C86.797 65.0073 86.4619 63.2657 85.5903 62.4981C84.5684 61.5984 82.7954 61.95 81.6002 62.3858L81.6019 62.3875Z" fill="white"/>
<path d="M52.5272 77.2633C61.8065 88.5962 79.363 88.6276 91.4966 82.3842C99.5394 78.2456 109.74 67.7265 107.267 57.6268C106.603 54.9145 102.415 56.0635 103.08 58.7807C105.053 66.8384 95.4057 75.5052 89.3043 78.6352C78.7473 84.0515 63.634 84.0102 55.5961 74.1928C53.8248 72.0302 50.7691 75.1173 52.5272 77.2617V77.2633Z" fill="white"/>
<path d="M65.1479 48.8825C65.1479 47.1065 63.7081 45.6667 61.9321 45.6667C60.1561 45.6667 58.7163 47.1065 58.7163 48.8825V52.9386C58.7163 54.7146 60.1561 56.1544 61.9321 56.1544C63.7081 56.1544 65.1479 54.7146 65.1479 52.9386V48.8825Z" fill="white"/>
<path d="M90.9765 48.8825C90.9765 47.1065 89.5368 45.6667 87.7607 45.6667C85.9847 45.6667 84.5449 47.1065 84.5449 48.8825V52.9386C84.5449 54.7146 85.9847 56.1544 87.7607 56.1544C89.5368 56.1544 90.9765 54.7146 90.9765 52.9386V48.8825Z" fill="white"/>
</g>
<defs>
<filter id="filter0_d_73_1625" x="0.333336" y="0.666668" width="153.333" height="153.333" filterUnits="userSpaceOnUse" color-interpolation-filters="sRGB">
<feFlood flood-opacity="0" result="BackgroundImageFix"/>
<feColorMatrix in="SourceAlpha" type="matrix" values="0 0 0 0 0 0 0 0 0 0 0 0 0 0 0 0 0 0 127 0" result="hardAlpha"/>
<feOffset dy="13.3333"/>
<feGaussianBlur stdDeviation="13.3333"/>
<feComposite in2="hardAlpha" operator="out"/>
<feColorMatrix type="matrix" values="0 0 0 0 0.266667 0 0 0 0 0.298039 0 0 0 0 0.32549 0 0 0 0.16 0"/>
<feBlend mode="normal" in2="BackgroundImageFix" result="effect1_dropShadow_73_1625"/>
<feBlend mode="normal" in="SourceGraphic" in2="effect1_dropShadow_73_1625" result="shape"/>
</filter>
</defs>
</svg>
