<svg width="272" height="289" viewBox="0 0 272 289" fill="none" xmlns="http://www.w3.org/2000/svg">
<g filter="url(#filter0_b_78_3243)">
<path d="M236.697 45.7661C239.505 47.3691 240.491 50.9306 238.899 53.7231L237.745 55.7477C236.725 57.5389 236.733 59.7396 237.767 61.5338L238.904 63.5064C240.498 66.2724 239.58 69.7905 236.84 71.4111L234.539 72.7721C232.804 73.7985 231.729 75.6483 231.695 77.6637L231.652 80.2068C231.6 83.318 229.106 85.8277 225.986 85.9088L223.036 85.9855C221.062 86.0369 219.253 87.0778 218.225 88.7533L216.722 91.202C215.116 93.8205 211.738 94.7336 209.007 93.288L206.452 91.9362C204.704 91.0111 202.611 91.0254 200.885 91.9742L198.306 93.3925C195.579 94.8922 192.14 93.9865 190.493 91.3347L189.146 89.1672C188.079 87.4494 186.201 86.3983 184.179 86.3877L181.497 86.3737C178.305 86.357 175.702 83.7908 175.65 80.608L175.612 78.3381C175.579 76.2735 174.452 74.3751 172.651 73.3468L170.615 72.1846C167.807 70.5816 166.821 67.02 168.413 64.2276L169.566 62.2029C170.587 60.4117 170.579 58.211 169.545 56.4169L168.408 54.4443C166.814 51.6783 167.732 48.1601 170.472 46.5395L172.773 45.1786C174.508 44.1522 175.583 42.3024 175.617 40.2869L175.66 37.7439C175.712 34.6326 178.205 32.123 181.325 32.0419L184.276 31.9651C186.25 31.9138 188.059 30.8729 189.087 29.1973L190.59 26.7487C192.196 24.1301 195.574 23.217 198.305 24.6627L200.859 26.0145C202.607 26.9395 204.701 26.9252 206.426 25.9765L209.005 24.5582C211.733 23.0585 215.172 23.9641 216.819 26.6159L218.165 28.7834C219.232 30.5013 221.111 31.5524 223.133 31.5629L225.814 31.577C229.007 31.5937 231.61 34.1598 231.662 37.3427L231.699 39.6126C231.733 41.6772 232.86 43.5756 234.661 44.6038L236.697 45.7661Z" fill="#0073FE" fill-opacity="0.4"/>
</g>
<path d="M201.146 48.1872C201.351 47.8721 201.641 47.6639 202.015 47.5627C202.39 47.4614 202.747 47.4947 203.086 47.6626L207.919 50.3203L208.991 48.5085L208.473 48.2237C208.128 48.0339 207.905 47.7578 207.805 47.3956C207.704 47.0333 207.754 46.6837 207.953 46.3466C208.159 46.0315 208.449 45.8233 208.823 45.7221C209.198 45.6208 209.543 45.6572 209.86 45.8312L213.312 47.7295C213.657 47.9194 213.88 48.1954 213.98 48.5577C214.081 48.9199 214.031 49.2696 213.832 49.6067C213.655 49.9376 213.374 50.1552 212.988 50.2595C212.602 50.3638 212.248 50.318 211.925 50.122L211.408 49.8373L210.336 51.6491L215.169 54.3067C215.514 54.4965 215.737 54.7726 215.837 55.1348C215.938 55.4971 215.888 55.8468 215.689 56.1838C215.489 56.5209 215.202 56.7401 214.828 56.8413C214.453 56.9425 214.094 56.8982 213.748 56.7084L212.617 56.0585L211.072 58.6709L206.23 55.9803C205.89 55.8124 205.534 55.7791 205.159 55.8803C204.785 55.9816 204.495 56.1898 204.289 56.5049C204.09 56.842 204.04 57.1916 204.141 57.5539C204.241 57.9161 204.464 58.1922 204.809 58.382L209.676 61.0304L208.19 63.5915L203.313 60.9101C202.968 60.7203 202.608 60.676 202.234 60.7772C201.859 60.8784 201.573 61.0976 201.373 61.4347C201.19 61.7436 201.155 62.0777 201.266 62.4369C201.378 62.7961 201.595 63.0737 201.918 63.2696L206.785 65.9181L205.265 68.4883C204.882 69.1344 204.311 69.5602 203.551 69.7657C202.791 69.9712 202.08 69.8921 201.418 69.5282L200.176 68.873L196.347 75.3947C196.18 75.6756 195.946 75.798 195.643 75.7619C195.341 75.7257 195.147 75.5539 195.062 75.2466L194.688 73.8964C194.615 73.6329 194.6 73.3596 194.644 73.0765C194.688 72.7933 194.776 72.5394 194.909 72.3147L197.75 67.5113L196.508 66.8561C195.846 66.4922 195.413 65.9426 195.21 65.2071C195.006 64.4716 195.096 63.7808 195.478 63.1348L202.83 50.705L201.665 50.0643C201.343 49.8683 201.131 49.5892 201.031 49.227C200.931 48.8647 200.969 48.5181 201.146 48.1872Z" fill="white"/>
<g filter="url(#filter1_b_78_3243)">
<path d="M50.0861 10.7257C50.7459 7.56634 53.7376 5.50165 56.816 6.08112L58.8255 6.45937C60.7986 6.83078 62.8292 6.11543 64.1828 4.57201L65.546 3.01765C67.6487 0.620264 71.2076 0.360203 73.5697 2.43135L75.216 3.87483C76.7225 5.19577 78.7949 5.61506 80.696 4.98357L82.7297 4.30806C85.6841 3.3267 88.8382 4.91235 89.8718 7.89863L90.6338 10.1C91.2927 12.0038 92.8576 13.4171 94.7809 13.8457L96.9825 14.3362C99.9862 15.0054 101.919 17.9924 101.368 21.1148L100.964 23.4034C100.611 25.4027 101.276 27.4369 102.727 28.7942L104.404 30.3638C106.68 32.4929 106.891 36.1095 104.883 38.5533L103.5 40.2354C102.208 41.8078 101.79 43.9459 102.395 45.889L103.056 48.0123C104.005 51.059 102.41 54.3556 99.4609 55.4445L97.5488 56.1505C95.6502 56.8516 94.2333 58.5154 93.8104 60.5404L93.3797 62.6027C92.7199 65.7621 89.7282 67.8267 86.6497 67.2473L84.6403 66.869C82.6671 66.4976 80.6366 67.213 79.283 68.7564L77.9197 70.3107C75.8171 72.7081 72.2582 72.9682 69.8961 70.897L68.2498 69.4536C66.7433 68.1326 64.6709 67.7133 62.7698 68.3448L60.7361 69.0203C57.7816 70.0017 54.6276 68.416 53.594 65.4298L52.832 63.2284C52.1731 61.3246 50.6082 59.9113 48.6848 59.4827L46.4833 58.9922C43.4796 58.323 41.5473 55.336 42.0982 52.2136L42.502 49.925C42.8548 47.9257 42.1894 45.8915 40.7388 44.5342L39.0613 42.9646C36.7857 40.8355 36.5745 37.2189 38.583 34.7751L39.9655 33.093C41.2579 31.5205 41.6759 29.3825 41.071 27.4394L40.4098 25.3161C39.4612 22.2694 41.0559 18.9728 44.0049 17.8839L45.917 17.1779C47.8155 16.4768 49.2325 14.813 49.6554 12.788L50.0861 10.7257Z" fill="#90C9F6" fill-opacity="0.4"/>
<path d="M75.6274 34.1962C76.4279 35.4337 75.7645 38.1871 73.9306 39.4528C72.0966 40.7184 69.5842 40.1568 68.7836 38.9193C67.9831 37.6817 68.818 35.6503 70.652 34.3846C72.486 33.1189 74.8238 32.9539 75.6274 34.1962Z" fill="white"/>
<path d="M73.0966 34.7671C73.0866 34.8969 73.0827 35.0363 73.136 35.1498C73.2015 35.2822 73.3367 35.3666 73.4611 35.4447C74.0126 35.7678 74.5933 36.1049 75.2298 36.1233C76.1838 36.155 77.0929 35.4114 77.3744 34.4657C77.4011 34.3721 77.4201 34.2769 77.4068 34.1837C77.3798 34.0588 77.2832 33.9615 77.213 33.8529C77.0128 33.5538 76.9996 33.1597 76.835 32.8429C76.4127 32.0344 75.1659 31.7266 74.3931 32.0891C73.4889 32.5082 73.1776 33.823 73.0966 34.7671Z" fill="white"/>
<path d="M74.0153 31.8171C73.9478 31.7543 73.8727 31.6901 73.7849 31.6686C73.6818 31.6442 73.5767 31.6894 73.4732 31.7266C73.0421 31.9012 72.5955 32.0932 72.2913 32.4535C71.835 32.9939 71.8316 33.8502 72.2244 34.4263C72.2611 34.483 72.3054 34.5412 72.3638 34.5692C72.4438 34.6097 72.5425 34.5962 72.6334 34.6018C72.8861 34.6187 73.1133 34.783 73.3643 34.8284C74.0018 34.9418 74.7405 34.3501 74.8982 33.7425C75.0811 33.0287 74.4967 32.2706 74.0169 31.8092L74.0153 31.8171Z" fill="white"/>
<path d="M69.3524 34.0241C69.304 34.1464 69.2539 34.2766 69.2685 34.4031C69.2862 34.5549 69.3887 34.6823 69.4867 34.7923C69.9077 35.2874 70.3518 35.8076 70.9531 36.0417C71.8543 36.3967 72.9573 35.9839 73.5201 35.172C73.576 35.0924 73.6289 35.008 73.6403 34.9114C73.6549 34.7783 73.5955 34.6553 73.5608 34.529C73.4673 34.1768 73.5805 33.7912 73.5209 33.4292C73.3814 32.5075 72.288 31.7932 71.4381 31.881C70.4418 31.9811 69.726 33.1377 69.3494 34.0194L69.3524 34.0241Z" fill="white"/>
<path d="M68.4434 33.5241C68.3291 33.5757 68.2085 33.6384 68.1354 33.7435C68.0468 33.8661 68.0382 34.0292 68.0357 34.1812C68.0088 34.8352 67.9879 35.5191 68.2666 36.1057C68.6792 36.9823 69.7309 37.4453 70.6647 37.2381C70.7527 37.2184 70.8499 37.1923 70.9181 37.1316C71.0157 37.0437 71.0535 36.9152 71.1127 36.7991C71.278 36.4733 71.606 36.2743 71.8035 35.9671C72.3059 35.1968 71.9926 33.9236 71.3328 33.402C70.5595 32.7879 69.2965 33.1403 68.4511 33.5256L68.4434 33.5241Z" fill="white"/>
<path d="M69.3225 34.3319C69.2181 34.2536 69.1045 34.1817 68.975 34.1686C68.8256 34.1556 68.6864 34.2311 68.5519 34.3035C67.9797 34.6232 67.3874 34.9637 67.0204 35.5176C66.4745 36.3452 66.6079 37.5376 67.2495 38.2699C67.3107 38.3438 67.3812 38.4113 67.4704 38.4453C67.5935 38.4902 67.7247 38.4543 67.8542 38.4469C68.2104 38.4265 68.5485 38.6169 68.9091 38.6344C69.8198 38.6823 70.7502 37.7328 70.8677 36.8659C71.0077 35.847 70.0745 34.8923 69.3225 34.3319Z" fill="white"/>
<path d="M69.0514 35.5433C68.9069 35.4654 68.7455 35.3923 68.579 35.4048C68.3847 35.4159 68.219 35.5439 68.0595 35.6607C67.3829 36.1824 66.6845 36.7327 66.3162 37.5129C65.7699 38.6825 66.1589 40.1767 67.1238 40.9934C67.2158 41.0733 67.3171 41.1469 67.4403 41.1712C67.6019 41.2031 67.7688 41.1289 67.9355 41.0958C68.3908 41.0003 68.8599 41.1752 69.3211 41.1303C70.4963 41.016 71.5172 39.6146 71.5114 38.4845C71.4976 37.155 70.1225 36.109 69.0514 35.5433Z" fill="white"/>
<path d="M67.7035 40.2182C67.6749 40.3609 67.6524 40.5131 67.7009 40.6504C67.7571 40.8098 67.8951 40.9194 68.0271 41.0196C68.5965 41.4534 69.2028 41.9026 69.905 42.0124C70.9616 42.1714 72.0632 41.4658 72.4899 40.454C72.5336 40.3555 72.5666 40.2507 72.5595 40.1463C72.5449 39.9992 72.4531 39.8781 72.386 39.7536C72.2016 39.3958 72.2381 38.9539 72.0938 38.5752C71.7294 37.6174 70.382 37.1125 69.4786 37.4081C68.4206 37.7556 67.9084 39.175 67.7035 40.2182Z" fill="white"/>
<path d="M69.7275 39.4423C69.6528 39.5553 69.5812 39.673 69.5743 39.8076C69.5672 39.9628 69.6388 40.1047 69.7167 40.2354C70.0417 40.8105 70.382 41.4092 70.9318 41.7607C71.755 42.2858 72.9137 42.0941 73.6253 41.3981C73.695 41.3295 73.7617 41.2561 73.7885 41.1625C73.8262 41.034 73.7931 40.8997 73.78 40.7652C73.7498 40.3967 73.9337 40.0374 73.9436 39.6685C73.9722 38.7265 73.031 37.8114 72.1791 37.7299C71.1777 37.6353 70.2639 38.6417 69.7275 39.4423Z" fill="white"/>
<path d="M71.7234 40.7843C71.7427 40.9282 71.7696 41.0736 71.8552 41.1853C71.9578 41.3126 72.1224 41.3698 72.2732 41.4161C72.9394 41.6258 73.6457 41.8352 74.3371 41.6997C75.3741 41.4964 76.1708 40.4752 76.2464 39.3982C76.2517 39.2921 76.2569 39.186 76.2128 39.0866C76.155 38.9557 76.0306 38.8776 75.9263 38.7788C75.6396 38.5121 75.5357 38.0919 75.2831 37.7948C74.6401 37.0293 73.2251 37.022 72.4818 37.5964C71.6101 38.2732 71.5861 39.7518 71.7204 40.7796L71.7234 40.7843Z" fill="white"/>
<path d="M74.6785 36.2378C74.5861 36.2196 74.4891 36.2045 74.398 36.2401C74.2945 36.2774 74.223 36.3745 74.1562 36.4685C73.8733 36.8618 73.578 37.2774 73.5028 37.7529C73.3908 38.4724 73.8381 39.2158 74.487 39.4922C74.5501 39.517 74.6208 39.5433 74.6825 39.5349C74.7766 39.5246 74.8541 39.4575 74.9391 39.4125C75.1726 39.2855 75.453 39.3038 75.6972 39.2036C76.3168 38.9468 76.6536 38.0243 76.4675 37.4149C76.2543 36.7012 75.3406 36.3684 74.6739 36.241L74.6785 36.2378Z" fill="white"/>
<path d="M73.8643 36.8267C73.8575 36.9407 73.8537 37.0595 73.9009 37.1635C73.9573 37.2818 74.0786 37.3552 74.1892 37.4223C74.6731 37.7032 75.1879 37.9902 75.7489 38.0061C76.5888 38.0277 77.3819 37.3642 77.6195 36.5375C77.643 36.4598 77.6605 36.3726 77.6456 36.2872C77.62 36.1751 77.5373 36.0887 77.4715 35.9974C77.2958 35.7361 77.2808 35.3912 77.1329 35.1106C76.7548 34.4015 75.6588 34.1399 74.9817 34.4637C74.1903 34.839 73.9231 35.9936 73.8643 36.8267Z" fill="white"/>
<path d="M73.7119 33.7349C73.6451 33.8289 73.5813 33.9275 73.5698 34.0448C73.5552 34.1778 73.6176 34.3055 73.6786 34.4206C73.9408 34.9297 74.2229 35.4592 74.6912 35.7782C75.3882 36.2536 76.3987 36.1234 77.0309 35.5436C77.0945 35.486 77.155 35.4238 77.1785 35.3461C77.2162 35.2381 77.1922 35.118 77.1836 35.0009C77.1716 34.6813 77.3368 34.376 77.3571 34.0545C77.4081 33.2405 76.6175 32.4129 75.8797 32.3208C75.014 32.2077 74.1921 33.055 73.7088 33.7302L73.7119 33.7349Z" fill="white"/>
<path d="M59.6433 51.1139C67.7743 55.8022 78.2964 51.5916 84.1435 44.852C88.0184 40.3826 91.7414 31.4966 87.9671 25.9211C86.9569 24.4244 84.7055 26.1358 85.7228 27.6357C88.7324 32.0855 84.9224 39.7071 81.9784 43.0942C76.8852 48.9508 67.8223 52.568 60.7831 48.5017C59.2316 47.6073 58.1009 50.2279 59.6401 51.1213L59.6433 51.1139Z" fill="white"/>
<path d="M58.3554 31.1743L58.3507 31.1775C57.4019 31.8323 57.139 33.1455 57.7634 34.1107L59.1933 36.3213C59.8177 37.2865 61.093 37.5381 62.0418 36.8833L62.0464 36.8801C62.9952 36.2253 63.2582 34.9121 62.6338 33.9469L61.2038 31.7364C60.5794 30.7712 59.3041 30.5195 58.3554 31.1743Z" fill="white"/>
<path d="M72.1642 21.6445L72.1595 21.6477C71.2108 22.3025 70.9478 23.6157 71.5722 24.5809L73.0022 26.7914C73.6266 27.7566 74.9018 28.0083 75.8506 27.3535L75.8553 27.3503C76.804 26.6955 77.067 25.3822 76.4426 24.4171L75.0126 22.2065C74.3883 21.2413 73.113 20.9897 72.1642 21.6445Z" fill="white"/>
</g>
<path d="M96.9193 158.696C75.5838 182.199 66.3379 211.767 52.3345 221.234C45.8093 218.743 41.2314 216.687 37.7828 221.234C35.5385 224.776 37.6317 230.433 39.7376 231.897C38.0313 233.913 36.6172 236.037 35.618 238.321C28.2858 255.087 36.2175 268.532 53.9254 268.141C92.3617 267.291 130.79 186.201 130.79 186.201" fill="#E9ECF2"/>
<path d="M177.273 141.529C186.865 139.722 206.815 104.699 210.505 88.2266C205.79 83.0925 201.661 75.007 205.902 69.2166C209.638 64.1157 216.324 67.7984 218.465 69.2166C219.714 66.8934 221.183 64.795 222.948 63.0324C235.893 50.0653 252.183 52.182 257.476 69.0387C276.646 130.059 196.846 189.137 196.846 189.137" fill="white"/>
<path d="M120.28 60.072C118.958 49.4292 109.239 41.8698 98.5707 43.1877C87.9024 44.5055 80.3254 54.2015 81.6469 64.8442L84.9135 91.1518C86.235 101.795 95.9546 109.354 106.623 108.036C117.291 106.718 124.868 97.0223 123.547 86.3796L120.28 60.072Z" fill="white"/>
<path d="M180.207 52.6745C178.885 42.0317 169.166 34.4723 158.497 35.7901C147.829 37.108 140.252 46.8039 141.574 57.4467L144.84 83.7543C146.162 94.3971 155.881 101.956 166.55 100.639C177.218 99.3208 184.795 89.6248 183.473 78.9821L180.207 52.6745Z" fill="white"/>
<path d="M114.828 62.5383C113.894 55.0174 107.026 49.6753 99.4879 50.6065C91.9496 51.5377 86.5957 58.3895 87.5295 65.9105L89.8382 84.5038C90.7721 92.0248 97.6402 97.3668 105.178 96.4356C112.717 95.5044 118.071 88.6526 117.137 81.1317L114.828 62.5383Z" fill="#E9ECF2"/>
<path d="M174.755 55.1331C173.821 47.6121 166.953 42.2701 159.415 43.2013C151.876 44.1324 146.522 50.9843 147.456 58.5052L149.765 77.0986C150.699 84.6195 157.567 89.9615 165.105 89.0304C172.644 88.0992 177.998 81.2474 177.064 73.7264L174.755 55.1331Z" fill="#E9ECF2"/>
<path d="M203.374 179.432C202.114 162.667 196.841 157.277 196.418 153.161C191.968 110.431 188.946 108.631 186.647 93.6868C184.348 78.7428 179.564 64.1657 168.62 56.1109C158.823 48.9012 144.925 47.6324 138.592 47.8394L120.822 50.0318C98.5105 52.7916 82.6702 73.0601 85.4294 95.3142L92.6156 153.161C94.2603 166.384 91.3474 179.8 84.2612 191.099C84.2151 191.168 84.169 191.245 84.1305 191.314C59.3287 230.808 64.1169 288.532 64.1169 288.532H204.712C207.325 266.056 207.517 247.727 207.179 234.925C206.987 227.65 205.78 211.475 203.382 179.432H203.374Z" fill="white"/>
<path d="M141.066 90.9905C141.312 92.9836 138.853 95.8813 135.84 96.2569C132.827 96.6326 130.068 94.3788 129.822 92.3857C129.576 90.3925 131.813 88.4761 134.826 88.1005C137.838 87.7248 140.813 89.005 141.066 90.9982V90.9905Z" fill="black"/>
<path d="M137.607 90.0938C137.515 90.2471 137.431 90.4081 137.431 90.5844C137.431 90.7914 137.546 90.9754 137.661 91.144C138.145 91.88 138.66 92.6465 139.437 93.0758C140.597 93.7121 142.157 93.3901 143.064 92.4242C143.149 92.3322 143.233 92.2249 143.272 92.1023C143.318 91.9336 143.256 91.7573 143.233 91.581C143.164 91.098 143.379 90.6151 143.372 90.1245C143.341 88.8826 141.981 87.7327 140.812 87.6791C139.444 87.6177 138.276 89.0053 137.623 90.0938H137.607Z" fill="black"/>
<path d="M140.497 87.1118C140.451 86.9968 140.397 86.8742 140.305 86.7899C140.19 86.6979 140.036 86.6825 139.89 86.6672C139.252 86.6059 138.591 86.5522 137.999 86.7975C137.115 87.1655 136.601 88.1927 136.739 89.1356C136.754 89.2276 136.77 89.3196 136.831 89.3963C136.908 89.4959 137.039 89.5419 137.146 89.6109C137.454 89.7872 137.63 90.1322 137.907 90.3392C138.63 90.8758 139.89 90.6305 140.443 89.9942C141.089 89.2506 140.828 87.9704 140.513 87.1118H140.497Z" fill="black"/>
<path d="M133.434 86.8434C133.296 86.9584 133.158 87.081 133.104 87.2497C133.035 87.4413 133.088 87.656 133.135 87.8553C133.357 88.7215 133.596 89.6184 134.195 90.2854C135.094 91.2743 136.693 91.4736 137.877 90.8526C137.992 90.7913 138.107 90.7223 138.176 90.615C138.276 90.4693 138.276 90.2777 138.307 90.1014C138.399 89.6184 138.768 89.2275 138.914 88.7522C139.291 87.5563 138.369 86.0078 137.277 85.5785C135.994 85.0726 134.418 86.0155 133.427 86.8357L133.434 86.8434Z" fill="black"/>
<path d="M132.627 85.6704C132.45 85.6627 132.266 85.6627 132.112 85.7394C131.936 85.8313 131.828 86.023 131.728 86.1993C131.305 86.9736 130.875 87.7785 130.86 88.6601C130.844 89.9709 131.866 91.1898 133.135 91.5271C133.257 91.5578 133.388 91.5884 133.511 91.5578C133.68 91.5194 133.811 91.3814 133.949 91.2741C134.341 90.9905 134.871 90.9521 135.294 90.7068C136.37 90.0936 136.747 88.3611 136.247 87.3185C135.663 86.092 133.895 85.724 132.62 85.655L132.627 85.6704Z" fill="black"/>
<path d="M133.219 87.1961C133.134 87.0351 133.042 86.8741 132.896 86.7821C132.719 86.6748 132.496 86.6748 132.297 86.6825C131.405 86.7055 130.467 86.7438 129.691 87.1807C128.523 87.84 127.977 89.3502 128.331 90.6381C128.362 90.7607 128.408 90.891 128.5 90.983C128.623 91.1133 128.807 91.1517 128.969 91.2207C129.422 91.42 129.722 91.8646 130.152 92.1099C131.244 92.7385 132.958 92.1789 133.619 91.213C134.395 90.0708 133.818 88.3383 133.227 87.1884L133.219 87.1961Z" fill="black"/>
<path d="M132.158 88.4837C132.02 88.2998 131.874 88.1081 131.659 88.0161C131.413 87.9088 131.128 87.9548 130.867 88.0008C129.722 88.2001 128.531 88.4301 127.616 89.1353C126.248 90.2009 125.833 92.2477 126.532 93.8345C126.602 93.9878 126.678 94.1412 126.817 94.2485C127.001 94.3865 127.247 94.4095 127.47 94.4708C128.093 94.6394 128.561 95.1454 129.161 95.383C130.683 95.981 132.773 94.9461 133.434 93.5739C134.21 91.9641 133.142 89.8483 132.166 88.4837H132.158Z" fill="black"/>
<path d="M127.724 93.2674C127.601 93.4207 127.485 93.5893 127.462 93.7886C127.432 94.0186 127.539 94.2333 127.647 94.4402C128.093 95.3218 128.561 96.2417 129.368 96.8167C130.575 97.6752 132.35 97.5143 133.48 96.5637C133.588 96.4717 133.695 96.3644 133.749 96.2341C133.818 96.0501 133.772 95.8431 133.772 95.6514C133.757 95.1072 134.064 94.5936 134.111 94.0493C134.233 92.6617 132.873 91.2129 131.59 90.9983C130.076 90.7529 128.6 92.1405 127.724 93.2674Z" fill="black"/>
<path d="M130.667 93.6122C130.514 93.6965 130.352 93.7962 130.26 93.9495C130.152 94.1258 130.168 94.3481 130.175 94.5551C130.229 95.452 130.298 96.3872 130.767 97.1538C131.467 98.3037 133.011 98.802 134.295 98.4034C134.418 98.365 134.549 98.3191 134.641 98.2271C134.764 98.0967 134.802 97.9128 134.871 97.7441C135.056 97.2842 135.494 96.9699 135.724 96.5252C136.324 95.4137 135.709 93.7119 134.702 93.0833C133.526 92.3397 131.797 92.9759 130.66 93.6045L130.667 93.6122Z" fill="black"/>
<path d="M132.327 96.4793C132.266 96.6633 132.212 96.8549 132.25 97.0466C132.297 97.2689 132.466 97.4375 132.627 97.5908C133.326 98.2654 134.064 98.963 134.994 99.2313C136.385 99.6376 137.984 98.9094 138.722 97.6598C138.791 97.5372 138.86 97.4069 138.86 97.2689C138.86 97.0772 138.76 96.9009 138.691 96.7169C138.499 96.211 138.614 95.6437 138.484 95.1224C138.145 93.8039 136.408 92.8917 135.148 93.1216C133.672 93.3823 132.758 95.1531 132.312 96.4793H132.327Z" fill="black"/>
<path d="M138.683 92.8534C138.584 92.7767 138.468 92.7001 138.338 92.6847C138.184 92.6694 138.046 92.7384 137.907 92.8074C137.323 93.0987 136.716 93.413 136.339 93.9496C135.771 94.7469 135.886 95.9197 136.516 96.6633C136.578 96.7323 136.647 96.809 136.731 96.8396C136.854 96.8856 136.985 96.855 137.116 96.855C137.477 96.8473 137.815 97.0466 138.176 97.0773C139.091 97.154 140.052 96.257 140.19 95.4061C140.351 94.4096 139.429 93.436 138.676 92.8611L138.683 92.8534Z" fill="black"/>
<path d="M137.323 93.0527C137.246 93.183 137.169 93.3287 137.169 93.482C137.169 93.6583 137.277 93.8193 137.377 93.9726C137.807 94.6165 138.268 95.2835 138.945 95.6591C139.967 96.211 141.335 95.9121 142.127 95.0612C142.204 94.9768 142.28 94.8848 142.304 94.7775C142.342 94.6242 142.288 94.4709 142.265 94.3176C142.204 93.8959 142.388 93.4667 142.373 93.0374C142.334 91.9488 141.135 90.9446 140.113 90.9063C138.914 90.8603 137.9 92.0868 137.323 93.045V93.0527Z" fill="black"/>
<path d="M138.975 89.235C138.837 89.304 138.699 89.3883 138.614 89.5186C138.522 89.672 138.522 89.8636 138.522 90.0399C138.545 90.8142 138.576 91.6268 138.952 92.309C139.521 93.3209 140.851 93.8039 141.973 93.4972C142.08 93.4666 142.196 93.4282 142.273 93.3516C142.388 93.2443 142.419 93.0833 142.488 92.9453C142.665 92.5543 143.049 92.286 143.264 91.9181C143.817 90.9675 143.333 89.4803 142.48 88.9054C141.481 88.2308 139.967 88.7291 138.96 89.2427L138.975 89.235Z" fill="black"/>
<path d="M114.873 105.265C124.234 114.165 139.583 112.655 149.643 105.809C156.146 101.386 164.339 91.0598 161.08 82.497C160.211 80.2126 156.491 81.2015 157.375 83.5166C160.004 90.4082 152.848 98.9863 147.707 102.497C139.145 108.362 125.718 110.278 117.594 102.551C115.803 100.849 113.082 103.555 114.873 105.265Z" fill="black"/>
<path d="M119.882 76.7186L119.874 76.7196C118.316 76.9121 117.208 78.3284 117.402 79.883L117.844 83.4435C118.037 84.9981 119.457 86.1023 121.015 85.9097L121.023 85.9088C122.582 85.7163 123.689 84.2999 123.496 82.7453L123.053 79.1849C122.86 77.6303 121.44 76.5261 119.882 76.7186Z" fill="black"/>
<path d="M142.568 73.92L142.56 73.921C141.002 74.1135 139.895 75.5299 140.088 77.0845L140.53 80.6449C140.723 82.1995 142.143 83.3037 143.702 83.1111L143.709 83.1102C145.268 82.9177 146.375 81.5013 146.182 79.9467L145.74 76.3863C145.547 74.8317 144.127 73.7275 142.568 73.92Z" fill="black"/>
<g filter="url(#filter2_b_78_3243)">
<path d="M242.748 192.666C245.705 191.54 249.039 193.062 250.223 196.077L251.103 198.317C251.862 200.25 253.557 201.652 255.566 202.009L257.853 202.415C260.963 202.968 263.108 205.942 262.681 209.109L262.33 211.715C262.058 213.728 262.83 215.758 264.371 217.082L266.298 218.738C268.685 220.789 269.09 224.365 267.217 226.848L265.539 229.07C264.349 230.647 264.038 232.745 264.714 234.637L265.651 237.262C266.706 240.219 265.317 243.463 262.489 244.648L259.977 245.7C258.167 246.458 256.874 248.107 256.545 250.077L256.082 252.854C255.565 255.956 252.731 258.054 249.654 257.612L247.171 257.255C245.185 256.97 243.212 257.747 241.952 259.31L240.322 261.332C238.341 263.79 234.767 264.154 232.277 262.152L230.447 260.68C228.838 259.386 226.694 259.035 224.798 259.757L222.6 260.594C219.644 261.719 216.31 260.198 215.126 257.183L214.246 254.942C213.487 253.009 211.792 251.608 209.782 251.25L207.496 250.844C204.385 250.292 202.24 247.318 202.668 244.15L203.019 241.545C203.291 239.531 202.518 237.502 200.977 236.177L199.05 234.522C196.663 232.471 196.258 228.895 198.132 226.412L199.809 224.189C200.999 222.612 201.31 220.515 200.635 218.622L199.698 215.997C198.643 213.04 200.032 209.796 202.86 208.612L205.371 207.56C207.182 206.801 208.475 205.152 208.803 203.182L209.267 200.405C209.784 197.304 212.618 195.206 215.694 195.648L218.177 196.004C220.163 196.289 222.137 195.513 223.396 193.95L225.026 191.928C227.008 189.47 230.582 189.105 233.071 191.108L234.902 192.58C236.51 193.874 238.655 194.224 240.551 193.503L242.748 192.666Z" fill="#90C9F6" fill-opacity="0.4"/>
<path d="M236.861 228.814C236.281 230.169 233.668 231.054 231.641 230.129C229.614 229.204 228.716 226.717 229.296 225.362C229.876 224.007 231.99 223.655 234.017 224.58C236.044 225.505 237.443 227.454 236.861 228.814Z" fill="white"/>
<path d="M235.025 226.913C234.914 226.973 234.797 227.044 234.733 227.151C234.66 227.278 234.664 227.441 234.668 227.59C234.701 228.243 234.739 228.927 235.068 229.492C235.558 230.34 236.658 230.736 237.584 230.479C237.675 230.453 237.763 230.419 237.833 230.357C237.92 230.268 237.948 230.132 237.999 230.013C238.135 229.679 238.451 229.459 238.621 229.147C239.054 228.349 238.632 227.1 237.918 226.619C237.086 226.054 235.842 226.482 235.025 226.913Z" fill="white"/>
<path d="M237.936 226.146C237.951 226.053 237.963 225.954 237.933 225.866C237.897 225.763 237.803 225.696 237.717 225.625C237.341 225.343 236.943 225.056 236.483 224.982C235.794 224.872 235.092 225.324 234.832 225.972C234.806 226.034 234.782 226.104 234.791 226.169C234.801 226.261 234.865 226.339 234.91 226.422C235.033 226.651 235.021 226.936 235.12 227.179C235.371 227.794 236.255 228.123 236.837 227.938C237.521 227.718 237.825 226.806 237.943 226.143L237.936 226.146Z" fill="white"/>
<path d="M233.61 223.256C233.483 223.279 233.35 223.305 233.254 223.385C233.139 223.481 233.09 223.638 233.053 223.782C232.876 224.411 232.69 225.075 232.823 225.723C233.02 226.696 233.954 227.438 234.923 227.497C235.018 227.503 235.116 227.504 235.201 227.463C235.318 227.405 235.386 227.288 235.471 227.19C235.709 226.922 236.086 226.816 236.35 226.571C237.029 225.96 237.022 224.628 236.491 223.934C235.87 223.12 234.537 223.111 233.612 223.251L233.61 223.256Z" fill="white"/>
<path d="M233.527 222.199C233.423 222.127 233.307 222.055 233.181 222.047C233.033 222.035 232.895 222.114 232.769 222.193C232.219 222.517 231.648 222.862 231.319 223.417C230.825 224.242 231.014 225.404 231.688 226.107C231.752 226.174 231.826 226.244 231.913 226.272C232.037 226.31 232.163 226.274 232.29 226.264C232.646 226.235 232.986 226.415 233.344 226.424C234.246 226.452 235.119 225.503 235.189 224.651C235.274 223.651 234.303 222.738 233.53 222.206L233.527 222.199Z" fill="white"/>
<path d="M233.341 223.394C233.349 223.261 233.346 223.124 233.287 223.004C233.217 222.867 233.08 222.786 232.948 222.707C232.377 222.379 231.778 222.044 231.127 222.018C230.154 221.983 229.25 222.732 228.998 223.68C228.97 223.773 228.953 223.87 228.974 223.966C229.003 224.097 229.104 224.192 229.18 224.301C229.389 224.601 229.416 224.996 229.597 225.32C230.05 226.139 231.33 226.444 232.103 226.086C233.012 225.667 233.289 224.347 233.341 223.394Z" fill="white"/>
<path d="M232.204 223.802C232.189 223.634 232.162 223.455 232.062 223.317C231.948 223.153 231.753 223.077 231.571 223C230.779 222.688 229.951 222.372 229.113 222.466C227.861 222.611 226.848 223.744 226.701 225.019C226.685 225.141 226.68 225.269 226.727 225.389C226.788 225.546 226.939 225.652 227.056 225.78C227.38 226.126 227.491 226.628 227.777 227.005C228.506 227.968 230.204 228.113 231.126 227.507C232.207 226.789 232.32 225.035 232.204 223.802Z" fill="white"/>
<path d="M227.648 225.111C227.516 225.162 227.38 225.224 227.293 225.339C227.193 225.472 227.178 225.651 227.167 225.819C227.12 226.546 227.08 227.312 227.37 227.982C227.811 228.987 228.984 229.572 230.043 229.406C230.147 229.392 230.251 229.365 230.332 229.303C230.445 229.212 230.494 229.068 230.56 228.943C230.753 228.593 231.134 228.39 231.366 228.063C231.953 227.236 231.638 225.794 230.908 225.164C230.052 224.428 228.613 224.735 227.648 225.111Z" fill="white"/>
<path d="M229.378 226.462C229.245 226.457 229.11 226.457 228.996 226.523C228.865 226.599 228.788 226.737 228.723 226.874C228.428 227.463 228.122 228.078 228.131 228.743C228.147 229.739 228.93 230.647 229.884 230.897C229.978 230.921 230.074 230.94 230.165 230.914C230.291 230.878 230.383 230.778 230.486 230.695C230.771 230.473 231.165 230.443 231.472 230.255C232.258 229.779 232.499 228.473 232.105 227.688C231.641 226.765 230.323 226.504 229.378 226.462Z" fill="white"/>
<path d="M229.358 228.914C229.251 229.007 229.146 229.108 229.101 229.242C229.052 229.399 229.094 229.573 229.138 229.729C229.327 230.42 229.537 231.147 230.022 231.677C230.749 232.473 232.015 232.624 232.937 232.117C233.027 232.066 233.117 232.014 233.174 231.923C233.25 231.803 233.247 231.653 233.271 231.509C233.335 231.118 233.622 230.804 233.729 230.426C234.008 229.459 233.249 228.223 232.377 227.881C231.352 227.481 230.129 228.246 229.36 228.909L229.358 228.914Z" fill="white"/>
<path d="M234.677 229.072C234.642 228.982 234.602 228.89 234.524 228.829C234.437 228.759 234.319 228.748 234.206 228.74C233.731 228.703 233.231 228.666 232.802 228.853C232.152 229.138 231.786 229.923 231.91 230.635C231.924 230.703 231.941 230.779 231.981 230.828C232.04 230.904 232.137 230.936 232.22 230.986C232.45 231.122 232.587 231.376 232.8 231.536C233.346 231.939 234.283 231.742 234.681 231.256C235.15 230.691 234.928 229.718 234.672 229.07L234.677 229.072Z" fill="white"/>
<path d="M233.754 228.676C233.657 228.73 233.558 228.79 233.498 228.887C233.432 228.999 233.438 229.143 233.442 229.275C233.474 229.846 233.518 230.447 233.808 230.944C234.244 231.687 235.216 232.026 236.021 231.793C236.097 231.772 236.178 231.741 236.24 231.683C236.318 231.601 236.344 231.483 236.383 231.377C236.502 231.085 236.776 230.889 236.926 230.611C237.302 229.905 236.923 228.811 236.292 228.394C235.557 227.904 234.468 228.284 233.754 228.676Z" fill="white"/>
<path d="M236.203 226.9C236.09 226.892 235.975 226.889 235.872 226.941C235.756 226.999 235.685 227.121 235.624 227.236C235.349 227.734 235.068 228.262 235.06 228.839C235.048 229.699 235.7 230.51 236.517 230.752C236.598 230.777 236.682 230.797 236.758 230.776C236.867 230.751 236.952 230.667 237.043 230.597C237.298 230.417 237.638 230.398 237.912 230.245C238.605 229.857 238.855 228.729 238.532 228.037C238.157 227.223 237.019 226.957 236.205 226.895L236.203 226.9Z" fill="white"/>
<path d="M214.374 223.88C214.932 233.454 224.066 240.382 232.743 241.894C238.495 242.895 247.78 241.416 250.303 235.166C250.982 233.491 248.364 232.439 247.687 234.122C245.672 239.108 237.374 239.839 233.011 239.074C225.464 237.75 217.605 231.777 217.128 223.485C217.021 221.658 214.265 222.066 214.366 223.881L214.374 223.88Z" fill="white"/>
<path d="M229.997 212.163L229.992 212.16C228.943 211.682 227.726 212.151 227.274 213.207L226.238 215.628C225.785 216.684 226.269 217.929 227.318 218.407L227.323 218.41C228.371 218.888 229.588 218.42 230.041 217.363L231.077 214.943C231.529 213.886 231.046 212.641 229.997 212.163Z" fill="white"/>
<path d="M245.261 219.128L245.256 219.125C244.207 218.647 242.99 219.115 242.538 220.172L241.502 222.592C241.049 223.649 241.533 224.894 242.581 225.372L242.587 225.375C243.635 225.853 244.852 225.384 245.305 224.328L246.341 221.907C246.793 220.851 246.31 219.606 245.261 219.128Z" fill="white"/>
</g>
<g filter="url(#filter3_b_78_3243)">
<path d="M29.0022 137.008C31.062 134.516 34.7396 134.154 37.2187 136.2L39.0161 137.683C40.6063 138.995 42.776 139.363 44.7206 138.651L46.8586 137.868C49.8566 136.771 53.1657 138.278 54.2938 141.254L55.2411 143.754C55.9556 145.639 57.5941 147.015 59.5741 147.393L62.0724 147.87C65.1288 148.454 67.1749 151.34 66.7212 154.428L66.292 157.348C66.005 159.301 66.721 161.262 68.196 162.562L70.3516 164.461C72.6567 166.492 72.9786 169.975 71.087 172.419L69.3181 174.705C68.1077 176.269 67.7637 178.334 68.4034 180.196L69.3595 182.98C70.3706 185.924 68.89 189.157 65.9955 190.326L63.6296 191.282C61.7546 192.04 60.3976 193.711 60.0413 195.701L59.5688 198.34C59.0062 201.483 56.0327 203.609 52.8878 203.116L50.6449 202.764C48.605 202.444 46.5419 203.229 45.2207 204.828L43.7273 206.635C41.6676 209.128 37.9899 209.49 35.5108 207.444L33.7134 205.961C32.1232 204.649 29.9536 204.28 28.0089 204.992L25.8709 205.775C22.873 206.873 19.5638 205.366 18.4358 202.389L17.4884 199.89C16.774 198.005 15.1355 196.629 13.1555 196.25L10.6572 195.774C7.60071 195.19 5.55463 192.304 6.0084 189.216L6.43751 186.296C6.72458 184.342 6.00853 182.382 4.53351 181.082L2.37796 179.183C0.0728578 177.152 -0.249054 173.668 1.64254 171.224L3.41141 168.939C4.62182 167.375 4.96586 165.31 4.3262 163.447L3.37004 160.664C2.35893 157.72 3.83954 154.487 6.73404 153.317L9.09991 152.362C10.975 151.604 12.3319 149.933 12.6882 147.942L13.1607 145.303C13.7233 142.16 16.6969 140.035 19.8418 140.528L22.0846 140.879C24.1246 141.199 26.1877 140.414 27.5089 138.815L29.0022 137.008Z" fill="#0073FE" fill-opacity="0.4"/>
</g>
<path d="M25.3067 172.45C25.0314 172.193 24.8758 171.872 24.8402 171.486C24.8045 171.099 24.8983 170.754 25.1218 170.448L28.567 166.141L26.9652 164.775L26.5961 165.236C26.35 165.544 26.0399 165.716 25.6659 165.753C25.2918 165.79 24.9558 165.681 24.6578 165.427C24.3825 165.171 24.2269 164.85 24.1913 164.463C24.1556 164.077 24.2505 163.743 24.4761 163.461L26.937 160.384C27.1831 160.076 27.4932 159.904 27.8672 159.867C28.2413 159.831 28.5773 159.939 28.8753 160.193C29.1712 160.424 29.3375 160.738 29.3742 161.136C29.411 161.534 29.3053 161.875 29.057 162.16L28.6879 162.621L30.2896 163.987L33.7349 159.68C33.981 159.372 34.2911 159.2 34.6651 159.163C35.0392 159.126 35.3752 159.235 35.6732 159.489C35.9712 159.743 36.1381 160.063 36.1738 160.449C36.2094 160.836 36.1042 161.182 35.8582 161.49L35.0244 162.493L37.3339 164.463L33.8546 168.774C33.6312 169.079 33.5373 169.425 33.573 169.811C33.6087 170.197 33.7642 170.519 34.0395 170.775C34.3375 171.029 34.6736 171.138 35.0476 171.101C35.4217 171.064 35.7318 170.892 35.9779 170.584L39.4199 166.242L41.6889 168.144L38.2129 172.49C37.9668 172.798 37.8616 173.145 37.8973 173.531C37.933 173.917 38.0998 174.237 38.3978 174.491C38.671 174.724 38.9941 174.817 39.367 174.768C39.74 174.72 40.0506 174.553 40.2989 174.269L43.7409 169.926L46.0132 171.864C46.5843 172.351 46.9062 172.987 46.9786 173.771C47.0511 174.555 46.8515 175.242 46.3798 175.832L45.5217 176.944L51.2923 181.832C51.5406 182.044 51.6211 182.296 51.5337 182.588C51.4463 182.88 51.2439 183.041 50.9265 183.073L49.5323 183.21C49.2602 183.237 48.9884 183.204 48.7169 183.113C48.4454 183.022 48.2103 182.891 48.0116 182.722L43.7651 179.101L42.907 180.213C42.4354 180.802 41.8198 181.135 41.0603 181.209C40.3009 181.284 39.6356 181.078 39.0644 180.591L28.0756 171.22L27.245 172.259C26.9968 172.543 26.6856 172.704 26.3115 172.74C25.9375 172.777 25.6025 172.68 25.3067 172.45Z" fill="white"/>
<defs>
<filter id="filter0_b_78_3243" x="119.345" y="-24.4449" width="168.621" height="166.84" filterUnits="userSpaceOnUse" color-interpolation-filters="sRGB">
<feFlood flood-opacity="0" result="BackgroundImageFix"/>
<feGaussianBlur in="BackgroundImageFix" stdDeviation="24.1402"/>
<feComposite in2="SourceAlpha" operator="in" result="effect1_backgroundBlur_78_3243"/>
<feBlend mode="normal" in="SourceGraphic" in2="effect1_backgroundBlur_78_3243" result="shape"/>
</filter>
<filter id="filter1_b_78_3243" x="-12.0258" y="-47.8213" width="171.326" height="173.959" filterUnits="userSpaceOnUse" color-interpolation-filters="sRGB">
<feFlood flood-opacity="0" result="BackgroundImageFix"/>
<feGaussianBlur in="BackgroundImageFix" stdDeviation="24.4276"/>
<feComposite in2="SourceAlpha" operator="in" result="effect1_backgroundBlur_78_3243"/>
<feBlend mode="normal" in="SourceGraphic" in2="effect1_backgroundBlur_78_3243" result="shape"/>
</filter>
<filter id="filter2_b_78_3243" x="147.59" y="140.96" width="169.659" height="173.67" filterUnits="userSpaceOnUse" color-interpolation-filters="sRGB">
<feFlood flood-opacity="0" result="BackgroundImageFix"/>
<feGaussianBlur in="BackgroundImageFix" stdDeviation="24.4276"/>
<feComposite in2="SourceAlpha" operator="in" result="effect1_backgroundBlur_78_3243"/>
<feBlend mode="normal" in="SourceGraphic" in2="effect1_backgroundBlur_78_3243" result="shape"/>
</filter>
<filter id="filter3_b_78_3243" x="-47.8688" y="86.5936" width="168.467" height="170.456" filterUnits="userSpaceOnUse" color-interpolation-filters="sRGB">
<feFlood flood-opacity="0" result="BackgroundImageFix"/>
<feGaussianBlur in="BackgroundImageFix" stdDeviation="24.1402"/>
<feComposite in2="SourceAlpha" operator="in" result="effect1_backgroundBlur_78_3243"/>
<feBlend mode="normal" in="SourceGraphic" in2="effect1_backgroundBlur_78_3243" result="shape"/>
</filter>
</defs>
</svg>
