<svg width="26" height="20" viewBox="0 0 26 20" fill="none" xmlns="http://www.w3.org/2000/svg">
<path id="Vector 3" d="M0.588899 12.0225L5.85421 0.295205C5.93486 0.115571 6.11343 0 6.31034 0H18.452C18.8169 0 19.0589 0.378218 18.906 0.709528L16.4441 6.04372C16.2912 6.37503 16.5332 6.75325 16.8981 6.75325H24.9668C25.3262 6.75325 25.5683 7.12123 25.4259 7.45129L20.143 19.698C20.0639 19.8813 19.8835 20 19.6839 20H6.74502C6.38606 20 6.14404 19.633 6.28544 19.303L8.80493 13.4242C8.94633 13.0943 8.70432 12.7273 8.34536 12.7273H1.04503C0.682389 12.7273 0.440363 12.3533 0.588899 12.0225Z" fill="#8B95A1"/>
</svg>
