<svg width="28" height="28" viewBox="0 0 28 28" fill="none" xmlns="http://www.w3.org/2000/svg">
<g id="Frame" clip-path="url(#clip0_4182_18457)">
<g id="Layer_2">
<g id="Group">
<path id="Vector" d="M21.0989 5.23145C18.8587 5.30005 18.8592 8.52312 21.0989 8.59144C23.3392 8.52285 23.3387 5.29977 21.0989 5.23145Z" fill="#8B95A1"/>
<path id="Vector_2" d="M14.0012 7.28125C10.2898 7.28125 7.28125 10.298 7.28125 14.0192C7.63517 22.9568 20.3684 22.9542 20.7212 14.0192C20.7212 10.298 17.7126 7.28125 14.0012 7.28125ZM14.0012 18.3928C11.5921 18.3928 9.63913 16.4347 9.63913 14.0192C9.86901 8.21757 18.1346 8.21925 18.3634 14.0192C18.3634 16.4345 16.4104 18.3928 14.0012 18.3928Z" fill="#8B95A1"/>
<path id="Vector_3" d="M27.2186 8.51696C27.12 3.84964 24.1509 0.878561 19.483 0.781121C18.3622 0.673041 9.63906 0.670801 8.51738 0.781121C3.85062 0.879401 0.879817 3.8488 0.782097 8.51696C0.674017 9.6364 0.671777 18.3629 0.782097 19.4832C0.869177 24.1354 3.86518 27.1322 8.51738 27.219C9.93586 27.2837 10.3886 27.2991 14.0003 27.2991C17.6118 27.2991 18.0648 27.2837 19.483 27.219C20.8984 27.1543 21.8653 26.9295 22.7111 26.6008C25.6755 25.4166 27.1239 22.7824 27.2186 19.4832C27.3267 18.3623 27.3286 9.63836 27.2186 8.51696ZM19.3738 24.8253C18.2709 24.9306 9.73034 24.9322 8.62658 24.8253C7.33018 24.7662 6.62598 24.5495 6.15726 24.3675C2.11154 22.4909 3.36594 18.6955 3.17526 13.4864C3.17946 12.2765 3.17274 9.83604 3.17554 8.62616C3.3371 5.01892 5.03586 3.349 8.62658 3.17456C9.7309 3.069 18.2692 3.0676 19.3738 3.17456C22.9819 3.33612 24.6501 5.03488 24.8249 8.62588C24.8963 9.488 24.9481 14.1945 24.8249 16.5765C24.9579 21.0503 24.754 24.5629 19.3738 24.8253Z" fill="#8B95A1"/>
</g>
</g>
</g>
<defs>
<clipPath id="clip0_4182_18457">
<rect width="28" height="28" fill="white"/>
</clipPath>
</defs>
</svg>
