<svg width="600" height="600" viewBox="0 0 600 600" fill="none" xmlns="http://www.w3.org/2000/svg">
<rect width="600" height="600" fill="#4196FD"/>
<path d="M345.461 289.314C345.461 306.003 322.244 327.392 297.114 327.392C271.983 327.392 251.588 306.003 251.588 289.314C251.588 272.625 271.971 259.085 297.114 259.085C322.256 259.085 345.461 272.613 345.461 289.314Z" fill="white"/>
<path d="M317.896 278.402C317 279.553 316.104 280.8 315.922 282.242C315.704 283.925 316.479 285.56 317.23 287.074C320.464 293.65 323.928 300.493 329.85 304.805C338.715 311.248 351.917 310.146 360.334 303.133C361.157 302.455 361.957 301.692 362.344 300.699C362.889 299.343 362.562 297.817 362.538 296.351C362.477 292.294 364.754 288.527 365.142 284.494C366.123 274.224 356.131 263.348 346.612 261.737C335.445 259.848 324.424 270.082 317.884 278.39L317.896 278.402Z" fill="white"/>
<path d="M344.735 256.76C344.492 255.731 344.19 254.677 343.451 253.926C342.591 253.054 341.331 252.752 340.132 252.485C334.961 251.359 329.547 250.233 324.448 251.65C316.83 253.769 311.526 261.714 311.695 269.622C311.707 270.385 311.78 271.185 312.168 271.851C312.688 272.771 313.694 273.268 314.529 273.91C316.855 275.702 317.957 278.669 320.064 280.704C325.429 285.876 336.063 285.113 341.247 280.462C347.338 275 346.503 264.185 344.747 256.748L344.735 256.76Z" fill="white"/>
<path d="M286.941 247.326C285.705 248.125 284.446 249.033 283.792 250.353C283.029 251.891 283.235 253.708 283.453 255.404C284.385 262.755 285.439 270.446 289.69 276.513C296.048 285.597 309.031 288.879 319.386 284.955C320.392 284.567 321.409 284.107 322.111 283.296C323.068 282.169 323.274 280.607 323.722 279.214C324.994 275.314 328.409 272.468 330.117 268.726C334.441 259.231 328.458 245.533 319.895 240.858C309.831 235.372 295.939 241.536 286.941 247.326Z" fill="white"/>
<path d="M281.454 236.861C280.025 236.607 278.511 236.413 277.155 236.934C275.58 237.54 274.502 238.981 273.521 240.349C269.258 246.284 264.874 252.533 263.881 259.763C262.391 270.579 269.549 281.648 279.662 285.754C280.643 286.154 281.696 286.505 282.75 286.384C284.191 286.214 285.378 285.221 286.65 284.519C290.186 282.557 294.558 282.787 298.289 281.237C307.772 277.276 312.628 263.397 309.576 254.277C305.991 243.571 291.833 238.714 281.454 236.861Z" fill="white"/>
<path d="M284.821 250.001C284.312 248.621 283.707 247.192 282.556 246.271C281.224 245.193 279.407 244.987 277.7 244.83C270.312 244.128 262.585 243.486 255.73 246.308C245.484 250.534 239.428 262.476 241.003 273.449C241.16 274.514 241.39 275.616 242.032 276.476C242.916 277.663 244.394 278.196 245.666 278.947C249.202 281.042 251.225 285.003 254.507 287.473C262.839 293.771 277.494 290.925 283.937 283.574C291.494 274.95 288.515 260.042 284.821 250.001Z" fill="white"/>
<path d="M274.769 259.582C273.848 257.898 272.807 256.191 271.159 255.222C269.246 254.095 266.872 254.18 264.656 254.301C255.052 254.81 245.012 255.44 236.764 260.369C224.423 267.732 218.936 284.216 223.042 297.986C223.442 299.33 223.95 300.687 224.931 301.668C226.288 303.024 228.298 303.424 230.066 304.151C234.996 306.173 238.35 310.86 243.025 313.416C254.906 319.907 273.17 313.464 280.037 302.818C288.091 290.32 281.43 271.765 274.781 259.582H274.769Z" fill="white"/>
<path d="M233.361 294.461C232.21 295.612 231.06 296.896 230.672 298.482C230.212 300.323 230.866 302.237 231.496 304.029C234.245 311.756 237.2 319.822 243.231 325.381C252.254 333.689 267.066 334.174 277.336 327.476C278.329 326.822 279.323 326.084 279.892 325.03C280.667 323.589 280.509 321.857 280.667 320.234C281.115 315.704 284.143 311.829 285.1 307.384C287.522 296.096 277.821 282.714 267.454 279.686C255.282 276.137 241.718 286.081 233.361 294.486V294.461Z" fill="white"/>
<path d="M257.268 300.3C255.9 300.857 254.483 301.511 253.586 302.698C252.545 304.078 252.4 305.907 252.291 307.627C251.83 315.063 251.419 322.85 254.471 329.657C259.036 339.818 271.244 345.51 282.217 343.585C283.283 343.403 284.373 343.125 285.221 342.458C286.383 341.538 286.868 340.024 287.582 338.728C289.581 335.107 293.481 332.951 295.866 329.572C301.922 320.998 298.591 306.355 291.01 300.13C282.108 292.815 267.224 296.291 257.244 300.324L257.268 300.3Z" fill="white"/>
<path d="M267.974 325.661C267.284 327.102 266.642 328.664 266.787 330.251C266.969 332.104 268.18 333.666 269.355 335.119C274.417 341.381 279.77 347.884 287.17 351.07C298.228 355.829 312.107 351.457 319.434 341.902C320.149 340.969 320.827 339.964 321.009 338.801C321.263 337.215 320.548 335.664 320.173 334.102C319.119 329.766 320.657 325.188 320.088 320.768C318.659 309.516 305.313 300.288 294.728 300.869C282.302 301.547 272.976 315.172 267.974 325.673V325.661Z" fill="white"/>
<path d="M323.928 302.262C323.165 301.499 322.317 300.748 321.275 300.494C320.052 300.191 318.792 300.627 317.618 301.051C312.519 302.88 307.19 304.842 303.532 308.851C298.058 314.821 297.767 324.619 302.212 331.389C302.648 332.043 303.133 332.697 303.835 333.073C304.792 333.582 305.93 333.473 307.008 333.582C310 333.872 312.567 335.858 315.51 336.488C322.983 338.075 331.8 331.632 333.786 324.777C336.111 316.723 329.511 307.785 323.952 302.274L323.928 302.262Z" fill="white"/>
<path d="M312.543 302.528C311.756 303.545 310.993 304.647 310.836 305.919C310.654 307.396 311.344 308.825 312.01 310.158C314.893 315.91 317.981 321.893 323.213 325.636C331.037 331.231 342.615 330.177 349.967 323.964C350.681 323.359 351.384 322.681 351.723 321.809C352.183 320.61 351.892 319.277 351.868 317.994C351.783 314.433 353.757 311.114 354.072 307.566C354.872 298.543 346.018 289.06 337.65 287.704C327.827 286.117 318.235 295.176 312.543 302.528Z" fill="white"/>
<path d="M330.056 272.674C328.845 273.11 327.61 273.643 326.798 274.648C325.853 275.811 325.684 277.397 325.539 278.875C324.921 285.306 324.34 292.04 326.786 298.023C330.456 306.961 340.859 312.253 350.427 310.897C351.36 310.763 352.316 310.57 353.067 310C354.097 309.237 354.569 307.942 355.223 306.839C357.052 303.763 360.503 302.007 362.671 299.149C368.17 291.894 365.711 279.117 359.317 273.485C351.82 266.885 338.812 269.464 330.044 272.662L330.056 272.674Z" fill="white"/>
<path d="M116.754 381.807C184.831 464.95 313.633 465.18 402.65 419.375C461.655 389.013 536.49 311.841 518.348 237.745C513.479 217.846 482.753 226.275 487.634 246.21C502.107 305.325 431.329 368.908 386.566 391.871C309.116 431.608 198.238 431.305 139.269 359.28C126.274 343.414 103.856 366.062 116.754 381.795V381.807Z" fill="white"/>
<path d="M209.344 173.593C209.344 160.563 198.781 150 185.751 150C172.722 150 162.159 160.563 162.159 173.593V203.35C162.159 216.379 172.722 226.942 185.751 226.942C198.781 226.942 209.344 216.379 209.344 203.35V173.593Z" fill="white"/>
<path d="M398.835 173.593C398.835 160.563 388.272 150 375.242 150C362.213 150 351.65 160.563 351.65 173.593V203.35C351.65 216.379 362.213 226.942 375.242 226.942C388.272 226.942 398.835 216.379 398.835 203.35V173.593Z" fill="white"/>
</svg>
