<svg width="22" height="20" viewBox="0 0 22 20" fill="none" xmlns="http://www.w3.org/2000/svg">
<g id="Icon">
<path id="Vector" d="M21.0108 19.9996V12.6648C21.0108 9.07491 20.2383 6.3125 16.0432 6.3125C14.0256 6.3125 12.6731 7.41747 12.1206 8.46743H12.0631V6.64749H8.08545V19.9996H12.2256V13.3873C12.2256 11.6373 12.5556 9.96238 14.7256 9.96238C16.8957 9.96238 16.8807 11.9623 16.8807 13.4998V19.9996H21.0108Z" fill="#8B95A1"/>
<path id="Vector_2" d="M1.34131 6.64746H5.48642V19.9995H1.34131V6.64746Z" fill="#8B95A1"/>
<path id="Vector_3" d="M3.4113 2.06005e-05C2.93319 -0.00195471 2.46527 0.138166 2.06695 0.402596C1.66862 0.667027 1.35785 1.04384 1.17409 1.48521C0.990322 1.92657 0.941851 2.41258 1.03483 2.88154C1.1278 3.3505 1.35803 3.78127 1.69628 4.11915C2.03454 4.45703 2.46557 4.6868 2.93465 4.77928C3.40374 4.87176 3.88973 4.82279 4.33093 4.63857C4.77213 4.45436 5.14864 4.14322 5.41267 3.74464C5.6767 3.34606 5.81634 2.87802 5.81387 2.39994C5.81387 2.08457 5.75171 1.77229 5.63094 1.48095C5.51017 1.18962 5.33315 0.924943 5.11002 0.702057C4.88689 0.479171 4.62201 0.302447 4.33054 0.181986C4.03906 0.061526 3.72669 -0.000307913 3.4113 2.06005e-05Z" fill="#8B95A1"/>
</g>
</svg>
