<svg width="26" height="24" viewBox="0 0 26 24" fill="none" xmlns="http://www.w3.org/2000/svg">
<path id="background" d="M13.0057 0C6.08708 0 0.484375 5.50936 0.484375 12.305C0.484375 17.7415 4.07229 22.3539 9.04666 23.9794C9.67272 24.0932 9.90038 23.713 9.90038 23.3875C9.90038 23.0619 9.90038 22.3198 9.88672 21.2953C6.40353 22.0375 5.66819 19.6448 5.66819 19.6448C5.09904 18.2242 4.27491 17.844 4.27491 17.844C3.13661 17.0813 4.3637 17.0972 4.3637 17.0972C5.62038 17.1815 6.28059 18.3653 6.28059 18.3653C7.39612 20.2458 9.21057 19.7017 9.92315 19.3875C9.98363 18.76 10.27 18.1759 10.7291 17.7438C7.94934 17.4342 5.03757 16.3778 5.03757 11.663C5.0131 10.4379 5.46812 9.25178 6.30563 8.35739C6.16449 8.04549 5.74331 6.79564 6.41491 5.09958C6.41491 5.09958 7.46442 4.76947 9.8594 6.36081C11.9097 5.80836 14.0697 5.80836 16.12 6.36081C18.4991 4.76719 19.5349 5.09958 19.5349 5.09958C20.2179 6.79564 19.7854 8.04549 19.6602 8.35739C20.5009 9.24905 20.9614 10.433 20.9442 11.6585C20.9442 16.3847 18.0165 17.4251 15.2322 17.7279C15.6693 18.0967 16.0768 18.8525 16.0768 20.0045C16.0768 21.6504 16.0609 22.964 16.0609 23.3738C16.0609 23.6971 16.2885 24.0818 16.9214 23.9589C21.9299 22.3425 25.5156 17.7279 25.5156 12.3005C25.5269 5.50937 19.9197 0 13.0057 0Z" fill="#8B95A1"/>
</svg>
