<svg width="22" height="18" viewBox="0 0 22 18" fill="none" xmlns="http://www.w3.org/2000/svg">
<g id="Layer 2">
<g id="Layer 1">
<path id="mail" d="M17.706 0H4.29426C3.31169 0.000934451 2.36962 0.391675 1.67484 1.08646C0.980053 1.78125 0.589313 2.72331 0.588379 3.70588L0.588379 14.2941C0.589313 15.2767 0.980053 16.2188 1.67484 16.9135C2.36962 17.6083 3.31169 17.9991 4.29426 18H17.706C18.6886 17.9991 19.6307 17.6083 20.3255 16.9135C21.0202 16.2188 21.411 15.2767 21.4119 14.2941V3.70588C21.411 2.72331 21.0202 1.78125 20.3255 1.08646C19.6307 0.391675 18.6886 0.000934451 17.706 0ZM18.846 6.10941L12.5143 9.67059C12.0509 9.92738 11.5299 10.0621 11.0001 10.0621C10.4704 10.0621 9.94937 9.92738 9.48603 9.67059L3.15426 6.10941C3.03899 6.06117 2.93527 5.989 2.84998 5.89767C2.76469 5.80634 2.69977 5.69794 2.65953 5.57963C2.61928 5.46133 2.60462 5.33583 2.61652 5.21143C2.62842 5.08704 2.6666 4.96659 2.72855 4.85806C2.79049 4.74953 2.87478 4.6554 2.97584 4.58189C3.07689 4.50839 3.19241 4.45718 3.31474 4.43168C3.43707 4.40617 3.56343 4.40693 3.68544 4.43392C3.80745 4.46091 3.92234 4.51351 4.0225 4.58824L10.3507 8.11765C10.5492 8.22862 10.7728 8.28689 11.0001 8.28689C11.2275 8.28689 11.4511 8.22862 11.6496 8.11765L17.9778 4.58824C18.0788 4.52674 18.1912 4.48617 18.3082 4.46895C18.4252 4.45173 18.5444 4.45821 18.6589 4.488C18.7733 4.51779 18.8806 4.57028 18.9744 4.64235C19.0681 4.71443 19.1465 4.80462 19.2047 4.90756C19.2629 5.0105 19.2998 5.1241 19.3133 5.24159C19.3267 5.35909 19.3164 5.47809 19.2829 5.59152C19.2495 5.70495 19.1936 5.8105 19.1185 5.90189C19.0435 5.99329 18.9508 6.06866 18.846 6.12353V6.10941Z" fill="#8B95A1"/>
</g>
</g>
</svg>
