<svg width="24" height="24" viewBox="0 0 24 24" fill="none" xmlns="http://www.w3.org/2000/svg">
<g id="Layer_1">
<path id="Vector" d="M12.9695 12.9698C13.0734 12.8663 13.2053 12.7955 13.349 12.7661C13.4927 12.7368 13.6419 12.7502 13.778 12.8048L21.278 15.8048C21.4123 15.8585 21.5282 15.9498 21.6117 16.0678C21.6953 16.1859 21.7429 16.3255 21.7489 16.47C21.755 16.6145 21.7191 16.7576 21.6457 16.8822C21.5722 17.0067 21.4643 17.1074 21.335 17.1721L18.56 18.5603L17.1717 21.3353C17.1071 21.4645 17.0064 21.5722 16.882 21.6455C16.7576 21.7189 16.6146 21.7547 16.4703 21.7488C16.326 21.7428 16.1865 21.6954 16.0685 21.612C15.9505 21.5287 15.8591 21.4131 15.8052 21.2791L12.8052 13.7791C12.7504 13.6429 12.7368 13.4936 12.766 13.3498C12.7952 13.2059 12.8659 13.0738 12.9695 12.9698Z" fill="#8B95A1"/>
<path id="Vector_2" d="M2.25 11.9819C2.25298 9.39697 3.28116 6.91875 5.109 5.09091C6.93683 3.26308 9.41505 2.23489 12 2.23191C13.3527 2.21859 14.6931 2.48944 15.9346 3.02694C17.176 3.56444 18.2907 4.3566 19.2066 5.35217C20.1225 6.34773 20.8191 7.52451 21.2514 8.80635C21.6837 10.0882 21.8421 11.4465 21.7162 12.7934C21.7082 12.8916 21.6808 12.9873 21.6358 13.0749C21.5908 13.1625 21.5289 13.2404 21.4538 13.3041C21.3786 13.3679 21.2916 13.4162 21.1978 13.4463C21.104 13.4764 21.0052 13.4877 20.907 13.4797C20.8088 13.4716 20.7132 13.4443 20.6255 13.3992C20.5379 13.3542 20.46 13.2923 20.3963 13.2172C20.3326 13.142 20.2843 13.0551 20.2541 12.9612C20.224 12.8674 20.2127 12.7686 20.2208 12.6704C20.2937 11.5378 20.1364 10.4021 19.7583 9.33201C19.3802 8.26187 18.7892 7.27946 18.0209 6.44408C17.2526 5.6087 16.3229 4.93768 15.2881 4.47153C14.2533 4.00539 13.1348 3.75379 12 3.73191C9.8127 3.7343 7.71566 4.60426 6.169 6.15091C4.62234 7.69757 3.75238 9.79461 3.75 11.9819C3.77188 13.1166 4.02346 14.2351 4.48956 15.2699C4.95566 16.3046 5.62661 17.2342 6.46191 18.0025C7.2972 18.7708 8.27953 19.3618 9.34957 19.74C10.4196 20.1181 11.5552 20.2755 12.6877 20.2027C12.8863 20.1875 13.0828 20.251 13.2348 20.3796C13.3868 20.5082 13.4821 20.6914 13.5 20.8897C13.5108 21.0867 13.4456 21.2804 13.318 21.4309C13.1904 21.5814 13.0099 21.6773 12.8137 21.6989C8.925 22.3019 2.25 18.9817 2.25 11.9819Z" fill="#8B95A1"/>
<path id="Vector_3" d="M12 21.7324C9.43425 21.7324 7.5 17.5407 7.5 11.9824C7.5 6.42417 9.43425 2.23242 12 2.23242C14.7435 2.23242 16.3343 6.74667 16.4865 11.2062C16.4899 11.3046 16.4739 11.4028 16.4394 11.495C16.4048 11.5873 16.3525 11.6718 16.2853 11.7438C16.2181 11.8158 16.1373 11.8739 16.0477 11.9147C15.958 11.9555 15.8612 11.9783 15.7628 11.9817C15.6639 11.9869 15.565 11.9722 15.472 11.9383C15.379 11.9045 15.2937 11.8522 15.2214 11.7846C15.1491 11.717 15.0911 11.6356 15.051 11.5451C15.0109 11.4546 14.9895 11.3569 14.988 11.2579C14.8342 6.82542 13.2908 3.73242 12 3.73242C10.584 3.73242 9 7.25742 9 11.9824C9 16.7074 10.584 20.2324 12 20.2324C12.1989 20.2324 12.3897 20.3114 12.5303 20.4521C12.671 20.5927 12.75 20.7835 12.75 20.9824C12.75 21.1813 12.671 21.3721 12.5303 21.5128C12.3897 21.6534 12.1989 21.7324 12 21.7324Z" fill="#8B95A1"/>
<path id="Vector_4" d="M20.25 9.73242H3.75C3.55109 9.73242 3.36032 9.6534 3.21967 9.51275C3.07902 9.3721 3 9.18133 3 8.98242C3 8.78351 3.07902 8.59274 3.21967 8.45209C3.36032 8.31144 3.55109 8.23242 3.75 8.23242H20.25C20.4489 8.23242 20.6397 8.31144 20.7803 8.45209C20.921 8.59274 21 8.78351 21 8.98242C21 9.18133 20.921 9.3721 20.7803 9.51275C20.6397 9.6534 20.4489 9.73242 20.25 9.73242Z" fill="#8B95A1"/>
<path id="Vector_5" d="M12 15.7324H3.75C3.55109 15.7324 3.36032 15.6534 3.21967 15.5128C3.07902 15.3721 3 15.1813 3 14.9824C3 14.7835 3.07902 14.5927 3.21967 14.4521C3.36032 14.3114 3.55109 14.2324 3.75 14.2324H12C12.1989 14.2324 12.3897 14.3114 12.5303 14.4521C12.671 14.5927 12.75 14.7835 12.75 14.9824C12.75 15.1813 12.671 15.3721 12.5303 15.5128C12.3897 15.6534 12.1989 15.7324 12 15.7324Z" fill="#8B95A1"/>
</g>
</svg>
