<svg width="1512" height="1210" viewBox="0 0 1512 1210" fill="none" xmlns="http://www.w3.org/2000/svg">
<rect width="1512" height="1209.6" fill="#4196FD"/>
<g clip-path="url(#clip0_148_255)">
<path d="M1194.81 468.309C1194.81 443.838 1172.9 424 1145.87 424C1118.85 424 1096.94 443.838 1096.94 468.309V528.799C1096.94 553.271 1118.85 573.109 1145.87 573.109C1172.9 573.109 1194.81 553.271 1194.81 528.799V468.309Z" fill="white"/>
<path d="M1346.63 468.309C1346.63 443.838 1324.72 424 1297.69 424C1270.66 424 1248.75 443.838 1248.75 468.309V528.799C1248.75 553.271 1270.66 573.109 1297.69 573.109C1324.72 573.109 1346.63 553.271 1346.63 528.799V468.309Z" fill="white"/>
<path d="M1180.46 472.368C1180.46 455.075 1164.97 441.056 1145.87 441.056C1126.78 441.056 1111.29 455.075 1111.29 472.368V515.12C1111.29 532.413 1126.78 546.432 1145.87 546.432C1164.97 546.432 1180.46 532.413 1180.46 515.12V472.368Z" fill="#E9ECF2"/>
<path d="M1332.27 472.368C1332.27 455.075 1316.79 441.056 1297.69 441.056C1278.59 441.056 1263.11 455.075 1263.11 472.368V515.12C1263.11 532.413 1278.59 546.432 1297.69 546.432C1316.79 546.432 1332.27 532.413 1332.27 515.12V472.368Z" fill="#E9ECF2"/>
<path d="M1199.28 445.726H1244.3C1300.79 445.726 1346.65 487.236 1346.65 538.367V827.366H1096.94V538.367C1096.94 487.236 1142.79 445.726 1199.28 445.726Z" fill="white"/>
<path d="M1236.61 543.598C1236.61 548.181 1229.58 554.058 1221.94 554.058C1214.31 554.058 1208.13 548.181 1208.13 543.598C1208.13 539.015 1214.31 535.289 1221.94 535.289C1229.58 535.289 1236.61 538.997 1236.61 543.598Z" fill="black"/>
<path d="M1228.26 540.589C1227.99 540.904 1227.72 541.254 1227.66 541.638C1227.61 542.093 1227.84 542.548 1228.05 542.968C1229.04 544.77 1230.08 546.659 1231.88 547.831C1234.56 549.598 1238.56 549.3 1241.13 547.376C1241.39 547.184 1241.62 546.974 1241.75 546.711C1241.91 546.344 1241.81 545.924 1241.81 545.522C1241.79 544.402 1242.49 543.37 1242.6 542.268C1242.89 539.452 1239.88 536.461 1236.98 536.023C1233.6 535.499 1230.25 538.315 1228.26 540.589Z" fill="black"/>
<path d="M1236.4 534.659C1236.32 534.379 1236.23 534.082 1236.01 533.872C1235.76 533.627 1235.38 533.557 1235.01 533.47C1233.44 533.155 1231.8 532.857 1230.25 533.242C1227.94 533.819 1226.33 536.006 1226.39 538.175C1226.39 538.385 1226.41 538.612 1226.52 538.787C1226.68 539.032 1226.99 539.172 1227.24 539.347C1227.94 539.837 1228.28 540.659 1228.92 541.219C1230.54 542.636 1233.77 542.426 1235.36 541.149C1237.21 539.644 1236.94 536.671 1236.42 534.642L1236.4 534.659Z" fill="black"/>
<path d="M1218.87 532.07C1218.51 532.297 1218.12 532.542 1217.93 532.892C1217.69 533.312 1217.75 533.819 1217.83 534.274C1218.12 536.286 1218.43 538.402 1219.72 540.064C1221.66 542.566 1225.6 543.458 1228.73 542.373C1229.04 542.268 1229.35 542.146 1229.56 541.918C1229.85 541.604 1229.91 541.184 1230.04 540.799C1230.43 539.732 1231.47 538.945 1231.97 537.913C1233.29 535.306 1231.47 531.545 1228.86 530.268C1225.81 528.764 1221.6 530.461 1218.87 532.052V532.07Z" fill="black"/>
<path d="M1217.19 529.184C1216.77 529.114 1216.3 529.061 1215.9 529.201C1215.41 529.359 1215.08 529.761 1214.79 530.146C1213.5 531.773 1212.17 533.487 1211.88 535.481C1211.43 538.455 1213.6 541.499 1216.67 542.618C1216.96 542.723 1217.29 542.828 1217.6 542.793C1218.04 542.741 1218.39 542.478 1218.78 542.286C1219.86 541.744 1221.17 541.814 1222.31 541.376C1225.19 540.292 1226.66 536.478 1225.73 533.977C1224.65 531.038 1220.36 529.709 1217.21 529.201L1217.19 529.184Z" fill="black"/>
<path d="M1218.22 532.805C1218.06 532.42 1217.87 532.035 1217.52 531.773C1217.11 531.475 1216.57 531.423 1216.05 531.37C1213.81 531.178 1211.47 531.003 1209.38 531.773C1206.27 532.927 1204.44 536.216 1204.92 539.225C1204.96 539.522 1205.04 539.819 1205.23 540.064C1205.5 540.397 1205.94 540.537 1206.33 540.747C1207.39 541.324 1208.01 542.408 1209.02 543.091C1211.55 544.822 1215.99 544.035 1217.94 542.024C1220.24 539.662 1219.34 535.569 1218.22 532.805Z" fill="black"/>
<path d="M1215.18 535.428C1214.91 534.974 1214.58 534.501 1214.08 534.239C1213.5 533.924 1212.79 533.959 1212.11 533.977C1209.19 534.117 1206.16 534.291 1203.64 535.638C1199.9 537.668 1198.23 542.181 1199.49 545.977C1199.61 546.344 1199.76 546.711 1200.07 546.991C1200.48 547.359 1201.09 547.464 1201.63 547.673C1203.12 548.233 1204.15 549.51 1205.56 550.21C1209.15 551.994 1214.7 550.21 1216.79 547.306C1219.22 543.878 1217.21 538.77 1215.18 535.428Z" fill="black"/>
<path d="M1202.6 545.015C1202.25 545.329 1201.91 545.679 1201.79 546.117C1201.65 546.624 1201.85 547.149 1202.04 547.639C1202.87 549.755 1203.78 551.977 1205.6 553.499C1208.34 555.773 1212.82 555.913 1215.93 554.076C1216.24 553.901 1216.53 553.691 1216.71 553.411C1216.94 553.009 1216.9 552.537 1216.94 552.099C1217.07 550.857 1218 549.79 1218.29 548.566C1219.03 545.469 1216.09 541.796 1212.94 540.956C1209.25 539.977 1205.13 542.706 1202.6 545.015Z" fill="black"/>
<path d="M1209.87 546.607C1209.44 546.764 1209.02 546.939 1208.75 547.272C1208.44 547.656 1208.38 548.146 1208.36 548.618C1208.22 550.665 1208.09 552.799 1209.02 554.671C1210.41 557.47 1214.1 559.027 1217.44 558.502C1217.77 558.449 1218.1 558.379 1218.35 558.187C1218.7 557.925 1218.85 557.522 1219.07 557.155C1219.66 556.158 1220.86 555.563 1221.58 554.636C1223.41 552.274 1222.41 548.269 1220.11 546.554C1217.4 544.543 1212.9 545.505 1209.87 546.607Z" fill="black"/>
<path d="M1213.11 553.568C1212.9 553.971 1212.71 554.391 1212.75 554.828C1212.8 555.335 1213.17 555.773 1213.52 556.157C1215.05 557.872 1216.69 559.656 1218.93 560.531C1222.29 561.843 1226.49 560.636 1228.71 558.012C1228.92 557.749 1229.13 557.487 1229.19 557.154C1229.27 556.717 1229.06 556.297 1228.94 555.86C1228.61 554.67 1229.09 553.411 1228.92 552.204C1228.5 549.108 1224.44 546.589 1221.23 546.746C1217.46 546.939 1214.64 550.682 1213.11 553.551V553.568Z" fill="black"/>
<path d="M1230.08 547.149C1229.85 546.939 1229.6 546.729 1229.27 546.659C1228.9 546.572 1228.52 546.694 1228.15 546.816C1226.6 547.324 1224.98 547.866 1223.88 548.951C1222.22 550.595 1222.12 553.289 1223.47 555.143C1223.61 555.318 1223.76 555.51 1223.95 555.598C1224.24 555.738 1224.59 555.703 1224.92 555.738C1225.83 555.825 1226.6 556.367 1227.49 556.542C1229.75 556.98 1232.44 555.213 1233.04 553.324C1233.75 551.12 1231.74 548.653 1230.06 547.149H1230.08Z" fill="black"/>
<path d="M1226.64 547.219C1226.41 547.499 1226.18 547.796 1226.12 548.146C1226.06 548.548 1226.27 548.951 1226.47 549.318C1227.34 550.892 1228.28 552.537 1229.87 553.569C1232.24 555.108 1235.76 554.811 1237.98 553.114C1238.2 552.956 1238.41 552.764 1238.53 552.519C1238.66 552.187 1238.58 551.819 1238.56 551.469C1238.54 550.49 1239.14 549.58 1239.24 548.601C1239.47 546.117 1236.81 543.51 1234.25 543.143C1231.28 542.706 1228.36 545.19 1226.64 547.219Z" fill="black"/>
<path d="M1231.96 539.032C1231.59 539.155 1231.22 539.295 1230.97 539.575C1230.68 539.89 1230.62 540.327 1230.58 540.729C1230.39 542.496 1230.22 544.35 1230.97 545.995C1232.09 548.444 1235.24 549.896 1238.14 549.528C1238.43 549.493 1238.72 549.441 1238.93 549.283C1239.24 549.073 1239.39 548.724 1239.59 548.409C1240.15 547.569 1241.19 547.079 1241.85 546.292C1243.51 544.298 1242.78 540.782 1240.82 539.242C1238.54 537.423 1234.6 538.14 1231.96 539.015V539.032Z" fill="black"/>
<path d="M1158.48 558.671C1173.15 585.042 1211.26 592.854 1240.63 585.93C1260.1 581.333 1287.35 565.16 1286.87 544.215C1286.75 538.598 1277.09 539.002 1277.22 544.64C1277.6 561.351 1252.45 574.133 1237.67 577.603C1212.12 583.599 1179.3 576.846 1166.62 553.996C1163.82 548.964 1155.69 553.677 1158.45 558.684L1158.48 558.671Z" fill="black"/>
<path d="M1188.18 505.341H1188.17C1184.22 505.341 1181.02 508.239 1181.02 511.814V520C1181.02 523.575 1184.22 526.473 1188.17 526.473H1188.18C1192.13 526.473 1195.33 523.575 1195.33 520V511.814C1195.33 508.239 1192.13 505.341 1188.18 505.341Z" fill="black"/>
<path d="M1245.66 505.341H1245.64C1241.69 505.341 1238.49 508.239 1238.49 511.814V520C1238.49 523.575 1241.69 526.473 1245.64 526.473H1245.66C1249.6 526.473 1252.81 523.575 1252.81 520V511.814C1252.81 508.239 1249.6 505.341 1245.66 505.341Z" fill="black"/>
<path d="M1096.94 636.538C1096.94 636.538 1105.82 673.955 1043.46 764.078C981.105 854.2 993.144 985.921 993.144 985.921H1346.65V738.328L1096.95 636.538H1096.94Z" fill="white"/>
<path d="M902.343 502.681L898.079 505.373C895.891 506.755 895.355 509.481 896.881 511.462L998.534 643.366C1000.06 645.347 1003.07 645.832 1005.26 644.45L1009.52 641.758C1011.71 640.376 1012.25 637.65 1010.72 635.669L909.069 503.765C907.543 501.784 904.531 501.299 902.343 502.681Z" fill="#3D3F4D"/>
<path d="M1011.59 619.66L981.648 638.566C978.882 640.313 978.204 643.758 980.134 646.262L1011.49 686.949C1013.42 689.453 1017.23 690.067 1019.99 688.32L1049.93 669.414C1052.7 667.668 1053.37 664.222 1051.45 661.718L1020.09 621.031C1018.16 618.527 1014.35 617.913 1011.59 619.66Z" fill="#69AFEE"/>
<path d="M1252.01 931.642L1222.07 950.548C1219.31 952.295 1218.63 955.741 1220.56 958.245L1274.81 1028.64C1276.74 1031.15 1280.55 1031.76 1283.31 1030.01L1313.25 1011.11C1316.02 1009.36 1316.7 1005.92 1314.77 1003.41L1260.51 933.013C1258.58 930.509 1254.78 929.896 1252.01 931.642Z" fill="#3B80D3"/>
<path d="M1047.47 633.981L984.117 673.984C981.351 675.731 980.673 679.177 982.603 681.681L1013.96 722.368C1015.89 724.872 1019.69 725.486 1022.46 723.739L1085.81 683.735C1088.57 681.988 1089.25 678.543 1087.32 676.039L1055.97 635.352C1054.04 632.848 1050.23 632.234 1047.47 633.981Z" fill="#3B80D3"/>
<path d="M1005.41 711.766L1079.25 665.137C1091.38 657.481 1108.07 660.185 1116.51 671.146L1296.73 904.998L1178.99 979.35L998.773 745.498C990.315 734.523 993.302 719.413 1005.41 711.766Z" fill="#E1F4FF"/>
<path d="M1293.06 889.489L1164.19 970.868C1161.43 972.614 1160.75 976.06 1162.68 978.564L1179.26 1000.08C1181.19 1002.59 1185 1003.2 1187.77 1001.45L1316.63 920.076C1319.4 918.33 1320.08 914.884 1318.15 912.38L1301.56 890.86C1299.63 888.356 1295.83 887.742 1293.06 889.489Z" fill="#6DB2F8"/>
<path d="M1347.38 960.015L1218.51 1041.39C1215.74 1043.14 1215.07 1046.59 1217 1049.09L1233.58 1070.61C1235.51 1073.11 1239.32 1073.73 1242.08 1071.98L1370.95 990.603C1373.72 988.856 1374.39 985.41 1372.46 982.906L1355.88 961.386C1353.95 958.883 1350.14 958.269 1347.38 960.015Z" fill="#6DB2F8"/>
<path d="M1134.32 694.244L1142.82 705.277L1095.91 734.902C1093.72 736.283 1090.7 735.797 1089.18 733.817L1086.2 729.958C1084.68 727.978 1085.22 725.25 1087.4 723.869L1134.32 694.244Z" fill="#AAC5E2"/>
<path d="M1256.78 853.204L1265.29 864.237L1218.37 893.862C1216.19 895.243 1213.17 894.757 1211.65 892.777L1208.67 888.918C1207.15 886.938 1207.68 884.21 1209.87 882.829L1256.78 853.204Z" fill="#AAC5E2"/>
<path d="M1195.55 773.704L1204.06 784.736L1137.3 826.892C1135.11 828.273 1132.1 827.787 1130.57 825.807L1127.6 821.948C1126.07 819.968 1126.61 817.24 1128.8 815.859L1195.55 773.704Z" fill="#AAC5E2"/>
<path d="M1164.93 733.986L1173.43 745.018L1140.82 765.616C1138.63 766.997 1135.62 766.511 1134.09 764.531L1131.12 760.672C1129.59 758.692 1130.13 755.964 1132.31 754.583L1164.93 733.986Z" fill="#AAC5E2"/>
<path d="M1226.17 813.461L1234.68 824.494L1202.06 845.091C1199.87 846.473 1196.86 845.987 1195.33 844.007L1192.36 840.148C1190.83 838.168 1191.37 835.44 1193.56 834.059L1226.17 813.461Z" fill="#AAC5E2"/>
<path d="M983.559 910.824C983.559 910.824 887.555 853.291 1017.36 740.672C1147.16 628.054 1171.51 765.162 1120.12 809.226C1068.74 853.291 1048.45 949.991 1048.45 949.991L983.539 910.824H983.559Z" fill="white"/>
<path d="M1387.15 784.998C1387.15 784.998 1449.26 860.795 1300.36 920.375C1151.47 979.956 1177.5 856.456 1236.26 833.313C1295.03 810.153 1345.27 733.517 1345.27 733.517L1387.17 784.998H1387.15Z" fill="white"/>
</g>
<path d="M334.462 415.69V398.644H318.716C315.854 398.644 313.642 396.301 313.642 393.179C313.642 390.056 315.854 387.713 318.716 387.713H334.462V375.872C334.462 372.359 337.194 369.626 340.968 369.626C344.741 369.626 347.474 372.359 347.474 375.872V420.114C347.474 423.888 344.481 426.881 340.707 426.881H313.642C303.752 426.881 298.027 421.155 298.027 411.266V375.872C298.027 372.359 300.759 369.626 304.533 369.626C308.307 369.626 311.039 372.359 311.039 375.872V410.485C311.039 413.868 312.861 415.69 316.244 415.69H334.462ZM371.417 373.4V394.22H383.128V372.749C383.128 369.236 386.121 366.503 389.764 366.503C393.408 366.503 396.401 369.236 396.401 372.749V428.312C396.401 431.825 393.408 434.558 389.764 434.558C386.121 434.558 383.128 431.825 383.128 428.312V405.931H371.417V427.661C371.417 431.175 368.554 433.907 364.911 433.907C361.267 433.907 358.404 431.175 358.404 427.661V373.4C358.404 369.886 361.267 367.154 364.911 367.154C368.554 367.154 371.417 369.886 371.417 373.4ZM382.868 451.344H311.43C308.307 451.344 305.834 448.742 305.834 445.488C305.834 442.235 308.307 439.633 311.43 439.633H389.634C393.408 439.633 396.401 442.626 396.401 446.399V474.246C396.401 477.759 393.408 480.492 389.634 480.492C385.861 480.492 382.868 477.759 382.868 474.246V451.344ZM503.934 479.711H439.653C429.763 479.711 424.038 473.986 424.038 464.096V449.783C420.915 449.783 418.443 447.31 418.443 444.057C418.443 440.804 420.915 438.332 424.038 438.332H503.934C507.708 438.332 510.701 441.325 510.701 445.098V472.945C510.701 476.718 507.708 479.711 503.934 479.711ZM515.515 426.1H417.922C414.799 426.1 412.327 423.497 412.327 420.244C412.327 416.991 414.799 414.389 417.922 414.389H454.747V398.774C454.747 395.26 457.74 392.528 461.514 392.528C465.287 392.528 468.28 395.26 468.28 398.774V414.389H515.515C518.638 414.389 521.111 416.991 521.111 420.244C521.111 423.497 518.638 426.1 515.515 426.1ZM497.168 381.337H425.73C422.607 381.337 420.134 378.735 420.134 375.482C420.134 372.228 422.607 369.626 425.73 369.626H503.934C507.708 369.626 510.701 372.619 510.701 376.392V402.287C510.701 405.801 507.708 408.533 503.934 408.533C500.161 408.533 497.168 405.801 497.168 402.287V381.337ZM437.311 449.783V463.055C437.311 466.439 439.132 468.26 442.516 468.26H497.428V449.783H437.311Z" fill="white"/>
<path d="M183.5 556.3H196.2V613.3H183.5V556.3ZM165.8 557.9H178.3V613.1H165.8V557.9ZM152.2 601.5H170.8V610.3H152.2V601.5ZM133.6 595H146.2V612.7H133.6V595ZM116.6 600.4L115.4 590.5C127.4 590.5 147.4 590.3 162.1 588L163 596.8C147.9 600.2 128.7 600.4 116.6 600.4ZM130.3 616.3H143.5V622.3H183V616.3H196.2V647.9H130.3V616.3ZM143.5 632.2V637.7H183V632.2H143.5ZM139.5 559.4C151.5 559.4 159.7 564.8 159.7 573.2C159.7 581.7 151.5 587.2 139.5 587.2C127.4 587.2 119.2 581.7 119.2 573.2C119.2 564.8 127.4 559.4 139.5 559.4ZM139.5 568.5C134.3 568.5 131.1 570 131.1 573.2C131.1 576.6 134.3 578 139.5 578C144.6 578 147.9 576.6 147.9 573.2C147.9 570 144.6 568.5 139.5 568.5ZM238.977 564.4H297.277V575H238.977V564.4ZM229.577 627.1H313.277V638H229.577V627.1ZM291.677 564.4H304.777V575.1C304.777 588.6 304.777 601.4 300.477 621.6L287.377 620.4C291.677 601.7 291.677 588.2 291.677 575.1V564.4ZM294.477 589.8V599.6L237.877 602.4L236.277 591.7L294.477 589.8ZM321.469 598.2H405.369V607.8H321.469V598.2ZM330.869 612.2H395.369V634.2H344.269V642.1H331.069V625.8H382.269V621.2H330.869V612.2ZM331.069 639.3H397.969V648.3H331.069V639.3ZM331.769 557.8H395.169V579.6H345.069V587.2H331.869V571.3H382.069V566.7H331.769V557.8ZM331.869 584.4H396.869V593.4H331.869V584.4ZM356.769 589.2H370.069V602.4H356.769V589.2ZM477.661 556.2H490.961V649.1H477.661V556.2ZM463.161 589.6H480.361V600.3H463.161V589.6ZM416.661 616.7H424.261C439.261 616.7 451.161 616.4 464.561 614.1L465.761 624.9C452.061 627.2 439.661 627.7 424.261 627.7H416.661V616.7ZM416.461 564.1H458.161V598.9H429.861V620H416.661V588.4H445.061V574.7H416.461V564.1Z" fill="#F3343F"/>
<path d="M505.553 627.9H589.353V638.7H505.553V627.9ZM540.653 610.4H553.953V632.3H540.653V610.4ZM514.953 562.3H579.953V593.1H528.353V608.7H515.153V582.7H566.753V572.8H514.953V562.3ZM515.153 603.4H582.053V614.1H515.153V603.4ZM165.6 711.2H187.2V721.9H165.6V711.2ZM180.2 687.4H193.5V754.9H180.2V687.4ZM132.4 767.7H195.6V778.3H132.4V767.7ZM132.4 749.2H145.7V774H132.4V749.2ZM137.4 699.5H148.2V705.3C148.2 722.7 140 738.8 122.2 744.7L115.5 734.1C130.8 729.1 137.4 717 137.4 705.3V699.5ZM140.2 699.5H150.9V705.3C150.9 716.1 157.2 727.6 171.8 732.5L165.3 742.9C148.1 737.2 140.2 721.8 140.2 705.3V699.5ZM119.1 693.6H168.9V704.1H119.1V693.6ZM218.292 691.2H276.992V701.8H218.292V691.2ZM208.092 723.2H291.892V733.8H208.092V723.2ZM243.192 730.7H256.492V750.1H243.192V730.7ZM268.992 691.2H282.092V698.6C282.092 706.6 282.092 715.9 279.192 728.1L266.092 726.8C268.992 714.9 268.992 706.4 268.992 698.6V691.2ZM216.492 746.8H282.192V779.9H268.892V757.3H216.492V746.8ZM381.069 687.3H394.369V754.2H381.069V687.3ZM390.569 712.5H406.669V723.4H390.569V712.5ZM324.969 728.4H332.669C352.769 728.4 362.769 728 373.869 725.6L375.169 736.1C363.869 738.6 353.269 739.1 332.669 739.1H324.969V728.4ZM324.969 694.6H366.369V705.3H338.169V734.1H324.969V694.6ZM334.669 767.7H397.669V778.3H334.669V767.7ZM334.669 747.2H347.969V773.1H334.669V747.2ZM443.461 691C457.561 691 467.761 699.1 467.761 710.8C467.761 722.3 457.561 730.6 443.461 730.6C429.461 730.6 419.261 722.3 419.261 710.8C419.261 699.1 429.461 691 443.461 691ZM443.461 701.8C436.761 701.8 431.961 705 431.961 710.8C431.961 716.5 436.761 719.7 443.461 719.7C450.261 719.7 455.061 716.5 455.061 710.8C455.061 705 450.261 701.8 443.461 701.8ZM437.261 739.8H450.561V777.1H437.261V739.8ZM477.761 687.3H490.961V779.9H477.761V687.3ZM415.361 746.8L413.761 736C429.961 736 452.861 735.8 472.461 732.8L473.361 742.5C453.261 746.5 431.361 746.7 415.361 746.8ZM571.538 700.8H594.038V711.3H571.538V700.8ZM571.538 719.7H594.038V730.4H571.538V719.7ZM530.838 692.9H544.038V705.2H561.638V692.9H574.638V737.4H530.838V692.9ZM544.038 715.5V727H561.638V715.5H544.038ZM591.138 687.3H604.438V742.6H591.138V687.3ZM573.038 744.2C592.638 744.2 604.738 750.9 604.738 762.1C604.738 773.4 592.638 779.9 573.038 779.9C553.438 779.9 541.338 773.4 541.338 762.1C541.338 750.9 553.438 744.2 573.038 744.2ZM573.038 754.4C561.038 754.4 554.638 756.8 554.638 762.1C554.638 767.3 561.038 769.8 573.038 769.8C585.138 769.8 591.538 767.3 591.538 762.1C591.538 756.8 585.138 754.4 573.038 754.4ZM643.03 734.8H656.33V755.1H643.03V734.8ZM683.63 687.3H696.93V757.4H683.63V687.3ZM630.23 767.7H698.93V778.3H630.23V767.7ZM630.23 750.8H643.53V770.5H630.23V750.8ZM620.23 738.8L618.63 728.2C635.53 728.2 658.13 728 677.53 725.5L678.33 735C658.63 738.3 636.93 738.8 620.23 738.8ZM666.13 741.1H686.53V750.2H666.13V741.1ZM648.43 690.5C661.93 690.5 671.43 697.2 671.43 707C671.43 716.9 661.93 723.5 648.43 723.5C634.83 723.5 625.33 716.9 625.33 707C625.33 697.2 634.83 690.5 648.43 690.5ZM648.43 700.2C642.23 700.2 637.93 702.5 637.93 707C637.93 711.5 642.23 713.8 648.43 713.8C654.53 713.8 658.83 711.5 658.83 707C658.83 702.5 654.53 700.2 648.43 700.2ZM732.506 758.4H816.306V769.2H732.506V758.4ZM767.706 737.9H781.006V761.4H767.706V737.9ZM767.306 699.4H778.506V702.7C778.506 722.2 764.506 737.7 740.906 742L735.706 731.5C756.306 728.3 767.306 715.5 767.306 702.7V699.4ZM770.006 699.4H781.206V702.7C781.206 715.5 792.206 727.9 813.306 731L808.206 741.5C784.206 737.3 770.006 722.2 770.006 702.7V699.4ZM739.406 694.3H809.106V704.9H739.406V694.3ZM847.898 743.6H861.198V758.6H847.898V743.6ZM888.398 687.3H901.698V779.9H888.398V687.3ZM826.498 764.5L824.898 753.8C841.698 753.7 864.098 753.7 883.598 751.1L884.498 760.7C864.398 764.4 842.898 764.5 826.498 764.5ZM826.698 697.5H882.398V707.9H826.698V697.5ZM854.498 711.6C868.198 711.6 877.698 718.6 877.698 728.9C877.698 739.3 868.198 746.3 854.498 746.3C840.998 746.3 831.498 739.3 831.498 728.9C831.498 718.6 840.998 711.6 854.498 711.6ZM854.498 721.6C848.498 721.6 844.198 724.2 844.198 728.9C844.198 733.7 848.498 736.3 854.498 736.3C860.698 736.3 864.998 733.7 864.998 728.9C864.998 724.2 860.698 721.6 854.498 721.6ZM847.898 687.7H861.198V703.5H847.898V687.7ZM162.7 837.2H187.1V847.9H162.7V837.2ZM137.5 815.4H148.3V828.8C148.3 852.1 140.4 873.6 123 882.3L114.7 871.6C130.5 864.3 137.5 846.4 137.5 828.8V815.4ZM140.3 815.4H150.9V828.8C150.9 846.4 157.6 863.3 172.9 870.1L165 880.7C147.6 872.3 140.3 851.9 140.3 828.8V815.4ZM180.5 808.2H193.7V901.1H180.5V808.2ZM271.492 808.2H284.892V901.1H271.492V808.2ZM212.592 815.6H225.792V838.1H244.892V815.6H258.092V879.5H212.592V815.6ZM225.792 848.4V868.8H244.892V848.4H225.792ZM334.384 813.6H345.984V820.3C345.984 840.4 331.684 858.2 307.684 862.9L301.984 851.9C322.884 848.3 334.384 833.6 334.384 820.3V813.6ZM337.084 813.6H348.584V820.3C348.584 833.9 359.984 848.3 380.984 851.9L375.284 862.9C351.284 858.2 337.084 840.7 337.084 820.3V813.6ZM300.084 878.8H383.884V889.6H300.084V878.8ZM480.361 808.3H492.961V900.9H480.361V808.3ZM449.861 839.9H465.161V850.7H449.861V839.9ZM461.661 809.8H474.061V896.7H461.661V809.8ZM429.861 823.4H439.861V832.9C439.861 853.7 434.161 874.4 419.461 883.6L411.561 873.8C425.161 865.3 429.861 848.7 429.861 832.9V823.4ZM432.861 823.4H442.761V832.9C442.761 848.3 447.361 863.9 460.761 871.7L452.961 881.4C438.261 872.7 432.861 853.3 432.861 832.9V823.4ZM415.061 817.6H456.361V828.3H415.061V817.6ZM546.853 865.9C566.853 865.9 579.653 872.5 579.653 883.5C579.653 894.3 566.853 900.9 546.853 900.9C526.853 900.9 514.053 894.3 514.053 883.5C514.053 872.5 526.853 865.9 546.853 865.9ZM546.853 875.9C534.353 875.9 527.253 878.5 527.253 883.5C527.253 888.4 534.353 890.9 546.853 890.9C559.353 890.9 566.453 888.4 566.453 883.5C566.453 878.5 559.353 875.9 546.853 875.9ZM515.053 812.4H573.653V822.9H515.053V812.4ZM505.653 849.6H589.053V860.2H505.653V849.6ZM536.553 833.5H549.753V852.3H536.553V833.5ZM565.953 812.4H579.153V820C579.153 827.3 579.153 835.2 576.653 844.8L563.453 843.4C565.953 833.9 565.953 827.2 565.953 820V812.4ZM656.845 808.3H670.045V900.9H656.845V808.3ZM667.045 844.4H683.445V855.5H667.045V844.4ZM597.045 822H650.945V832.6H597.045V822ZM624.145 837.8C637.645 837.8 647.645 847 647.645 859.9C647.645 872.8 637.645 882 624.145 882C610.645 882 600.645 872.8 600.645 859.9C600.645 847 610.645 837.8 624.145 837.8ZM624.145 848.6C617.845 848.6 613.345 852.8 613.345 859.9C613.345 867 617.845 871.2 624.145 871.2C630.445 871.2 634.945 867 634.945 859.9C634.945 852.8 630.445 848.6 624.145 848.6ZM617.445 809.8H630.745V826H617.445V809.8ZM753.238 808.3H766.638V900.9H753.238V808.3ZM725.938 817.9H739.138C739.138 846.2 729.538 869.4 696.638 885.3L689.738 874.7C716.338 861.9 725.938 845.1 725.938 820.3V817.9ZM694.638 817.9H732.238V828.4H694.638V817.9ZM814.184 893.03C811.627 893.03 809.437 892.13 807.614 890.331C805.815 888.532 804.927 886.354 804.951 883.797C804.927 881.287 805.815 879.145 807.614 877.369C809.437 875.57 811.627 874.67 814.184 874.67C816.599 874.67 818.729 875.57 820.576 877.369C822.446 879.145 823.393 881.287 823.417 883.797C823.393 885.501 822.943 887.052 822.067 888.449C821.215 889.846 820.091 890.958 818.694 891.787C817.321 892.616 815.817 893.03 814.184 893.03ZM814.184 855.601C811.627 855.601 809.437 854.713 807.614 852.938C805.815 851.138 804.927 848.948 804.951 846.368C804.927 843.858 805.815 841.716 807.614 839.94C809.437 838.141 811.627 837.241 814.184 837.241C816.599 837.241 818.729 838.141 820.576 839.94C822.446 841.716 823.393 843.858 823.417 846.368C823.393 848.072 822.943 849.623 822.067 851.02C821.215 852.417 820.091 853.529 818.694 854.358C817.321 855.187 815.817 855.601 814.184 855.601ZM862.906 863.378C862.906 872.137 861.722 880.21 859.354 887.597C856.987 894.959 853.294 901.801 848.275 908.122H831.442C833.36 905.778 835.124 902.926 836.734 899.564C838.367 896.202 839.776 892.521 840.96 888.52C842.167 884.519 843.102 880.376 843.765 876.091C844.451 871.806 844.795 867.568 844.795 863.378C844.795 857.767 844.215 852.121 843.055 846.439C841.895 840.733 840.308 835.454 838.296 830.601C836.284 825.724 833.999 821.723 831.442 818.598H848.275C853.294 824.919 856.987 831.773 859.354 839.159C861.722 846.522 862.906 854.595 862.906 863.378Z" fill="white"/>
<path d="M956.355 300.3H969.755V392.9H956.355V300.3ZM929.055 309.9H942.255C942.255 338.2 932.655 361.4 899.755 377.3L892.855 366.7C919.455 353.9 929.055 337.1 929.055 312.3V309.9ZM897.755 309.9H935.355V320.4H897.755V309.9ZM1019.65 300.8H1030.85V302.5C1030.85 318 1016.95 330.2 993.047 332.8L988.647 322.8C1009.55 320.7 1019.65 311.5 1019.65 302.5V300.8ZM1021.95 300.8H1033.25V302.5C1033.25 311.5 1043.35 320.7 1064.15 322.8L1059.75 332.8C1035.85 330.2 1021.95 318 1021.95 302.5V300.8ZM1019.65 344.7H1032.95V357.6H1019.65V344.7ZM984.547 336.6H1068.25V347H984.547V336.6ZM994.147 353H1058.15V377H1007.35V385H994.247V367.8H1045.05V362.9H994.147V353ZM994.247 382.3H1060.55V392.3H994.247V382.3ZM1161.52 300.2H1174.92V393.1H1161.52V300.2ZM1125.02 306.7C1139.02 306.7 1149.32 319.5 1149.32 339.7C1149.32 360.1 1139.02 372.9 1125.02 372.9C1111.02 372.9 1100.72 360.1 1100.72 339.7C1100.72 319.5 1111.02 306.7 1125.02 306.7ZM1125.02 318.8C1118.12 318.8 1113.42 326.1 1113.42 339.7C1113.42 353.5 1118.12 360.9 1125.02 360.9C1131.92 360.9 1136.52 353.5 1136.52 339.7C1136.52 326.1 1131.92 318.8 1125.02 318.8ZM1214.82 306.7C1228.92 306.7 1239.12 319.5 1239.12 339.7C1239.12 360.1 1228.92 372.9 1214.82 372.9C1200.72 372.9 1190.52 360.1 1190.52 339.7C1190.52 319.5 1200.72 306.7 1214.82 306.7ZM1214.82 318.8C1207.92 318.8 1203.32 326.1 1203.32 339.7C1203.32 353.5 1207.92 360.9 1214.82 360.9C1221.72 360.9 1226.42 353.5 1226.42 339.7C1226.42 326.1 1221.72 318.8 1214.82 318.8ZM1259.02 321.8H1275.32V332.8H1259.02V321.8ZM1259.02 349H1275.32V359.9H1259.02V349ZM1249.22 300.3H1262.62V392.9H1249.22V300.3ZM1345.81 300.3H1359.21V392.9H1345.81V300.3ZM1318.51 309.9H1331.71C1331.71 338.2 1322.11 361.4 1289.21 377.3L1282.31 366.7C1308.91 353.9 1318.51 337.1 1318.51 312.3V309.9ZM1287.21 309.9H1324.81V320.4H1287.21V309.9Z" fill="white"/>
<g filter="url(#filter0_d_148_255)">
<rect x="80" y="296" width="178" height="181" rx="51" fill="white"/>
</g>
<path d="M183.168 389.742C183.168 394.804 177.513 401.295 171.376 401.295C165.238 401.295 160.267 394.804 160.267 389.742C160.267 384.68 165.238 380.564 171.376 380.564C177.513 380.564 183.168 384.66 183.168 389.742Z" fill="black"/>
<path d="M176.456 386.418C176.239 386.766 176.021 387.152 175.975 387.577C175.928 388.079 176.114 388.582 176.285 389.045C177.078 391.035 177.917 393.122 179.362 394.417C181.521 396.368 184.737 396.04 186.804 393.914C187.006 393.702 187.192 393.47 187.301 393.18C187.425 392.774 187.348 392.311 187.348 391.866C187.332 390.63 187.891 389.49 187.985 388.273C188.218 385.162 185.794 381.858 183.463 381.375C180.744 380.796 178.057 383.906 176.456 386.418Z" fill="black"/>
<path d="M182.997 379.868C182.935 379.558 182.857 379.23 182.686 378.998C182.484 378.728 182.174 378.65 181.878 378.554C180.62 378.206 179.299 377.878 178.056 378.303C176.192 378.94 174.902 381.355 174.949 383.751C174.949 383.983 174.965 384.234 175.058 384.427C175.182 384.698 175.431 384.852 175.633 385.046C176.192 385.587 176.472 386.495 176.984 387.113C178.289 388.678 180.884 388.446 182.158 387.036C183.65 385.374 183.432 382.089 183.013 379.848L182.997 379.868Z" fill="black"/>
<path d="M168.904 377.009C168.609 377.26 168.299 377.531 168.143 377.917C167.957 378.381 168.003 378.941 168.065 379.444C168.299 381.665 168.547 384.003 169.588 385.839C171.142 388.601 174.311 389.587 176.828 388.389C177.077 388.273 177.326 388.138 177.496 387.887C177.73 387.539 177.776 387.075 177.885 386.65C178.196 385.472 179.035 384.602 179.439 383.462C180.495 380.583 179.035 376.43 176.937 375.019C174.482 373.358 171.095 375.232 168.904 376.99V377.009Z" fill="black"/>
<path d="M167.569 373.821C167.227 373.744 166.854 373.686 166.528 373.84C166.139 374.014 165.875 374.459 165.642 374.884C164.601 376.68 163.529 378.574 163.296 380.776C162.939 384.061 164.679 387.423 167.149 388.659C167.382 388.775 167.646 388.891 167.895 388.852C168.252 388.794 168.532 388.505 168.843 388.292C169.713 387.693 170.769 387.77 171.686 387.287C174.001 386.09 175.182 381.878 174.436 379.115C173.566 375.869 170.117 374.401 167.584 373.84L167.569 373.821Z" fill="black"/>
<path d="M168.377 377.82C168.252 377.395 168.097 376.97 167.817 376.68C167.491 376.352 167.056 376.294 166.636 376.236C164.834 376.023 162.954 375.83 161.276 376.68C158.775 377.955 157.299 381.588 157.687 384.911C157.718 385.239 157.78 385.568 157.936 385.838C158.153 386.205 158.511 386.36 158.821 386.592C159.676 387.229 160.173 388.427 160.981 389.181C163.016 391.093 166.59 390.224 168.159 388.002C170.008 385.394 169.278 380.873 168.377 377.82Z" fill="black"/>
<path d="M165.937 380.718C165.72 380.216 165.456 379.694 165.052 379.404C164.586 379.056 164.011 379.095 163.467 379.114C161.121 379.269 158.682 379.462 156.662 380.95C153.648 383.191 152.311 388.176 153.321 392.368C153.415 392.774 153.539 393.18 153.787 393.489C154.114 393.895 154.611 394.011 155.046 394.242C156.242 394.861 157.066 396.271 158.2 397.044C161.09 399.015 165.549 397.044 167.227 393.837C169.185 390.05 167.569 384.408 165.937 380.718Z" fill="black"/>
<path d="M155.838 391.306C155.559 391.654 155.279 392.04 155.186 392.523C155.077 393.083 155.232 393.663 155.388 394.204C156.056 396.542 156.786 398.995 158.247 400.676C160.453 403.188 164.057 403.342 166.559 401.314C166.807 401.121 167.04 400.889 167.18 400.58C167.367 400.135 167.336 399.614 167.367 399.131C167.476 397.759 168.221 396.58 168.454 395.228C169.045 391.808 166.683 387.751 164.151 386.823C161.183 385.741 157.874 388.755 155.838 391.306Z" fill="black"/>
<path d="M161.665 393.064C161.323 393.238 160.981 393.431 160.764 393.798C160.515 394.223 160.469 394.764 160.453 395.286C160.344 397.546 160.236 399.903 160.981 401.971C162.1 405.062 165.068 406.781 167.755 406.202C168.02 406.144 168.284 406.066 168.486 405.854C168.765 405.564 168.89 405.12 169.061 404.714C169.542 403.613 170.506 402.956 171.08 401.932C172.556 399.324 171.748 394.899 169.9 393.006C167.724 390.784 164.104 391.847 161.665 393.064Z" fill="black"/>
<path d="M164.275 400.754C164.104 401.198 163.949 401.662 163.98 402.145C164.026 402.705 164.321 403.188 164.601 403.613C165.828 405.507 167.149 407.477 168.951 408.443C171.655 409.892 175.026 408.559 176.813 405.661C176.984 405.371 177.155 405.082 177.202 404.714C177.264 404.231 177.093 403.768 177 403.285C176.735 401.971 177.124 400.58 176.984 399.247C176.642 395.827 173.379 393.045 170.8 393.219C167.771 393.431 165.502 397.566 164.275 400.734V400.754Z" fill="black"/>
<path d="M177.916 393.663C177.73 393.431 177.528 393.199 177.264 393.122C176.969 393.025 176.658 393.161 176.363 393.296C175.12 393.856 173.815 394.455 172.929 395.653C171.593 397.469 171.515 400.445 172.603 402.493C172.711 402.686 172.836 402.898 172.991 402.995C173.224 403.149 173.504 403.111 173.768 403.149C174.498 403.246 175.12 403.845 175.834 404.038C177.652 404.521 179.812 402.57 180.293 400.483C180.868 398.049 179.253 395.325 177.901 393.663H177.916Z" fill="black"/>
<path d="M175.151 393.74C174.965 394.049 174.779 394.378 174.732 394.764C174.685 395.209 174.856 395.653 175.012 396.059C175.711 397.798 176.472 399.614 177.746 400.754C179.657 402.454 182.485 402.125 184.272 400.251C184.443 400.077 184.613 399.865 184.707 399.594C184.815 399.227 184.753 398.822 184.738 398.435C184.722 397.353 185.204 396.348 185.282 395.267C185.468 392.523 183.324 389.644 181.273 389.239C178.88 388.756 176.534 391.499 175.151 393.74Z" fill="black"/>
<path d="M179.424 384.698C179.128 384.833 178.833 384.987 178.631 385.297C178.398 385.644 178.351 386.127 178.32 386.572C178.165 388.523 178.025 390.571 178.631 392.387C179.532 395.092 182.065 396.696 184.395 396.29C184.628 396.251 184.861 396.193 185.032 396.02C185.281 395.788 185.405 395.401 185.561 395.054C186.011 394.126 186.85 393.585 187.378 392.716C188.715 390.513 188.124 386.63 186.555 384.93C184.722 382.92 181.552 383.712 179.424 384.678V384.698Z" fill="black"/>
<path d="M120.192 401.257C130.31 431.322 160.397 442.565 184.39 436.97C200.296 433.254 223.17 417.323 224.093 394.217C224.347 388.021 216.57 387.797 216.326 394.017C215.583 412.452 194.608 424.792 182.538 427.593C161.662 432.429 135.763 422.72 127.016 396.671C125.085 390.934 118.267 395.562 120.173 401.27L120.192 401.257Z" fill="black"/>
<path d="M144.232 347.488H144.216C141.042 347.488 138.468 350.688 138.468 354.636V363.678C138.468 367.626 141.042 370.827 144.216 370.827H144.232C147.407 370.827 149.981 367.626 149.981 363.678V354.636C149.981 350.688 147.407 347.488 144.232 347.488Z" fill="black"/>
<path d="M198.713 347.488H198.697C195.523 347.488 192.949 350.688 192.949 354.636V363.678C192.949 367.626 195.523 370.827 198.697 370.827H198.713C201.888 370.827 204.462 367.626 204.462 363.678V354.636C204.462 350.688 201.888 347.488 198.713 347.488Z" fill="black"/>
<path d="M293.229 309.806C292.831 308.758 293.41 307.602 294.349 307.276C295.398 306.951 296.41 307.349 296.807 308.469L304.326 329.542L311.808 308.505C312.205 307.349 313.181 306.915 314.266 307.276C315.206 307.565 315.748 308.758 315.386 309.806L306.856 333.554C306.422 334.747 305.446 335.361 304.29 335.361C303.061 335.361 302.157 334.711 301.759 333.554L293.229 309.806ZM319.222 334.06C318.824 335.108 317.812 335.578 316.728 335.253C315.788 334.892 315.246 333.771 315.643 332.687L324.608 308.939C325.041 307.782 325.8 307.132 327.029 307.132C328.186 307.132 329.017 307.746 329.451 308.939L338.451 332.651C338.849 333.735 338.307 334.855 337.367 335.217C336.283 335.542 335.271 335.072 334.873 334.024L332.704 328.205H325.15C324.174 328.205 323.559 327.301 323.559 326.397C323.559 325.458 324.174 324.626 325.15 324.626H331.367L327.066 313.096L319.222 334.06ZM342.046 318.265C342.046 310.819 346.817 307.132 352.89 307.132C358.745 307.132 362.071 310.782 362.83 314.252C363.083 315.445 362.541 316.421 361.348 316.638C359.938 316.891 359.432 316.096 359.107 315.12C358.167 312.409 356.143 310.71 352.89 310.71C348.986 310.71 346.022 312.77 346.022 318.265V324.409C346.022 329.903 348.986 331.964 352.89 331.964C356.324 331.964 358.095 330.048 359.179 327.915C359.649 327.012 360.264 326.397 361.601 326.795C362.722 327.229 363.119 328.241 362.649 329.361C361.276 332.687 357.625 335.542 352.89 335.542C346.854 335.542 342.046 331.855 342.046 324.409V318.265ZM367.779 318.265C367.779 310.819 372.55 307.132 378.622 307.132C384.37 307.132 387.623 310.674 388.454 313.891C388.743 315.084 388.165 316.06 386.972 316.277C385.562 316.53 385.056 315.734 384.695 314.758C383.755 312.264 381.695 310.71 378.622 310.71C374.719 310.71 371.755 312.77 371.755 318.265V324.409C371.755 329.903 374.538 331.964 378.369 331.964C382.201 331.964 384.984 330.156 384.984 324.662V324.156H378.514C377.538 324.156 376.924 323.253 376.924 322.349C376.924 321.409 377.538 320.578 378.514 320.578H387.37C388.346 320.578 388.96 321.409 388.96 322.349V324.662C388.96 332.108 384.333 335.542 378.369 335.542C372.405 335.542 367.779 331.855 367.779 324.409V318.265ZM404.673 307.132C410.709 307.132 415.516 310.819 415.516 318.265V324.409C415.516 331.855 410.709 335.542 404.673 335.542C398.636 335.542 393.829 331.855 393.829 324.409V318.265C393.829 314.578 394.986 312.156 396.504 310.385C398.347 308.252 401.203 310.927 399.287 312.987C398.311 314.036 397.805 316.132 397.805 318.265V324.409C397.805 329.903 400.769 331.964 404.673 331.964C408.576 331.964 411.54 329.903 411.54 324.409V318.265C411.54 312.807 408.54 310.746 404.998 310.746H403.95C402.359 310.746 400.661 310.06 399.938 308.361C399.359 306.987 400.335 305.469 401.781 305.469C402.468 305.469 402.865 305.758 403.227 306.3C403.625 306.915 403.914 307.132 404.673 307.132ZM447.469 333.626C447.469 334.711 446.71 335.47 445.626 335.47C444.541 335.47 443.782 334.711 443.782 333.626V312.481L439.409 317.072C438.505 318.048 437.276 317.831 436.626 317.108C436.011 316.457 435.83 315.445 436.698 314.542L442.445 308.541C443.24 307.71 443.855 307.24 444.903 307.24C446.421 307.24 447.469 308.361 447.469 309.987V333.626ZM421.48 333.626V309.987C421.48 308.361 422.529 307.24 424.047 307.24C424.95 307.24 425.601 307.529 426.252 308.216L435.975 318.481C436.842 319.385 436.698 320.433 436.119 321.084C435.469 321.807 434.312 322.024 433.409 321.084L425.167 312.445V333.626C425.167 334.711 424.408 335.47 423.324 335.47C422.24 335.47 421.48 334.711 421.48 333.626ZM460.857 332.108C460.857 330.843 461.833 329.759 463.242 329.759C464.616 329.759 465.592 330.843 465.592 332.108V333.048C465.592 334.349 464.616 335.361 463.242 335.361C461.833 335.361 460.857 334.349 460.857 333.048V332.108ZM460.857 317.433V316.493C460.857 315.228 461.833 314.144 463.242 314.144C464.616 314.144 465.592 315.228 465.592 316.493V317.433C465.592 318.734 464.616 319.747 463.242 319.747C461.833 319.747 460.857 318.734 460.857 317.433ZM487.801 320.469V315.734H483.428C482.632 315.734 482.018 315.084 482.018 314.216C482.018 313.349 482.632 312.698 483.428 312.698H487.801V309.409C487.801 308.433 488.56 307.674 489.609 307.674C490.657 307.674 491.416 308.433 491.416 309.409V321.698C491.416 322.747 490.584 323.578 489.536 323.578H482.018C479.271 323.578 477.68 321.988 477.68 319.24V309.409C477.68 308.433 478.44 307.674 479.488 307.674C480.536 307.674 481.295 308.433 481.295 309.409V319.024C481.295 319.963 481.801 320.469 482.741 320.469H487.801ZM498.067 308.722V314.505H501.32V308.541C501.32 307.565 502.151 306.806 503.163 306.806C504.175 306.806 505.007 307.565 505.007 308.541V323.976C505.007 324.952 504.175 325.711 503.163 325.711C502.151 325.711 501.32 324.952 501.32 323.976V317.759H498.067V323.795C498.067 324.771 497.271 325.53 496.259 325.53C495.247 325.53 494.452 324.771 494.452 323.795V308.722C494.452 307.746 495.247 306.987 496.259 306.987C497.271 306.987 498.067 307.746 498.067 308.722ZM501.247 330.373H481.403C480.536 330.373 479.849 329.65 479.849 328.747C479.849 327.843 480.536 327.12 481.403 327.12H503.127C504.175 327.12 505.007 327.952 505.007 329V336.735C505.007 337.711 504.175 338.47 503.127 338.47C502.079 338.47 501.247 337.711 501.247 336.735V330.373ZM537.19 308.541V328.349C537.19 329.325 536.359 330.084 535.311 330.084C534.263 330.084 533.431 329.325 533.431 328.349V308.541C533.431 307.565 534.263 306.806 535.311 306.806C536.359 306.806 537.19 307.565 537.19 308.541ZM518.322 334.711H536.54C537.407 334.711 538.094 335.434 538.094 336.337C538.094 337.241 537.407 337.964 536.54 337.964H517.455C514.708 337.964 513.117 336.374 513.117 333.626V328.566C513.117 327.59 513.949 326.831 514.997 326.831C516.045 326.831 516.876 327.59 516.876 328.566V333.265C516.876 334.205 517.383 334.711 518.322 334.711ZM521.828 313.313L528.985 321.012C529.636 321.735 529.672 322.855 528.949 323.542C528.299 324.192 527.142 324.156 526.455 323.433L519.118 315.481C518.25 314.505 517.672 313.421 517.672 312.011V309.047C517.672 308.071 518.503 307.312 519.551 307.312C520.599 307.312 521.431 308.071 521.431 309.047V311.722C521.431 312.337 521.539 312.987 521.828 313.313ZM517.925 315.409C518.611 316.096 518.575 317.216 517.997 317.867L512.647 323.795C511.997 324.554 510.804 324.554 510.153 323.903C509.43 323.217 509.503 322.096 510.117 321.373L515.467 315.445C516.081 314.722 517.238 314.722 517.925 315.409ZM550.542 308.758H551.518C556.109 308.758 559.904 311.903 559.904 316.06V328.928C559.904 333.084 556.109 336.229 551.518 336.229C546.928 336.229 543.132 333.084 543.132 328.928V316.06C543.132 314.831 543.458 313.71 544.036 312.734C544.542 311.867 545.626 311.541 546.494 312.048C547.398 312.554 547.687 313.674 547.181 314.542C546.964 314.975 546.819 315.626 546.819 316.204V328.783C546.819 331.169 548.807 332.976 551.518 332.976C554.229 332.976 556.217 331.169 556.217 328.783V316.204C556.217 313.819 554.229 312.011 551.518 312.011H549.819C548.337 312.011 547.072 311.469 546.205 310.349C545.554 309.517 545.626 308.361 546.458 307.71C547.289 307.059 548.482 307.24 549.06 307.999C549.422 308.469 549.855 308.758 550.542 308.758ZM569.013 308.541V320.253H571.724C572.591 320.253 573.278 321.012 573.278 321.915C573.278 322.819 572.591 323.578 571.724 323.578H569.013V336.229C569.013 337.205 568.181 337.964 567.133 337.964C566.085 337.964 565.253 337.205 565.253 336.229V308.541C565.253 307.565 566.085 306.806 567.133 306.806C568.181 306.806 569.013 307.565 569.013 308.541ZM575.894 333.337C575.894 332.072 576.87 330.988 578.28 330.988C579.654 330.988 580.63 331.964 580.63 333.446V335.542C580.63 340.169 578.678 342.41 577.196 342.41C576.437 342.41 576.003 341.868 576.003 341.253C576.003 340.639 576.256 340.35 576.834 339.952C577.557 339.482 578.063 338.542 578.135 336.59C576.798 336.518 575.894 335.542 575.894 334.277V333.337ZM617.37 338.253H599.514C596.767 338.253 595.176 336.663 595.176 333.916V329.94C594.309 329.94 593.622 329.253 593.622 328.349C593.622 327.446 594.309 326.759 595.176 326.759H617.37C618.418 326.759 619.249 327.59 619.249 328.638V336.374C619.249 337.422 618.418 338.253 617.37 338.253ZM620.587 323.361H593.477C592.61 323.361 591.923 322.638 591.923 321.735C591.923 320.831 592.61 320.108 593.477 320.108H603.707V315.771C603.707 314.795 604.538 314.036 605.586 314.036C606.634 314.036 607.466 314.795 607.466 315.771V320.108H620.587C621.454 320.108 622.141 320.831 622.141 321.735C622.141 322.638 621.454 323.361 620.587 323.361ZM615.49 310.927H595.646C594.779 310.927 594.092 310.204 594.092 309.3C594.092 308.397 594.779 307.674 595.646 307.674H617.37C618.418 307.674 619.249 308.505 619.249 309.553V316.746C619.249 317.722 618.418 318.481 617.37 318.481C616.321 318.481 615.49 317.722 615.49 316.746V310.927ZM598.863 329.94V333.626C598.863 334.566 599.369 335.072 600.309 335.072H615.562V329.94H598.863ZM633.035 308.758H634.011C638.601 308.758 642.396 311.903 642.396 316.06V328.928C642.396 333.084 638.601 336.229 634.011 336.229C629.42 336.229 625.625 333.084 625.625 328.928V316.06C625.625 314.831 625.95 313.71 626.529 312.734C627.035 311.867 628.119 311.541 628.986 312.048C629.89 312.554 630.179 313.674 629.673 314.542C629.456 314.975 629.312 315.626 629.312 316.204V328.783C629.312 331.169 631.3 332.976 634.011 332.976C636.722 332.976 638.71 331.169 638.71 328.783V316.204C638.71 313.819 636.722 312.011 634.011 312.011H632.312C630.83 312.011 629.565 311.469 628.697 310.349C628.047 309.517 628.119 308.361 628.95 307.71C629.782 307.059 630.974 307.24 631.553 307.999C631.914 308.469 632.348 308.758 633.035 308.758ZM651.505 308.541V320.253H654.216C655.084 320.253 655.77 321.012 655.77 321.915C655.77 322.819 655.084 323.578 654.216 323.578H651.505V336.229C651.505 337.205 650.674 337.964 649.626 337.964C648.577 337.964 647.746 337.205 647.746 336.229V308.541C647.746 307.565 648.577 306.806 649.626 306.806C650.674 306.806 651.505 307.565 651.505 308.541ZM684.773 308.541V336.229C684.773 337.205 683.942 337.964 682.894 337.964C681.846 337.964 681.014 337.205 681.014 336.229V333.482H674.869C674.002 333.482 673.315 332.759 673.315 331.855C673.315 330.952 674.002 330.229 674.869 330.229H681.014V308.541C681.014 307.565 681.846 306.806 682.894 306.806C683.942 306.806 684.773 307.565 684.773 308.541ZM662.833 309.59C662.363 308.686 662.58 307.602 663.484 307.059C664.351 306.553 665.435 306.806 666.014 307.674C666.303 308.108 666.809 308.325 667.423 308.325H670.279C674.146 308.325 677.291 310.927 677.291 314.614C677.291 318.301 674.146 320.903 670.279 320.903H665.725C661.857 320.903 658.712 318.301 658.712 314.614C658.712 313.313 659.074 312.264 659.724 311.252C660.267 310.421 661.315 310.276 662.11 310.746C663.014 311.288 663.158 312.337 662.761 313.168C662.544 313.602 662.399 313.999 662.399 314.614C662.399 316.493 663.917 317.65 666.086 317.65H669.917C672.086 317.65 673.604 316.493 673.604 314.614C673.604 312.734 672.086 311.578 669.917 311.578H666.7C665.146 311.578 663.556 310.999 662.833 309.59ZM678.376 327.337H668.797V336.048C668.797 337.024 667.966 337.783 666.917 337.783C665.869 337.783 665.038 337.024 665.038 336.048V327.337H658.495C657.628 327.337 656.941 326.578 656.941 325.674C656.941 324.771 657.628 324.012 658.495 324.012H678.376C679.243 324.012 679.93 324.771 679.93 325.674C679.93 326.578 679.243 327.337 678.376 327.337ZM691.727 309.156C691.727 308.071 692.559 307.24 693.643 307.24C694.727 307.24 695.595 308.071 695.595 309.156V326.18C695.595 327.265 694.727 328.096 693.643 328.096C692.559 328.096 691.727 327.265 691.727 326.18V309.156ZM691.294 334.277V333.337C691.294 332.072 692.27 330.988 693.679 330.988C695.053 330.988 696.029 332.072 696.029 333.337V334.277C696.029 335.578 695.053 336.59 693.679 336.59C692.27 336.59 691.294 335.578 691.294 334.277Z" fill="white"/>
<defs>
<filter id="filter0_d_148_255" x="65" y="281" width="208" height="211" filterUnits="userSpaceOnUse" color-interpolation-filters="sRGB">
<feFlood flood-opacity="0" result="BackgroundImageFix"/>
<feColorMatrix in="SourceAlpha" type="matrix" values="0 0 0 0 0 0 0 0 0 0 0 0 0 0 0 0 0 0 127 0" result="hardAlpha"/>
<feMorphology radius="4" operator="dilate" in="SourceAlpha" result="effect1_dropShadow_148_255"/>
<feOffset/>
<feGaussianBlur stdDeviation="5.5"/>
<feComposite in2="hardAlpha" operator="out"/>
<feColorMatrix type="matrix" values="0 0 0 0 0.235563 0 0 0 0 0.605912 0 0 0 0 1 0 0 0 0.2 0"/>
<feBlend mode="normal" in2="BackgroundImageFix" result="effect1_dropShadow_148_255"/>
<feBlend mode="normal" in="SourceGraphic" in2="effect1_dropShadow_148_255" result="shape"/>
</filter>
<clipPath id="clip0_148_255">
<rect width="504" height="649" fill="white" transform="translate(896 424)"/>
</clipPath>
</defs>
</svg>
